<svg width="30" height="28" fill="none" xmlns="http://www.w3.org/2000/svg"><path fill-rule="evenodd" clip-rule="evenodd" d="M1.667 16.29c-.92 0-1.667.776-1.667 1.734v8.241C0 27.223.746 28 1.667 28h1.666C4.253 28 5 27.223 5 26.265v-.294c.809-.03 1.651-.052 2.01-.038 1.714.071 2.995.487 4.29.907 1.207.392 2.427.788 4.023.912.402.03.792.07 1.17.11 1.368.14 2.58.265 3.58-.11 1.28-.479 8.588-4.115 9.502-5.072.913-.957.457-3.541-2.375-3.063-1.398.237-3.018.915-4.487 1.531-1.508.632-2.857 1.197-3.644 1.149-1.553-.096-5.664-.861-5.664-.861l4.72.058s.667.036 1.583-.632c.917-.67 1.736-2.584.366-2.584s-2.832-.479-2.832-.479l-5.847-1.34s-2.01-.382-2.832 0c-.523.244-2.33.914-3.574 1.369-.093-.866-.799-1.539-1.656-1.539H1.667z" fill="#D1D1D1"/><path d="M29.77 4.82c-.84.003-3.906.185-6.187 2.5-.958.892-1.544 1.906-1.922 2.857-.377-.951-.963-1.965-1.921-2.858-2.281-2.314-5.347-2.496-6.188-2.5a.226.226 0 00-.224.236c.007.84.207 3.8 2.569 6.003 2.43 2.464 4.838 2.436 5.764 2.436.926 0 3.333.029 5.765-2.436 2.362-2.204 2.562-5.162 2.569-6.003 0-.133-.097-.236-.225-.236zm-8.11 3.33a8.198 8.198 0 011.277-1.521 8.694 8.694 0 011.743-1.36C24.204 3.144 23.184 1.26 21.881.08a.337.337 0 00-.438 0c-1.302 1.179-2.322 3.061-2.799 5.183.59.352 1.172.787 1.714 1.337.493.46.93.98 1.303 1.55z" fill="#D1D1D1"/></svg>