<svg width="69" height="136" fill="none" xmlns="http://www.w3.org/2000/svg"><rect y="48" width="48" height="88" rx="10" fill="#12B370"/><path d="M27 33.122C27 35.816 29.14 38 31.782 38c2.394 0 4.359-1.802 4.708-4.144 1.037.599 2.218.969 3.495.969 3.763 0 6.812-2.98 7.085-6.747a6.975 6.975 0 003.852 1.167c3.943 0 7.139-3.26 7.139-7.283 0-.52-.058-1.023-.159-1.513.8.25 1.632.425 2.512.425 4.742 0 8.586-3.922 8.586-8.76 0-4.837-3.844-8.759-8.586-8.759-.968 0-1.883.2-2.752.502C56.12 1.529 53.51 0 50.547 0c-4.742 0-8.585 3.922-8.585 8.76a8.86 8.86 0 00.594 3.144c-3.865.091-6.974 3.3-6.974 7.265 0 .821.163 1.598.408 2.334a7.313 7.313 0 00-3.144 6.035c0 .295.052.574.086.86a4.694 4.694 0 00-1.15-.158C29.139 28.244 27 30.428 27 33.122z" fill="#12B370"/></svg>