<svg width="24" height="24" fill="none" xmlns="http://www.w3.org/2000/svg"><path d="M8.8 4H5.422c-.498 0-.747 0-.937.097a.889.889 0 00-.388.388C4 4.675 4 4.925 4 5.422V8.8c0 .498 0 .747.097.937a.889.889 0 00.388.388c.19.097.44.097.937.097H8.8c.498 0 .747 0 .937-.097a.888.888 0 00.388-.388c.097-.19.097-.44.097-.937V5.422c0-.498 0-.747-.097-.937a.889.889 0 00-.388-.388C9.547 4 9.297 4 8.8 4zm9.778 0H15.2c-.498 0-.747 0-.937.097a.889.889 0 00-.388.388c-.097.19-.097.44-.097.937V8.8c0 .498 0 .747.097.937a.889.889 0 00.388.388c.19.097.44.097.937.097h3.378c.498 0 .747 0 .937-.097a.889.889 0 00.388-.388C20 9.547 20 9.297 20 8.8V5.422c0-.498 0-.747-.097-.937a.889.889 0 00-.388-.388C19.325 4 19.075 4 18.578 4zm0 9.778H15.2c-.498 0-.747 0-.937.097a.889.889 0 00-.388.388c-.097.19-.097.44-.097.937v3.378c0 .498 0 .747.097.937a.889.889 0 00.388.388c.19.097.44.097.937.097h3.378c.498 0 .747 0 .937-.097a.889.889 0 00.388-.388c.097-.19.097-.44.097-.937V15.2c0-.498 0-.747-.097-.937a.889.889 0 00-.388-.388c-.19-.097-.44-.097-.937-.097zm-9.778 0H5.422c-.498 0-.747 0-.937.097a.889.889 0 00-.388.388C4 14.453 4 14.703 4 15.2v3.378c0 .498 0 .747.097.937a.889.889 0 00.388.388c.19.097.44.097.937.097H8.8c.498 0 .747 0 .937-.097a.889.889 0 00.388-.388c.097-.19.097-.44.097-.937V15.2c0-.498 0-.747-.097-.937a.889.889 0 00-.388-.388c-.19-.097-.44-.097-.937-.097z" fill="#fff"/><path d="M8.8 4H5.422c-.498 0-.747 0-.937.097a.889.889 0 00-.388.388C4 4.675 4 4.925 4 5.422V8.8c0 .498 0 .747.097.937a.889.889 0 00.388.388c.19.097.44.097.937.097H8.8c.498 0 .747 0 .937-.097a.888.888 0 00.388-.388c.097-.19.097-.44.097-.937V5.422c0-.498 0-.747-.097-.937a.889.889 0 00-.388-.388C9.547 4 9.297 4 8.8 4zm9.778 0H15.2c-.498 0-.747 0-.937.097a.889.889 0 00-.388.388c-.097.19-.097.44-.097.937V8.8c0 .498 0 .747.097.937a.889.889 0 00.388.388c.19.097.44.097.937.097h3.378c.498 0 .747 0 .937-.097a.889.889 0 00.388-.388C20 9.547 20 9.297 20 8.8V5.422c0-.498 0-.747-.097-.937a.889.889 0 00-.388-.388C19.325 4 19.075 4 18.578 4zm0 9.778H15.2c-.498 0-.747 0-.937.097a.889.889 0 00-.388.388c-.097.19-.097.44-.097.937v3.378c0 .498 0 .747.097.937a.889.889 0 00.388.388c.19.097.44.097.937.097h3.378c.498 0 .747 0 .937-.097a.889.889 0 00.388-.388c.097-.19.097-.44.097-.937V15.2c0-.498 0-.747-.097-.937a.889.889 0 00-.388-.388c-.19-.097-.44-.097-.937-.097zm-9.778 0H5.422c-.498 0-.747 0-.937.097a.889.889 0 00-.388.388C4 14.453 4 14.703 4 15.2v3.378c0 .498 0 .747.097.937a.889.889 0 00.388.388c.19.097.44.097.937.097H8.8c.498 0 .747 0 .937-.097a.889.889 0 00.388-.388c.097-.19.097-.44.097-.937V15.2c0-.498 0-.747-.097-.937a.889.889 0 00-.388-.388c-.19-.097-.44-.097-.937-.097z" stroke="#fff" stroke-linecap="round" stroke-linejoin="round"/></svg>