<svg width="20" height="20" fill="none" xmlns="http://www.w3.org/2000/svg"><path d="M14.894 14.05H7.15c-.896 0-1.344 0-1.704-.164a1.806 1.806 0 01-.772-.67c-.213-.333-.273-.775-.394-1.658L3.327 4.6h14.899c.3 0 .45 0 .556.061a.45.45 0 01.199.24c.04.114.012.26-.044.554l-1.198 6.254c-.16.833-.24 1.25-.455 1.562-.19.275-.454.492-.762.626-.348.153-.775.153-1.628.153zM7.335 19c.5 0 .905-.403.905-.9s-.405-.9-.905-.9-.905.403-.905.9.405.9.905.9zm7.241 0c.5 0 .905-.403.905-.9s-.405-.9-.905-.9-.905.403-.905.9.405.9.905.9z" fill="#D1D1D1"/><path d="M1 .3a.7.7 0 000 1.4V.3zm16.74 11.409l-.688-.132.687.132zm1.197-6.254l.688.131-.688-.131zM2.9 1.618l-.693.1.693-.1zm1.38 9.94l.694-.095-.694.095zM18.981 4.9l-.66.234.66-.234zm-.2-.239l.352-.605-.351.605zm-2.259 9.236l-.28-.64.28.64zm.762-.626l-.576-.399.576.399zm-11.839.615l-.29.636.29-.636zm-.772-.67l-.59.376.59-.377zM2.606 1.04l-.29.637.29-.637zm.192.166l-.588.38.588-.38zM1 1.7h1.182V.3H1v1.4zm6.149 13.05h7.745v-1.4H7.15v1.4zm11.278-2.91l1.198-6.254-1.375-.263-1.198 6.254 1.375.264zM2.206 1.719L2.634 4.7l1.386-.2-.428-2.981-1.386.199zm.428 2.977l.952 6.958 1.387-.19-.952-6.958-1.387.19zM18.226 3.9H3.327v1.4h14.899V3.9zm1.399 1.686c.025-.134.054-.28.067-.404a1.167 1.167 0 00-.052-.516l-1.319.468c-.03-.084-.018-.138-.022-.095-.002.02-.006.051-.015.101l-.034.183 1.375.263zm-1.4-.286a12.037 12.037 0 01.291.005c.045.004-.009.006-.085-.038l.702-1.211a1.17 1.17 0 00-.496-.146c-.125-.01-.274-.01-.411-.01v1.4zm1.415-.634a1.15 1.15 0 00-.507-.61l-.702 1.21a.249.249 0 01-.11-.132l1.32-.468zM14.894 14.75c.416 0 .767 0 1.055-.021.298-.022.579-.07.854-.19l-.561-1.283c-.074.032-.18.06-.396.077-.225.017-.515.017-.952.017v1.4zm2.158-3.173c-.082.427-.137.71-.195.926-.056.207-.104.305-.149.37l1.151.796a2.54 2.54 0 00.35-.8c.075-.28.14-.622.218-1.028l-1.375-.264zm-.249 2.962a2.508 2.508 0 001.056-.87l-1.15-.797a1.107 1.107 0 01-.467.384l.561 1.283zM7.15 13.35c-.459 0-.764 0-1-.018-.227-.018-.338-.049-.413-.083l-.582 1.273c.285.13.578.182.889.205.301.024.669.023 1.106.023v-1.4zm-3.563-1.697c.059.431.108.793.172 1.088.065.304.156.587.325.85l1.18-.753c-.044-.068-.09-.172-.137-.393-.05-.23-.091-.53-.153-.982l-1.387.19zm2.15 1.596a1.107 1.107 0 01-.473-.41l-1.18.753c.26.407.632.73 1.071.93l.582-1.273zM2.182 1.7a9.956 9.956 0 01.209.003c.025.002-.015.002-.075-.025l.58-1.275a1.158 1.158 0 00-.399-.096C2.397.3 2.283.3 2.182.3v1.4zm1.41-.181c-.014-.1-.03-.213-.052-.31a1.153 1.153 0 00-.153-.382l-1.177.76c-.036-.056-.042-.097-.036-.073l.012.069.02.135 1.386-.2zm-1.276.159a.248.248 0 01-.106-.091l1.177-.76a1.152 1.152 0 00-.492-.424l-.579 1.275zM7.54 18.1c0 .107-.088.2-.205.2v1.4c.883 0 1.605-.713 1.605-1.6h-1.4zm-.205.2a.203.203 0 01-.205-.2h-1.4c0 .887.723 1.6 1.605 1.6v-1.4zm-.205-.2c0-.107.088-.2.205-.2v-1.4c-.882 0-1.605.713-1.605 1.6h1.4zm.205-.2c.117 0 .205.093.205.2h1.4c0-.887-.722-1.6-1.605-1.6v1.4zm7.446.2c0 .107-.088.2-.205.2v1.4c.882 0 1.605-.713 1.605-1.6h-1.4zm-.205.2a.203.203 0 01-.205-.2h-1.4c0 .887.722 1.6 1.605 1.6v-1.4zm-.205-.2c0-.107.088-.2.205-.2v-1.4c-.883 0-1.605.713-1.605 1.6h1.4zm.205-.2c.117 0 .205.093.205.2h1.4c0-.887-.723-1.6-1.605-1.6v1.4z" fill="#D1D1D1"/></svg>