<svg width="44" height="40" fill="none" xmlns="http://www.w3.org/2000/svg"><path d="M7.072 28.585l1.833.99-1.833-.99zm.485-1.029l2.019.514-2.02-.514zm-.3-1.938l-1.975.665 1.974-.665zm.358 1.26l-2.077.164 2.077-.164zM5.302 37.342l-.214-2.072.214 2.072zm-1.825-.025l-1.085 1.779 1.085-1.779zm.188-2.425l-1.833-.99 1.833.99zM2.99 36.59l-2.058.323 2.058-.323zm14.687-.1l-.75 1.944.75-1.944zm-.686-.242l.468-2.03-.468 2.03zm-1.02-.007l.214 2.072-.214-2.072zm.632-.045l-.08 2.082.08-2.082zm1.306-22.132a2.083 2.083 0 103.93 1.383l-3.93-1.383zm11.068 2.253l-2.084-.003v.003h2.084zm-5.343 2.708a2.083 2.083 0 101.317 3.952l-1.317-3.952zm.72 6.143a2.083 2.083 0 100 4.166v-4.166zm.02 4.166a2.083 2.083 0 100-4.166v4.166zM24.04 39.75c10.93 0 19.792-8.861 19.792-19.792h-4.167c0 8.63-6.996 15.625-15.625 15.625v4.167zm-7.113-1.317a19.75 19.75 0 007.113 1.317v-4.167c-1.983 0-3.876-.368-5.616-1.038l-1.497 3.888zm-11.411.982l10.668-1.103-.428-4.145L5.088 35.27l.429 4.145zm-.278-11.82l-3.407 6.307 3.666 1.98 3.407-6.307-3.666-1.98zm-.99-7.637c0 2.209.363 4.337 1.033 6.325l3.948-1.33a15.605 15.605 0 01-.814-4.995H4.249zM24.041.167c-10.93 0-19.792 8.86-19.792 19.791h4.167c0-8.63 6.995-15.625 15.625-15.625V.167zm19.792 19.791C43.833 9.028 34.97.167 24.04.167v4.166c8.63 0 15.625 6.996 15.625 15.625h4.167zM8.905 29.575c.223-.412.528-.944.67-1.505l-4.037-1.028c.017-.066.031-.08-.017.018-.053.11-.133.26-.282.535l3.666 1.98zm-3.623-3.292c.118.35.187.557.232.71.046.156.03.139.024.05l4.153-.33c-.046-.583-.283-1.233-.46-1.76l-3.949 1.33zm4.294 1.787c.119-.468.154-.875.115-1.356l-4.153.328.002.03a.251.251 0 01.003-.048c0-.006.001-.01.002-.01l-.007.028 4.038 1.028zm-4.488 7.2c-.26.027-.463.048-.637.063-.175.015-.285.02-.355.022-.073 0-.052-.005.02.008.084.015.252.058.445.176l-2.17 3.557c.67.408 1.367.43 1.754.425.41-.005.904-.058 1.372-.106l-.429-4.145zm-3.256-1.368c-.224.413-.462.85-.623 1.227-.152.356-.399 1.009-.277 1.783l4.116-.645c.035.223.01.395-.008.478-.015.072-.029.09 0 .022.028-.065.075-.163.156-.32.08-.155.178-.335.302-.564l-3.666-1.98zm2.73 1.637c.26.159.439.425.486.728l-4.116.645a3.125 3.125 0 001.46 2.184l2.17-3.557zm13.864-.994c-.286-.11-.642-.253-.967-.328l-.936 4.06c-.047-.011-.056-.018.024.011l.38.145 1.498-3.888zm-2.24 3.767c.171-.018.261-.027.327-.032.057-.005.047-.002.01-.003l.16-4.164c-.33-.012-.668.028-.926.054l.428 4.145zm1.273-4.095a3.963 3.963 0 00-.776-.104l-.16 4.164h.016a.294.294 0 01-.031-.004l.015.004.936-4.06zm4.38-18.771a2.6 2.6 0 011.136-1.38l-2.111-3.591a6.767 6.767 0 00-2.955 3.588l3.93 1.383zm1.136-1.38a2.6 2.6 0 011.757-.32l.705-4.107a6.767 6.767 0 00-4.573.836l2.111 3.592zm1.757-.32a2.6 2.6 0 011.55.888l3.188-2.683a6.767 6.767 0 00-4.033-2.312l-.705 4.107zm1.55.888a2.6 2.6 0 01.611 1.679l4.167.006a6.768 6.768 0 00-1.59-4.368l-3.188 2.683zm.611 1.682c0 .455-.369 1.083-1.414 1.78a8.928 8.928 0 01-1.85.93h-.001l.002-.001a.033.033 0 01.003-.001l.66 1.976a333.592 333.592 0 00.661 1.976l.003-.001.007-.003a1.284 1.284 0 00.08-.027l.192-.071a13.075 13.075 0 002.555-1.311c1.296-.865 3.27-2.58 3.27-5.247h-4.168zm-2.54 13.017h.02v-4.166h-.02v4.166z" fill="#949494"/></svg>