<svg width="20" height="16" fill="none" xmlns="http://www.w3.org/2000/svg"><path fill-rule="evenodd" clip-rule="evenodd" d="M15.182 15.869c1.198.486 1.648-.533 1.648-.533L20 .574C19.975-.421 18.527.18 18.527.18L.78 6.636s-.85.278-.774.764c.075.486.749.717.749.717l4.468 1.388s1.348 4.096 1.623 4.883c.25.763.474.786.474.786.25.093.474-.069.474-.069l2.896-2.43 4.493 3.194zm.774-12.68s.624-.348.6 0c0 0 .099.046-.226.37-.3.277-7.364 6.155-8.312 6.941a.24.24 0 00-.125.209l-.275 2.175c-.05.231-.374.254-.449.046L5.996 9.366c-.05-.138 0-.3.15-.393l9.81-5.785z" fill="#12B370"/></svg>