<svg width="52" height="52" fill="none" xmlns="http://www.w3.org/2000/svg"><path d="M1.777 27.288l.757-.637-.757.637 1.44 1.711-.948 2.026a2 2 0 00.667 2.489l.564-.809-.564.809 1.834 1.28-.392 2.202a2 2 0 001.288 2.23l2.104.763.191 2.228a2 2 0 001.822 1.822l2.228.191.762 2.104a2 2 0 002.231 1.288l2.202-.392 1.28 1.834a2 2 0 002.489.667L23 48.782l1.711 1.44a2 2 0 002.576 0l1.711-1.44 2.026.949a2 2 0 002.489-.667l1.28-1.834 2.202.392a2 2 0 002.23-1.288l.763-2.104 2.228-.191a2 2 0 001.822-1.822l.191-2.228 2.104-.762a2 2 0 001.288-2.231l-.392-2.202 1.834-1.28a2 2 0 00.667-2.489L48.782 29l1.44-1.711a2 2 0 000-2.576l-1.44-1.711.949-2.026a2 2 0 00-.667-2.489l-1.834-1.28.392-2.202a2 2 0 00-1.288-2.23l-2.104-.763-.191-2.228a2 2 0 00-1.822-1.822L39.99 7.77l-.762-2.104a2 2 0 00-2.231-1.288l-2.202.392-1.28-1.834-.82.572.82-.572a2 2 0 00-2.489-.667L29 3.218l-1.711-1.44-.644.764.644-.765a2 2 0 00-2.576 0l.637.757-.637-.757-1.711 1.44-2.026-.948a2 2 0 00-2.489.667l.82.572-.82-.572-1.28 1.834-2.202-.392a2 2 0 00-2.23 1.288L12.01 7.77l-2.228.191A2 2 0 007.96 9.783l-.19 2.227-2.104.762a2 2 0 00-1.288 2.231l.392 2.202-1.834 1.28.572.82-.572-.82a2 2 0 00-.667 2.489L3.218 23l-1.44 1.711.764.644-.765-.644a2 2 0 000 2.576z" fill="#12B370" stroke="#fff" stroke-width="2" stroke-linejoin="round"/><path d="M12.764 30.555c-.053-.27-.108-.629-.167-1.077-.066-.448-.096-.684-.09-.708.017-.08.018-.314.003-.704a19.83 19.83 0 01-.015-.948c.006-.313-.07-.491-.23-.533a.7.7 0 00-.108-.027c-.024.002-.046.015-.068.04-.129.151-.198.27-.207.357-.02.236-.022.615-.005 1.137.01.218-.125.553-.403 1.005-.216.353-.389.593-.52.72-.321.3-.599.457-.833.476a.4.4 0 01-.165-.01.687.687 0 01-.163-.129c-.465-.432-.685-.997-.662-1.694a4.217 4.217 0 00-.044-.712c-.037-.27-.076-.428-.119-.471-.077-.088-.126-.053-.144.105-.01.087-.029.143-.058.168-.08.077-.104.321-.072.733-.013.233-.011.453.005.659.044.57.197 1.033.462 1.39.159.23.294.365.407.403.21.077.37.111.479.103l.105-.008a.95.95 0 00.368-.1c.49-.256.94-.8 1.354-1.63l.152-.316.22 2.21c0 .11.06.327.18.654l.1.379c.01.03.087.103.23.216.157.121.252.18.283.177.031-.002.05-.023.054-.062a.972.972 0 00.01-.33 3.52 3.52 0 00-.12-.623 15.163 15.163 0 01-.22-.85zm4.814-.377c-.052-.27-.108-.629-.166-1.077-.067-.448-.097-.684-.091-.708.022-.026.023-.26.003-.704l-.015-.948c.007-.313-.07-.491-.23-.533a.705.705 0 00-.108-.027.266.266 0 00-.067.04c-.114.049-.183.167-.207.357-.025.181-.027.56-.005 1.137.024.616.024 1.061-.001 1.337a3.228 3.228 0 01-.17.833 4.523 4.523 0 01-.416.842c-.186.327-.36.567-.52.72-.217.229-.408.349-.571.362a.401.401 0 01-.166-.01.69.69 0 01-.163-.129c-.279-.26-.5-.824-.661-1.694a5.416 5.416 0 01-.091-.708c-.012-.156-.008-.55.013-1.185a4.2 4.2 0 00-.044-.712c-.037-.27-.077-.428-.12-.471-.069-.08-.117-.046-.144.105-.002.078-.02.134-.057.168-.08.077-.104.321-.072.733.016.21.011.394-.016.552-.042.16-.04.535.006 1.125.046.582.105.992.179 1.229.129.45.278.798.446 1.043.14.184.275.318.407.402.124.076.283.11.479.103l.105-.008a.947.947 0 00.368-.1c.503-.281.955-.824 1.354-1.63l.152-.316c.034.138.058.242.071.31l.18.655.1.379c.003.023.079.095.23.216.158.121.253.18.284.178.03-.003.049-.024.054-.063a.97.97 0 00.016-.248l-.007-.081a3.52 3.52 0 00-.12-.624 15.12 15.12 0 01-.219-.85z" fill="#fff"/><path d="M36.526 22.827a.251.251 0 00.084-.047c.034-.03.042-.058.025-.082-.013-.048-.134-.098-.364-.149-.383-.09-1.032-.289-1.947-.596a41.215 41.215 0 00-1.706-.545 87.709 87.709 0 01-3.708-1.123 69.16 69.16 0 01-1.919-.66c.259-.147.433-.272.524-.373a.329.329 0 00.085-.223.157.157 0 00.008-.086c-.01-.043-.033-.067-.07-.072-.061-.024-.197.019-.409.13-.36.182-1.017.46-1.972.834a48.11 48.11 0 00-1.558.63 10.22 10.22 0 00-.015-.336l-.041-.685c-.246-.336-.499.039-.499.039l.002.729a25.9 25.9 0 00-.011.208l-.021.307c-.958.43-2.075.903-3.351 1.418-1.456.578-2.525.969-3.209 1.172-.158.044-.29.08-.397.111a1.626 1.626 0 01-.21.063c-.022.008-.958.285-.973.292 0 .01-.318.13-.9.298-1.778.526-2.837.881-3.178 1.066-.144.088-.21.161-.196.22a.34.34 0 00.127.08c.042.023.5-.088 1.375-.332 1.96-.526 4.1-1.146 4.17-1.153.21-.046.812-.245 1.808-.596a75.98 75.98 0 002.404-.861c.978-.387 1.801-.722 2.474-1.006-.048.661-.075.997-.082 1.005-.003 0 0 .748.008.756.012.011.009.042-.01.091-.022.146-.006.571.049 1.275.043.694.093 1.26.15 1.7.231 1.507.434 2.506.608 2.997.058.163.115.38.17.653.173.755.36 1.208.565 1.36a.44.44 0 00.244.071c.034.01.068.013.102.01.056-.004.095-.02.116-.045.053-.04.05-.136-.006-.287-.088-.257-.181-.725-.28-1.402a14.489 14.489 0 00-.216-1.244 30.312 30.312 0 01-.548-2.659c-.16-1.032-.236-1.788-.228-2.27l.014-.279a.577.577 0 01.002-.147 13.891 13.891 0 00-.019-.69c-.012-.01-.012-.221.002-.63.004-.194.006-.373.007-.542.469-.205.834-.374 1.095-.508.229-.117.534-.258.916-.42.275-.12.52-.233.737-.338l.48.181a72.8 72.8 0 002.229.819c2.045.677 3.436 1.1 4.171 1.27.246.056.558.142.936.258 1.064.31 1.763.453 2.097.43a.548.548 0 00.259-.087z" fill="#fff"/><path d="M28.964 29.133c-.02.251-.112.52-.278.807-.18.319-.446.515-.8.59a1.92 1.92 0 01-.348.062 1.487 1.487 0 01-.605-.07c-.282-.087-.549-.293-.801-.617-.21-.28-.36-.589-.449-.926a3.106 3.106 0 01-.053-.382 4.005 4.005 0 01-.01-.422c.033-.377.078-.658.134-.843.056-.184.17-.384.341-.6.186-.226.35-.38.493-.461.143-.074.37-.123.682-.147.132-.018.233-.03.303-.036.04.02.077.037.11.05.04.013.089.04.147.082.234.28.472.62.715 1.023.091.165.156.292.195.383.03.084.065.226.104.426.061.284.1.527.116.73.01.139.012.256.004.35zm-.455-2.954a2.327 2.327 0 00-.473-.338 3 3 0 00-.524-.229 1.117 1.117 0 00-.413-.026l-.07.006c-.14.01-.25.03-.325.06-.168.06-.25.11-.247.148.002.032-.035.054-.112.068-.123.033-.283.143-.48.33a2.41 2.41 0 00-.43.515c-.275.49-.381 1.132-.32 1.924.037.372.086.638.145.797.373.862.953 1.41 1.74 1.646.177.056.406.081.688.075l.21-.017a2.19 2.19 0 00.487-.085c.678-.248 1.07-.752 1.175-1.51a3.92 3.92 0 00-.012-.609l-.018-.233a4.183 4.183 0 00-.179-.924c-.232-.763-.513-1.296-.842-1.598zm4.886 2.018l-.003-.047-.001-.011c0 .015.002.034.004.058zm-3.066.193l-.004-.047v-.01l.004.058z" fill="#fff"/><path d="M34.115 29.606a10.556 10.556 0 00-.103-.718 30.385 30.385 0 01-.268-1.62 1.411 1.411 0 01-.026-.174 55.086 55.086 0 00-.17-1.896.515.515 0 01.007-.038c.006-.066-.005-.114-.032-.147a2.76 2.76 0 00-.007-.049c-.003-.039-.063-.053-.18-.044l-.035.002-.01.002a2.816 2.816 0 00-.588.01c-.352.02-.65.024-.893.011a6.353 6.353 0 00-.905 0l-.21.017c-.258.02-.424.045-.5.075a.424.424 0 00-.24.253.335.335 0 00-.044.18.206.206 0 00.03.09c.02.022.057.035.111.041.004.497.056 1.413.156 2.75.012.142.057.373.136.695.032.107.077.385.136.833.023.202.061.382.113.542.05.153.096.227.135.224.023-.002.053.027.09.087a.288.288 0 00.185.126c.04.013.076.018.107.015.047-.004.081-.018.103-.043a.236.236 0 00.035-.155 2.198 2.198 0 00-.1-.367 2.734 2.734 0 01-.098-.509 10.78 10.78 0 00-.104-.718 30.336 30.336 0 01-.268-1.62 1.411 1.411 0 01-.025-.174 62.135 62.135 0 00-.158-1.783c.097-.019.231-.033.403-.042a4.47 4.47 0 01.742.013c.427.044.699.066.816.064l.035-.002a7.03 7.03 0 00.627-.1c.006.504.057 1.41.155 2.722.012.14.057.372.136.694.032.107.078.384.136.833.024.201.061.382.113.542.051.152.096.227.135.224.024-.002.053.027.09.087a.288.288 0 00.185.126.29.29 0 00.108.015c.046-.004.08-.018.102-.043a.236.236 0 00.035-.155 2.211 2.211 0 00-.1-.368 2.743 2.743 0 01-.098-.508zm4.205-3.948c.01.132-.004.403-.043.813-.038.409-.064.684-.076.826-.07.607-.226 1.116-.468 1.526-.235.4-.548.66-.939.776-.26.075-.484.12-.671.135a1.11 1.11 0 01-.549-.25c-.185-.165-.285-.337-.299-.516-.008-.1 0-.246.025-.436.016-.189.042-.304.079-.346a.973.973 0 01.1-.219l.105-.313c.02-.04.063-.141.129-.303.057-.168.098-.293.123-.373l.245-.629a2.13 2.13 0 01.181-.389c.07-.115.148-.21.236-.288.167-.17.396-.297.688-.382.13-.041.253-.067.37-.076.124-.01.243 0 .355.03.12.03.214.082.282.154a.287.287 0 01.125.237c0 .008 0 .016.002.023zm1.022 3.601c-.124-.287-.225-.674-.302-1.16a6.681 6.681 0 01-.085-1.377 7.3 7.3 0 00-.014-.784c-.011-.241-.029-.369-.053-.383-.025-.013-.043-.09-.054-.23a.373.373 0 00-.14-.282 1.957 1.957 0 00-.378-.182 1.77 1.77 0 00-.833-.122 3.03 3.03 0 00-.51.087c-.63.174-1.143.668-1.542 1.48-.121.252-.266.611-.433 1.078-.176.459-.274.76-.294.902-.026.26-.031.499-.014.716.013.171.041.33.084.474.108.273.202.477.283.611.081.134.227.244.437.33.09.04.166.064.23.075.055.004.164-.001.328-.014.249-.02.468-.068.659-.145.446-.2.786-.417 1.018-.655.232-.236.45-.554.654-.954a.137.137 0 01.021-.036c.061-.122.093-.16.097-.113.002.03.026.185.072.463.067.362.203.645.407.847.196.204.354.266.473.186.037-.026.058-.055.064-.087l-.003-.035a2.634 2.634 0 00-.172-.69zm4.4-1.216a3 3 0 01-.067.334c-.082.257-.174.432-.277.526-.11.094-.316.165-.618.212-.054.012-.108.02-.163.025a1.653 1.653 0 01-.798-.137 2.535 2.535 0 01-.436-.306 1.627 1.627 0 01-.376-.451 2.904 2.904 0 01-.238-.486c-.077-.189-.119-.319-.124-.388a.206.206 0 00-.07-.147c-.025-.014-.04-.063-.047-.149a3.038 3.038 0 01.086-.85c.083-.343.194-.618.335-.824.042-.066.146-.187.312-.364.167-.17.285-.273.352-.31.136-.065.282-.111.436-.14l.07-.005a.546.546 0 01.321.046c.106.046.226.13.361.253.178.166.29.31.34.43.135.232.26.57.373 1.014.105.445.175.885.21 1.32.014.187.02.32.019.397zm.618-.034l-.027-.34a9.169 9.169 0 00-.148-.88c-.165-.8-.36-1.386-.585-1.759a2.472 2.472 0 00-.439-.505c-.202-.18-.368-.3-.498-.36a1.579 1.579 0 00-.536-.086c-.087-.001-.165 0-.235.006-.117.01-.213.029-.29.058-.053.02-.124.06-.213.122a.574.574 0 00-.175.167c-.015.009-.07.056-.165.142a1.872 1.872 0 00-.58.854c-.016.001-.037-.173-.065-.523a9.28 9.28 0 01-.034-.583.788.788 0 01-.15.035.239.239 0 00-.127.022.113.113 0 00-.075.1c-.018.165-.034.315-.047.449-.034.37-.04.948-.017 1.736.013.561.036 1.06.07 1.495.014.178.031.345.051.5.123 1.163.235 1.94.336 2.33.057.23.101.449.134.657.04.216.094.352.16.41.093.07.178.103.256.097a.325.325 0 00.225-.123c.048-.09.056-.231.026-.424a7.642 7.642 0 00-.147-.669 7.815 7.815 0 01-.205-1.12c-.064-.511-.106-.797-.126-.858-.02-.061-.027-.088-.018-.08.016.006.071.06.165.162.175.237.437.423.785.56.34.145.682.204 1.025.178a2.1 2.1 0 00.942-.285c.18-.092.33-.226.45-.399.128-.174.211-.36.25-.559.027-.145.035-.32.027-.527zM22.243 13.793a2.64 2.64 0 01.27-1.4c.076-.149.145-.235.213-.318.06-.075.118-.145.168-.247.07-.143.122-.287.162-.429l.013.025c.22.385.52.914.485 1.38-.03.42-.154.661-.297.94-.147.288-.314.614-.41 1.19-.087.527-.207 1.25.13 1.97.052.11.103.198.153.282.086.146.16.272.213.485.088.363.056.759-.094 1.176-.422-.447-.666-.913-.724-1.388-.036-.287.007-.475.06-.714.055-.238.116-.51.12-.948.004-.377.009-.947-.24-1.545a2.262 2.262 0 00-.226-.423.106.106 0 00.004-.036zm-2.846-3.825c.606.325 1.033.748 1.27 1.256.127.272.147.458.169.655.023.216.048.439.197.78.201.459.429.672.65.878.211.198.411.384.582.797.232.558.227 1.08.223 1.462a3.836 3.836 0 01-.114.902c-.056.249-.104.463-.065.788.065.526.332 1.038.794 1.523a.108.108 0 00.178-.032.107.107 0 00.03.018.109.109 0 00.139-.065c.168-.462.203-.902.103-1.31a1.822 1.822 0 00-.236-.544 2.988 2.988 0 01-.143-.264c-.309-.66-.2-1.316-.113-1.843a3.4 3.4 0 01.39-1.126c.147-.288.286-.56.32-1.024.038-.531-.28-1.092-.513-1.502a5.867 5.867 0 01-.132-.241 3.298 3.298 0 00-.143-1.506.108.108 0 00-.206.068c.143.43.322 1.274-.078 2.095-.04.08-.087.138-.142.206-.07.088-.152.188-.237.358-.121.24-.305.698-.305 1.26a5.089 5.089 0 00-.184-.178c-.214-.2-.416-.388-.6-.807a2.176 2.176 0 01-.18-.716 2.03 2.03 0 00-.187-.723c-.257-.552-.716-1.008-1.364-1.355a.109.109 0 00-.147.044.108.108 0 00.044.146zm3.068 19.298c-.055.005-.099.064-.13.174a2.165 2.165 0 01-.08.247 4.2 4.2 0 01-.13.298 2.177 2.177 0 01-.378.683 1.6 1.6 0 01-.193.193c-.487.377-1.071.542-1.578.216a1.945 1.945 0 01-.37-.237 2.213 2.213 0 01-.52-.61 1.482 1.482 0 01-.197-.782c0-.294.043-.625.125-.984.064-.307.166-.6.304-.873.069-.132.126-.23.171-.292.048-.065.145-.143.296-.238.218-.13.483-.21.787-.233l.064-.006c.278-.022.526.009.744.094.135.07.27.161.4.272.133.122.228.254.28.389.068.154.117.18.122.182.03.007.07.008.117.004l.059-.006a.22.22 0 00.049-.11.67.67 0 00.006-.18c-.004-.051-.041-.159-.197-.385a3.706 3.706 0 00-.367-.463 1.619 1.619 0 00-.852-.382 2.247 2.247 0 00-.411-.002 3.855 3.855 0 00-.488.072 2.022 2.022 0 00-.713.315c-.25.201-.468.472-.647.804a4.222 4.222 0 00-.374 1.122c-.029.215-.029.51 0 .877l.01.14c.021.266.058.487.109.654.069.2.172.421.304.654.269.445.682.74 1.229.878.239.057.479.077.712.058.132-.01.262-.032.387-.068.114-.046.22-.09.32-.135.362-.187.581-.442.776-.705a2.97 2.97 0 00.185-.37c.015-.044.03-.088.043-.132.051-.163.095-.328.148-.49.04-.12.168-.306.16-.431a.175.175 0 00-.058-.098c-.116-.1-.186-.117-.224-.114z" fill="#fff"/></svg>