<svg width="373" height="285" fill="none" xmlns="http://www.w3.org/2000/svg"><path d="M27.664 13.804c-2.006 5.898-2.704 12.903.003 18.663.31.656.735 1.322 1.197 1.977 2.71-.648 5.297-.82 7.884-.534a27.6 27.6 0 016.299 1.485 15.981 15.981 0 00-.592-1.967c-.959-2.581-2.17-5.186-3.273-7.806 1.356 2.113 3.251 4.166 4.405 6.346.717 1.362 1.216 2.797 1.556 4.272 3.585 1.578 6.858 3.748 10.027 6.02 1.145-5.917-1.024-13.483-3.497-18.264-2.583-4.993-6.834-9.193-10.766-13.587-2.41-2.691-4.408-6.302-5.481-9.37-.244-.698-1.15-.731-1.464-.055-1.948 4.225-4.802 8.417-6.298 12.82z" fill="#0F9960"/><path d="M73.936 55.046c-7.277-1.834-13.177-6.622-19.238-11.005-2.961-2.138-5.961-4.181-9.176-5.73a31.956 31.956 0 00-2.135-.937c-2.145-.853-4.406-1.466-6.82-1.734-2.265-.254-4.45-.099-6.566.334-3.375.694-6.58 2.114-9.68 3.795A52.516 52.516 0 005.466 51.764c-1.69 1.969-3.475 3.99-4.7 6.3-.267.511-.642 1.13-.595 1.733.057.789 1.193 1.068 1.556.327 2.537-5.256 7.706-9.392 13.006-11.794 6.093-2.763 12.327-2.028 18.438.526a80.171 80.171 0 014.825 2.23c.035.014.06.038.087.061.253.231.027.697-.343.574-2.108-.698-4.21-1.38-6.29-1.942-10.188-2.75-20.788 2.8-18.188 5.17.212.192.511.362.902.504 5.502 2.017 10.281 6.344 15.424 9.555 1.806 1.132 3.664 2.125 5.61 2.834 7.732 2.808 15.877 1.945 23.231-1.32 5.485-2.44 10.549-6.606 15.744-9.599.668-.38.703-1.197.228-1.63a.97.97 0 00-.466-.247zm206.606 154.461c3.485 7.079 9.134 13.978 16.716 16.712.866.309 1.842.526 2.843.698 1.846-3.006 4.009-5.477 6.582-7.538a34.939 34.939 0 016.97-4.312 20.174 20.174 0 00-2.291-1.231c-3.17-1.453-6.588-2.702-9.922-4.059 3.107.677 6.642.819 9.628 1.738 1.862.578 3.594 1.415 5.219 2.433 4.624-1.798 9.498-2.786 14.371-3.59-4.274-6.324-12.991-11.156-19.488-13.224-6.784-2.159-14.353-2.113-21.81-2.526-4.568-.251-9.59-1.697-13.299-3.483-.843-.406-1.685.376-1.36 1.262 2.039 5.527 3.237 11.838 5.841 17.12z" fill="#0F9960"/><path d="M358.914 205.003c-8.159 4.874-17.731 5.871-27.084 7.373-4.567.737-9.083 1.594-13.349 3.087-.924.323-1.847.681-2.751 1.072-2.685 1.157-5.258 2.632-7.66 4.554-2.256 1.802-4.074 3.897-5.581 6.18-2.401 3.644-3.999 7.785-5.271 12.068-2.324 7.777-3.175 15.966-2.56 24.044.25 3.276.462 6.685 1.433 9.849.219.698.438 1.589 1.019 2.086.758.656 2.025-.111 1.686-1.101-2.434-6.979-1.51-15.311 1.086-22.209 2.981-7.93 9.224-12.855 16.983-16.041 2.061-.848 4.171-1.602 6.318-2.322.044-.02.088-.022.132-.024.434-.02.649.599.207.821-2.512 1.263-5.006 2.533-7.372 3.893-11.586 6.661-16.108 21.125-11.659 20.918.363-.017.783-.133 1.26-.356 6.734-3.121 14.889-3.526 22.37-5.256 2.631-.603 5.184-1.378 7.561-2.486 9.44-4.409 15.961-12.477 19.623-21.987 2.728-7.096 3.531-15.362 5.503-22.694.258-.939-.442-1.702-1.256-1.665a1.24 1.24 0 00-.638.196z" fill="#0F9960"/></svg>