<svg width="196" height="57" fill="none" xmlns="http://www.w3.org/2000/svg"><path d="M9.411 47.986a43.29 43.29 0 01-.197-2.581c-.075-1.073-.103-1.638-.084-1.693.056-.185.103-.74.14-1.666.038-.888.085-1.637.141-2.248.075-.74-.075-1.175-.45-1.304a1.707 1.707 0 00-.252-.084c-.056 0-.112.028-.169.084-.337.333-.524.601-.562.805-.093.554-.168 1.452-.224 2.692-.019.518-.403 1.286-1.152 2.303-.58.796-1.04 1.333-1.377 1.61-.824.648-1.516.972-2.078.972-.188 0-.319-.018-.394-.056-.075-.037-.196-.148-.365-.333C1.358 45.377.937 44 1.124 42.352a9.926 9.926 0 00.028-1.694c-.037-.647-.103-1.026-.196-1.137-.17-.222-.291-.148-.365.222-.038.203-.095.333-.17.388-.205.167-.308.74-.308 1.721-.075.55-.112 1.07-.113 1.561-.002 1.356.28 2.483.843 3.38.337.573.637.915.9 1.026.486.222.86.334 1.123.334h.253c.337 0 .636-.056.899-.167 1.217-.518 2.397-1.72 3.539-3.608.206-.352.347-.592.421-.722l.113 5.274c-.019.259.084.787.309 1.582l.168.916c.019.074.187.26.506.555.355.315.571.472.646.472.075 0 .122-.046.14-.139.038-.093.066-.287.085-.583v-.194c0-.407-.056-.907-.169-1.5a33.966 33.966 0 01-.365-2.053zm11.574 0a42.731 42.731 0 01-.197-2.581c-.075-1.073-.103-1.638-.084-1.693.056-.056.103-.611.14-1.666.057-.888.103-1.637.141-2.248.074-.74-.075-1.175-.45-1.304a1.701 1.701 0 00-.252-.084.653.653 0 00-.17.084c-.28.093-.467.36-.56.805-.095.425-.17 1.323-.226 2.692-.056 1.462-.14 2.517-.252 3.164a7.603 7.603 0 01-.562 1.943c-.244.555-.628 1.193-1.152 1.915-.506.74-.965 1.276-1.376 1.61-.562.5-1.04.75-1.433.75-.188 0-.319-.019-.393-.056-.076-.037-.197-.148-.366-.333-.618-.666-1.039-2.045-1.264-4.136-.075-.777-.103-1.341-.084-1.693 0-.37.084-1.304.253-2.803a9.886 9.886 0 00.028-1.694c-.038-.647-.103-1.026-.197-1.137-.15-.204-.271-.13-.365.222-.019.185-.075.314-.168.388-.207.167-.31.74-.31 1.721 0 .5-.046.934-.14 1.305-.131.37-.196 1.258-.196 2.664 0 1.388.065 2.369.196 2.942.225 1.092.515 1.943.871 2.554.3.462.6.805.899 1.027.28.203.655.314 1.123.333h.254c.337 0 .636-.056.898-.167 1.255-.573 2.434-1.776 3.54-3.608.206-.351.346-.592.421-.722.056.333.094.583.113.75l.309 1.582.168.916c0 .055.169.24.506.555.355.315.57.472.646.472.075 0 .121-.046.14-.139.038-.093.066-.287.085-.583v-.194c0-.407-.057-.907-.169-1.5a33.698 33.698 0 01-.365-2.053z" fill="#3B3B3B"/><path d="M67.632 34.097a.607.607 0 00.21-.096c.087-.066.111-.13.074-.19-.021-.116-.302-.256-.84-.42-.898-.285-2.413-.876-4.541-1.772-1.713-.726-3.04-1.262-3.975-1.608-2.484-.889-5.367-2.004-8.648-3.346a163.864 163.864 0 01-4.462-1.917c.645-.302 1.086-.565 1.32-.788a.778.778 0 00.247-.513.37.37 0 00.035-.202c-.015-.103-.068-.163-.156-.183-.14-.07-.474.008-1 .233-.893.364-2.516.9-4.868 1.607-1.61.48-2.888.881-3.84 1.202.014-.29.023-.558.027-.797l.03-1.63c-.524-.84-1.199 0-1.199 0l-.131 1.727a59.42 59.42 0 00-.066.491l-.109.722a226.56 226.56 0 01-8.272 2.736c-3.585 1.098-6.213 1.825-7.885 2.182a77.09 77.09 0 00-.969.188 3.71 3.71 0 01-.513.11c-.056.014-2.342.496-2.38.511-.001.025-.785.249-2.207.54-4.346.914-6.943 1.559-7.793 1.933-.361.18-.53.343-.51.487a.824.824 0 00.29.211c.096.06 1.211-.117 3.347-.533 4.782-.88 10.01-1.953 10.181-1.956.507-.07 1.984-.428 4.43-1.075a183.432 183.432 0 005.904-1.593c2.409-.736 4.44-1.375 6.101-1.922-.239 1.556-.368 2.345-.386 2.364-.006 0-.141 1.772-.122 1.792.027.028.014.1-.04.213-.081.341-.122 1.35-.122 3.028-.027 1.65-.014 3 .04 4.052.27 3.611.569 6.014.893 7.209.108.398.203.924.284 1.578.27 1.82.635 2.928 1.095 3.326.135.113.325.185.568.213a.744.744 0 00.243.043c.135 0 .23-.029.284-.085.135-.085.149-.313.04-.682-.161-.626-.297-1.75-.405-3.37-.08-1.307-.176-2.303-.284-2.986-.324-1.791-.595-3.924-.81-6.398-.19-2.473-.231-4.279-.123-5.416.038-.263.066-.48.087-.658-.018-.11.03-.344.031-.35.003-.038.004-.073.004-.101a32.51 32.51 0 00.081-1.535c-.027-.028.014-.526.122-1.493.046-.456.085-.88.12-1.28a48.954 48.954 0 002.71-1 34.517 34.517 0 012.269-.825 55.931 55.931 0 001.822-.662c.34.159.71.33 1.112.516a169.84 169.84 0 005.174 2.353c4.76 1.981 8.004 3.24 9.73 3.78.575.18 1.304.44 2.187.784 2.485.932 4.127 1.4 4.929 1.407.23 0 .442-.053.635-.156z" fill="#3B3B3B"/><path d="M48.382 47.623c-.094.592-.365 1.212-.815 1.86-.487.721-1.161 1.138-2.022 1.249a4.64 4.64 0 01-.843.083 3.59 3.59 0 01-1.433-.278c-.656-.259-1.255-.795-1.798-1.61a6.306 6.306 0 01-.899-2.276 7.242 7.242 0 01-.056-.915c0-.315.019-.648.056-1 .15-.888.31-1.544.478-1.97.169-.426.478-.879.927-1.36.487-.5.908-.833 1.264-1 .356-.147.908-.221 1.657-.221.318-.019.562-.028.73-.028.094.055.179.102.254.138.093.038.206.112.337.222.505.704 1.011 1.555 1.516 2.554.187.407.319.722.394.944.056.203.112.546.168 1.027.094.684.14 1.267.14 1.748 0 .334-.018.611-.055.833zm-.534-7.078c-.243-.277-.6-.573-1.067-.888-.469-.296-.871-.509-1.208-.638-.225-.093-.553-.14-.984-.14h-.168c-.337 0-.6.029-.787.084-.412.111-.618.213-.618.306 0 .074-.093.12-.28.138-.3.056-.703.287-1.208.694-.506.407-.881.787-1.124 1.138-.75 1.11-1.124 2.61-1.124 4.497.019.888.084 1.526.197 1.915.73 2.11 2.013 3.515 3.848 4.219.412.166.956.268 1.63.305h.505c.45 0 .843-.037 1.18-.111 1.667-.462 2.697-1.582 3.09-3.359.056-.333.085-.813.085-1.443v-.555c-.02-.906-.104-1.647-.253-2.22-.413-1.85-.984-3.165-1.714-3.942zm11.297 5.685v-.138.139zm-7.36-.11v-.139.139zm8.816 3.58a24.942 24.942 0 00-.112-1.72c-.206-1.999-.32-3.294-.337-3.886a3.293 3.293 0 01-.029-.417c0-2.125-.017-3.63-.053-4.52a.926.926 0 01.026-.087c.026-.155.008-.273-.049-.355a7.044 7.044 0 00-.008-.117c0-.092-.14-.139-.421-.139h-.084l-.026.001c-.33-.067-.8-.095-1.407-.084a20.798 20.798 0 01-2.135-.139c-.543-.092-1.264-.148-2.163-.166h-.506c-.618 0-1.02.027-1.208.083-.28.093-.487.277-.618.555a.788.788 0 00-.14.416c0 .075.018.149.056.222.04.054.127.093.256.117-.083 1.176-.13 3.354-.143 6.542.003.336.068.891.196 1.668.056.26.113.926.169 1.999.018.481.074.915.168 1.304.093.37.187.555.28.555.057 0 .123.074.198.222a.69.69 0 00.421.334.692.692 0 00.253.055c.112 0 .197-.028.253-.083a.556.556 0 00.112-.361c0-.13-.056-.426-.168-.889a6.446 6.446 0 01-.14-1.22 25.221 25.221 0 00-.113-1.722c-.206-1.998-.319-3.293-.337-3.885a3.278 3.278 0 01-.028-.416c0-1.925-.015-3.34-.044-4.25.236-.027.558-.035.97-.025.712.019 1.302.074 1.77.166 1.012.186 1.658.288 1.939.306h.084c.277 0 .784-.04 1.515-.118-.08 1.191-.125 3.348-.138 6.471.003.336.068.891.196 1.668.056.26.112.926.169 1.999.018.481.074.916.168 1.304.094.37.187.555.281.555.056 0 .121.074.197.222a.688.688 0 00.42.333.688.688 0 00.254.056c.112 0 .197-.028.253-.084a.556.556 0 00.112-.36c0-.13-.056-.425-.168-.888-.076-.315-.122-.722-.14-1.222zm10.787-8.567c0 .314-.084.953-.253 1.915-.168.962-.28 1.61-.337 1.942-.28 1.425-.75 2.6-1.404 3.526-.637.906-1.433 1.461-2.388 1.665-.637.13-1.18.194-1.63.194-.543-.148-.964-.379-1.263-.694-.413-.425-.618-.85-.618-1.277 0-.24.046-.583.14-1.027.075-.444.159-.712.253-.805.056-.148.15-.314.28-.5.075-.166.178-.406.31-.72.056-.093.177-.324.365-.695.168-.388.29-.675.365-.86l.702-1.443c.15-.333.319-.63.506-.889a2.89 2.89 0 01.618-.638c.43-.37 1.002-.629 1.713-.777.319-.074.618-.111.9-.111.299 0 .58.046.842.139.281.092.496.231.646.416.187.166.272.36.253.583v.056zm1.77 8.715c-.244-.703-.412-1.638-.506-2.803a15.736 15.736 0 01.056-3.276c.075-.684.113-1.304.113-1.86.018-.573 0-.878-.056-.916-.057-.036-.085-.221-.085-.555 0-.295-.094-.527-.28-.693-.188-.148-.478-.315-.872-.5-.58-.296-1.235-.444-1.966-.444a7.31 7.31 0 00-1.236.111c-1.536.296-2.856 1.37-3.96 3.22-.338.574-.75 1.397-1.237 2.47-.506 1.055-.796 1.748-.87 2.082a9.43 9.43 0 00-.17 1.693c0 .407.038.786.113 1.138.206.666.393 1.165.562 1.498.169.334.496.62.983.861.206.11.384.185.534.222.13.019.393.028.786.028a5.3 5.3 0 001.602-.223c1.104-.388 1.957-.841 2.556-1.36.6-.517 1.18-1.23 1.742-2.137a.32.32 0 01.056-.083c.169-.278.253-.36.253-.25 0 .075.028.445.084 1.11.093.87.365 1.564.814 2.082.431.519.796.694 1.096.528.094-.056.15-.12.169-.195v-.083a6.203 6.203 0 00-.28-1.665zm10.739-2.063a7.018 7.018 0 01-.225.777c-.243.593-.496.99-.758 1.194-.281.204-.787.333-1.517.389a2.829 2.829 0 01-.393.027 3.992 3.992 0 01-1.883-.472 6.072 6.072 0 01-.983-.805 3.866 3.866 0 01-.814-1.138 6.876 6.876 0 01-.478-1.193c-.15-.462-.225-.777-.225-.944a.486.486 0 00-.14-.36c-.056-.037-.084-.157-.084-.361 0-.167.018-.389.056-.666.093-.592.197-1.036.309-1.333.262-.795.58-1.425.955-1.887.112-.148.384-.416.815-.805.43-.37.73-.592.898-.666a4.07 4.07 0 011.068-.25h.168c.281-.018.534.037.76.166.242.13.514.352.814.666.393.427.636.787.73 1.083.281.574.515 1.397.702 2.47a20.34 20.34 0 01.253 3.165c0 .444-.01.759-.028.943zm1.482.034v-.809a21.62 21.62 0 00-.19-2.111c-.244-1.925-.6-3.35-1.067-4.275-.188-.37-.506-.795-.955-1.277-.45-.462-.825-.777-1.124-.943-.3-.148-.721-.25-1.264-.306a6.486 6.486 0 00-.562-.027c-.28 0-.515.027-.702.083a2.51 2.51 0 00-.534.25c-.225.13-.375.25-.45.36-.037.02-.178.121-.42.306-.6.407-1.087.98-1.462 1.72a3.018 3.018 0 01-.084.195c-.038 0-.056-.416-.056-1.25 0-.683.01-1.146.028-1.387-.169.038-.29.056-.365.056a.578.578 0 00-.31.027.268.268 0 00-.196.223c-.075.388-.14.74-.197 1.054-.15.87-.271 2.24-.365 4.108a63.939 63.939 0 00-.112 3.553c0 .426.01.823.028 1.193.075 2.776.197 4.636.365 5.58.094.554.16 1.082.197 1.582.056.517.159.85.309.998.206.185.403.278.59.278a.783.783 0 00.562-.25c.13-.204.178-.536.14-.999-.038-.444-.112-.98-.225-1.61-.13-.629-.224-1.526-.28-2.692-.056-1.221-.103-1.906-.141-2.054-.038-.148-.047-.213-.028-.194.037.018.159.157.365.416.374.593.964 1.083 1.77 1.471.786.407 1.591.61 2.416.61.88 0 1.647-.166 2.303-.499.45-.184.833-.472 1.152-.86.337-.389.57-.814.702-1.277a5.72 5.72 0 00.162-1.243zM35.195 10.057c-.036-1.546.623-2.797.908-3.263.208-.34.391-.531.568-.716.159-.165.308-.322.447-.555a6.05 6.05 0 00.467-.984l.028.06c.451.955 1.068 2.261.9 3.357-.15.99-.492 1.539-.886 2.173-.406.654-.866 1.394-1.202 2.742-.307 1.232-.728 2.919-.058 4.686a7.6 7.6 0 00.313.698c.178.362.332.674.416 1.188.144.875-.006 1.806-.444 2.767-.924-1.136-1.42-2.286-1.47-3.42-.03-.687.106-1.125.28-1.68.173-.555.37-1.184.462-2.222.079-.892.199-2.24-.282-3.704a5.347 5.347 0 00-.462-1.043.252.252 0 00.015-.084zM29.11.473c1.388.881 2.33 1.961 2.8 3.209.252.666.266 1.111.281 1.582.016.515.033 1.048.325 1.881.395 1.126.9 1.672 1.388 2.2.469.508.912.988 1.244 1.998.448 1.364.338 2.598.258 3.5-.087.984-.275 1.585-.441 2.116-.18.579-.336 1.078-.302 1.854.056 1.256.597 2.519 1.61 3.752a.26.26 0 00.432-.042.26.26 0 00.068.048.26.26 0 00.344-.128c.488-1.062.654-2.099.492-3.082-.096-.589-.274-.95-.462-1.33a7.081 7.081 0 01-.293-.654c-.614-1.618-.231-3.152.076-4.384.316-1.27.735-1.943 1.14-2.595.406-.654.79-1.271.957-2.365.192-1.25-.464-2.637-.943-3.65a14.048 14.048 0 01-.27-.596c.341-1.443.14-2.79-.06-3.592a.26.26 0 00-.505.123c.26 1.045.531 3.076-.58 4.945a2.488 2.488 0 01-.375.462c-.187.195-.399.416-.636.803a6.758 6.758 0 00-.964 2.929 12.2 12.2 0 00-.406-.458c-.474-.512-.921-.996-1.28-2.022-.267-.76-.282-1.252-.297-1.729-.016-.491-.032-1-.313-1.746-.511-1.354-1.523-2.518-3.006-3.461a.263.263 0 00-.36.077.255.255 0 00.078.355zm3.72 46.261c-.133 0-.25.132-.343.387a5.113 5.113 0 01-.239.571 9.91 9.91 0 01-.366.682c-.24.54-.575 1.09-1.03 1.547a3.843 3.843 0 01-.497.42c-1.236.803-2.662 1.084-3.812.219a4.68 4.68 0 01-.427-.284 5.326 5.326 0 01-.415-.345c-.517-.511-.897-1.032-1.125-1.54-.274-.541-.384-1.177-.326-1.889.058-.695.22-1.473.484-2.307.209-.715.508-1.39.889-2.011.19-.3.345-.521.464-.658.127-.147.372-.313.752-.51.545-.27 1.193-.406 1.922-.406l.154-.002c.669 0 1.257.118 1.762.36.31.19.612.432.904.72.296.312.497.642.596.971.134.377.245.449.257.455.072.02.166.031.28.031.044 0 .091-.002.142-.005a.518.518 0 00.136-.25c.033-.114.05-.258.05-.427 0-.12-.07-.381-.4-.947a8.771 8.771 0 00-.79-1.163c-.519-.53-1.182-.888-1.965-1.064a5.433 5.433 0 00-.98-.08c-.366 0-.766.027-1.18.08-.725.126-1.32.333-1.764.613-.634.43-1.205 1.03-1.694 1.783a9.98 9.98 0 00-1.104 2.587c-.11.506-.165 1.204-.165 2.076v.334c0 .634.046 1.164.135 1.57a9.35 9.35 0 00.606 1.606c.558 1.102 1.49 1.878 2.77 2.306a5.57 5.57 0 001.693.27c.315 0 .632-.028.936-.091.28-.088.543-.173.789-.26.901-.376 1.472-.94 1.988-1.526a6.96 6.96 0 00.51-.842 8.1 8.1 0 00.129-.303c.152-.376.286-.759.444-1.132.118-.28.46-.693.465-.992a.416.416 0 00-.122-.243c-.26-.257-.423-.31-.514-.31z" fill="#3B3B3B"/><path d="M139.679 47.65l-2.644-8.628h-.068c.095 1.756.143 2.926.143 3.513v5.115h-2.081V36.653h3.17l2.599 8.41h.045l2.757-8.41h3.17V47.65h-2.171v-5.205c0-.246.003-.53.008-.85.01-.321.045-1.174.105-2.558h-.068l-2.832 8.613h-2.133zm16.585 0l-.796-2.617h-4.003l-.797 2.617h-2.509l3.876-11.042h2.847l3.891 11.042h-2.509zm-1.352-4.573c-.736-2.372-1.151-3.714-1.247-4.025a12.69 12.69 0 01-.195-.737c-.165.642-.638 2.23-1.42 4.762h2.862zm7.579-1.249h.767c.716 0 1.252-.14 1.607-.421.356-.286.533-.7.533-1.241 0-.547-.15-.95-.45-1.211-.296-.261-.761-.392-1.397-.392h-1.06v3.265zm5.259-1.745c0 1.183-.371 2.089-1.112 2.715-.736.627-1.785.94-3.147.94h-1v3.912h-2.328V36.653h3.508c1.332 0 2.343.288 3.034.865.697.572 1.045 1.427 1.045 2.565zm11.027 7.567h-2.645l-3.981-5.574v5.574h-2.328V36.653h2.328v5.325l3.936-5.325h2.479l-4.003 5.28 4.214 5.717zm7.706 0h-6.324V36.653h6.324v1.91h-3.996v2.415h3.718v1.91h-3.718v2.837h3.996v1.925zm6.535 0h-2.328v-9.056h-2.982v-1.941H196v1.94h-2.982v9.057z" fill="#000"/><ellipse cx="111.665" cy="41.867" rx="11.866" ry="11.882" fill="#12B270"/><path fill-rule="evenodd" clip-rule="evenodd" d="M104.839 36.572a.77.77 0 01.769-.77h1.346c.367 0 .682.259.754.619l.146.729h9.869a.769.769 0 01.688 1.114l-2.692 5.392a.77.77 0 01-.688.426h-6.412l-1.154 1.155h7.566a2.12 2.12 0 010 4.236 2.115 2.115 0 01-2.116-2.117c0-.198.028-.392.08-.578h-5.762c-1.285 0-1.928-1.556-1.02-2.466l1.252-1.253-.993-4.973-.006-.03-.142-.714h-.716a.77.77 0 01-.769-.77zm3.323 2.118l.769 3.851h5.624l1.923-3.851h-8.316zm6.869 8.088a.576.576 0 00-.408.986.576.576 0 10.408-.986z" fill="#fff"/></svg>