<svg width="100" height="68" fill="none" xmlns="http://www.w3.org/2000/svg"><path d="M11.023 57.246a51.51 51.51 0 01-.23-3.079c-.088-1.28-.121-1.953-.1-2.02.066-.22.12-.882.165-1.987.044-1.06.099-1.953.165-2.681.087-.883-.088-1.402-.527-1.557a1.975 1.975 0 00-.296-.1c-.066 0-.131.034-.197.1-.395.398-.614.718-.658.96-.11.663-.198 1.733-.264 3.212-.021.618-.471 1.535-1.348 2.749-.68.949-1.218 1.589-1.613 1.92-.965.773-1.776 1.159-2.434 1.159-.22 0-.374-.022-.461-.066-.088-.044-.23-.177-.428-.398-1.206-1.324-1.7-2.968-1.48-4.933a12.06 12.06 0 00.033-2.02c-.045-.773-.121-1.225-.23-1.358-.198-.264-.341-.176-.428.265-.045.243-.11.398-.198.464-.241.199-.362.883-.362 2.053A14.279 14.279 0 000 51.79c-.002 1.618.327 2.962.988 4.032.394.684.745 1.092 1.053 1.225.57.265 1.008.397 1.316.397h.296a2.64 2.64 0 001.053-.199c1.425-.617 2.807-2.053 4.145-4.304l.494-.86.131 6.29c-.022.31.1.939.362 1.888l.198 1.092c.021.089.219.31.592.662.416.376.669.564.757.564.087 0 .142-.055.164-.166.044-.11.077-.342.099-.695v-.232c0-.486-.066-1.081-.197-1.788a41.17 41.17 0 01-.428-2.45zm13.555 0a52.368 52.368 0 01-.23-3.079c-.088-1.28-.121-1.953-.099-2.02.066-.066.12-.728.165-1.987.066-1.06.12-1.953.164-2.681.088-.883-.088-1.402-.526-1.557a1.966 1.966 0 00-.296-.1.762.762 0 00-.198.1c-.329.111-.548.43-.658.96-.11.509-.197 1.58-.263 3.212-.066 1.745-.164 3.003-.296 3.775a9.21 9.21 0 01-.658 2.318c-.285.662-.735 1.424-1.349 2.285-.592.883-1.13 1.523-1.612 1.92-.658.596-1.218.894-1.678.894-.22 0-.373-.022-.46-.066-.09-.044-.231-.176-.429-.397-.724-.795-1.217-2.44-1.48-4.934-.088-.927-.121-1.6-.099-2.02 0-.441.099-1.556.296-3.344.066-.574.077-1.247.033-2.02-.044-.773-.12-1.225-.23-1.358-.176-.242-.318-.154-.428.265-.022.221-.088.376-.197.464-.242.199-.362.883-.362 2.053a6.49 6.49 0 01-.165 1.556c-.154.442-.23 1.502-.23 3.179 0 1.655.076 2.826.23 3.51.263 1.303.603 2.318 1.02 3.046.35.552.702.96 1.053 1.225.329.243.768.376 1.316.397h.296c.395 0 .746-.066 1.053-.198 1.47-.684 2.851-2.12 4.146-4.305l.493-.86c.066.397.11.695.132.893l.362 1.888.197 1.092c0 .067.197.287.592.662.417.376.67.564.757.564.088 0 .142-.055.165-.166.043-.11.076-.342.098-.695v-.232c0-.486-.066-1.081-.197-1.788a40.928 40.928 0 01-.428-2.45z" fill="#2E2E2E"/><path d="M79.213 40.677a.705.705 0 00.247-.114c.101-.08.13-.155.086-.227-.025-.139-.354-.306-.985-.5-1.051-.341-2.825-1.046-5.318-2.115-2.006-.866-3.56-1.505-4.655-1.918-2.91-1.06-6.286-2.391-10.13-3.992a190.491 190.491 0 01-5.225-2.287c.756-.36 1.272-.674 1.546-.94a.935.935 0 00.29-.613.447.447 0 00.04-.24c-.018-.122-.08-.195-.183-.218-.164-.083-.554.01-1.17.277-1.047.435-2.948 1.075-5.702 1.918a135.12 135.12 0 00-4.498 1.434c.016-.346.027-.666.03-.952l.037-1.944c-.614-1.001-1.405 0-1.405 0l-.153 2.06-.078.587-.127.86a261.587 261.587 0 01-9.688 3.265c-4.2 1.31-7.278 2.177-9.236 2.602-.453.087-.829.162-1.135.225a4.524 4.524 0 01-.6.132c-.067.016-2.744.59-2.788.61-.002.028-.92.296-2.585.642-5.09 1.092-8.133 1.86-9.128 2.307-.423.215-.621.41-.596.58.063.086.176.17.34.253.111.072 1.417-.14 3.919-.636 5.6-1.05 11.724-2.33 11.924-2.333.594-.084 2.323-.511 5.188-1.283 2.821-.734 5.126-1.368 6.915-1.901 2.822-.877 5.2-1.64 7.147-2.293-.28 1.857-.431 2.798-.453 2.821-.007 0-.165 2.113-.142 2.137.031.035.016.12-.047.255-.096.407-.143 1.611-.143 3.612-.032 1.968-.016 3.58.047 4.834.317 4.308.666 7.175 1.046 8.6.126.475.237 1.102.332 1.882.316 2.171.744 3.494 1.283 3.969.158.135.38.22.665.254.095.033.19.051.285.051.158 0 .269-.034.333-.102.158-.101.173-.373.047-.814-.19-.745-.349-2.086-.475-4.02-.095-1.56-.206-2.747-.333-3.561-.38-2.138-.697-4.682-.95-7.633-.222-2.95-.27-5.105-.142-6.462.044-.313.077-.573.1-.785-.02-.13.036-.41.038-.416.003-.046.004-.089.004-.122.014-.003.109-1.822.095-1.831-.032-.034.016-.628.143-1.781.053-.544.1-1.05.14-1.528 1.356-.474 2.415-.872 3.174-1.192.666-.281 1.552-.61 2.658-.984.794-.28 1.505-.543 2.135-.79.398.19.83.394 1.302.616a197.204 197.204 0 006.06 2.806c5.576 2.364 9.374 3.867 11.395 4.51.674.215 1.528.526 2.562.935 2.91 1.113 4.834 1.672 5.773 1.679.27 0 .519-.063.744-.186z" fill="#2E2E2E"/><path d="M56.667 56.813c-.11.707-.428 1.446-.954 2.219-.571.86-1.36 1.357-2.369 1.49-.352.066-.68.1-.987.1a4.14 4.14 0 01-1.678-.332c-.769-.309-1.47-.949-2.106-1.92a7.604 7.604 0 01-1.053-2.716 8.808 8.808 0 01-.065-1.092c0-.376.021-.773.065-1.193.176-1.06.362-1.843.56-2.35.197-.508.559-1.049 1.085-1.623.57-.596 1.064-.993 1.48-1.192.417-.176 1.064-.265 1.942-.265.372-.022.658-.033.855-.033.11.066.209.122.297.166.109.044.24.132.395.264.592.84 1.184 1.855 1.776 3.047.219.486.373.86.46 1.126.067.243.132.65.198 1.225.11.817.165 1.512.165 2.085 0 .398-.023.73-.066.994zm-.625-8.444c-.285-.33-.703-.683-1.25-1.06-.55-.352-1.02-.606-1.415-.76-.263-.11-.647-.166-1.152-.166h-.197c-.395 0-.703.033-.922.1-.482.132-.723.253-.723.364 0 .088-.11.143-.33.165-.35.066-.822.342-1.414.828-.592.485-1.032.938-1.316 1.357-.878 1.325-1.316 3.113-1.316 5.365.021 1.06.099 1.82.23 2.284.855 2.517 2.358 4.195 4.508 5.033.482.2 1.118.32 1.908.364h.592a6.35 6.35 0 001.382-.132c1.952-.551 3.158-1.887 3.62-4.006.065-.398.098-.971.098-1.722v-.663c-.022-1.08-.12-1.964-.296-2.648-.483-2.208-1.152-3.775-2.007-4.703zm13.231 6.783l.001-.135v-.03.165zm-8.621-.132v-.166.166z" fill="#2E2E2E"/><path d="M70.979 59.291a30.377 30.377 0 00-.132-2.052c-.242-2.385-.373-3.93-.395-4.636a3.988 3.988 0 01-.033-.497c0-2.535-.02-4.33-.063-5.392.01-.038.02-.075.03-.104.03-.186.01-.325-.056-.424l-.01-.14c0-.11-.164-.165-.493-.165h-.099l-.03.001c-.387-.08-.936-.114-1.647-.1a23.949 23.949 0 01-2.501-.166c-.637-.11-1.48-.176-2.533-.199h-.593c-.724 0-1.196.033-1.415.1-.329.11-.57.331-.724.662a.952.952 0 00-.164.497c0 .088.021.177.066.265.047.064.149.11.3.14-.097 1.402-.153 4-.168 7.803.003.4.08 1.063.23 1.99.065.31.131 1.104.197 2.384a8.11 8.11 0 00.197 1.557c.11.442.22.662.33.662.066 0 .142.088.23.265a.81.81 0 00.494.397.782.782 0 00.295.066c.132 0 .23-.033.297-.099a.671.671 0 00.131-.43c0-.154-.066-.508-.197-1.06-.088-.375-.143-.86-.165-1.457a30.666 30.666 0 00-.131-2.053c-.242-2.384-.373-3.929-.395-4.636a3.99 3.99 0 01-.033-.496c0-2.296-.017-3.984-.051-5.07a8.55 8.55 0 011.137-.03c.833.023 1.524.089 2.073.2 1.184.22 1.94.342 2.27.363h.099c.323 0 .918-.047 1.774-.14-.093 1.421-.147 3.993-.162 7.72.004.4.08 1.063.23 1.99.066.309.132 1.104.197 2.384a8.09 8.09 0 00.198 1.556c.11.442.219.662.329.662.066 0 .142.089.23.265a.81.81 0 00.493.398.81.81 0 00.297.066c.131 0 .23-.033.296-.1a.672.672 0 00.132-.43c0-.154-.066-.507-.198-1.06-.088-.375-.143-.86-.164-1.457zM83.613 49.07c0 .376-.099 1.137-.296 2.285-.197 1.148-.329 1.92-.395 2.318-.329 1.7-.878 3.101-1.645 4.205-.746 1.082-1.678 1.744-2.797 1.987-.746.154-1.381.231-1.908.231-.636-.176-1.13-.452-1.48-.827-.483-.508-.724-1.015-.724-1.524 0-.286.054-.695.164-1.225.088-.53.186-.85.297-.96.065-.176.175-.375.328-.596.088-.198.208-.485.362-.86.066-.111.209-.387.428-.829.198-.463.34-.805.428-1.026l.822-1.722a6.04 6.04 0 01.593-1.06c.219-.308.46-.563.723-.761.505-.441 1.174-.75 2.007-.927a4.587 4.587 0 011.053-.133c.35 0 .68.056.987.166.33.11.581.276.757.496.219.2.318.431.296.696v.066zm2.073 10.397c-.286-.839-.483-1.953-.592-3.344a19.17 19.17 0 01.065-3.907c.088-.817.132-1.557.132-2.219.022-.684 0-1.048-.066-1.093-.066-.043-.099-.264-.099-.662 0-.353-.11-.629-.329-.828-.22-.176-.559-.375-1.02-.596-.68-.352-1.447-.53-2.302-.53a8.43 8.43 0 00-1.448.133c-1.799.353-3.346 1.634-4.64 3.84-.394.686-.877 1.668-1.447 2.948-.592 1.258-.933 2.086-1.02 2.484a11.448 11.448 0 00-.197 2.02c0 .485.043.938.131 1.357.241.795.46 1.39.658 1.788.198.398.581.74 1.152 1.027.241.132.45.22.625.265.153.022.46.033.921.033.702 0 1.327-.089 1.876-.266 1.293-.463 2.292-1.004 2.994-1.622.701-.618 1.382-1.468 2.04-2.55a.378.378 0 01.066-.099c.197-.331.295-.43.295-.298 0 .089.033.53.1 1.325.108 1.038.427 1.865.953 2.483.505.618.932.828 1.284.629.11-.066.175-.143.197-.231v-.1a7.539 7.539 0 00-.329-1.987zm12.578-2.46c-.045.22-.132.53-.263.927-.286.707-.582 1.181-.889 1.424-.329.243-.921.397-1.777.464a3.262 3.262 0 01-.46.033 4.606 4.606 0 01-2.205-.563 7.137 7.137 0 01-1.151-.96 4.61 4.61 0 01-.954-1.358 8.287 8.287 0 01-.56-1.424c-.175-.552-.263-.927-.263-1.126a.586.586 0 00-.164-.43c-.066-.044-.099-.188-.099-.43 0-.2.021-.464.066-.795.11-.707.23-1.236.362-1.59.307-.949.68-1.7 1.118-2.251.132-.177.45-.497.954-.96.505-.442.856-.707 1.053-.795a4.732 4.732 0 011.25-.299h.198a1.52 1.52 0 01.888.2c.285.154.603.419.955.794.46.508.745.938.855 1.291.33.685.603 1.667.823 2.947.197 1.28.296 2.54.296 3.775 0 .53-.012.906-.033 1.126zm1.735.04v-.965c-.023-.73-.098-1.57-.222-2.519-.285-2.295-.702-3.995-1.25-5.099-.22-.441-.593-.949-1.119-1.523-.526-.552-.965-.927-1.316-1.126-.35-.176-.845-.298-1.48-.364a7.46 7.46 0 00-.658-.034c-.33 0-.604.034-.823.1a3.007 3.007 0 00-.625.298c-.263.155-.44.298-.526.43a6.436 6.436 0 00-.494.365c-.702.485-1.272 1.17-1.71 2.053-.045.11-.078.188-.1.231-.044 0-.066-.496-.066-1.49 0-.816.011-1.368.033-1.655-.197.044-.34.066-.427.066a.666.666 0 00-.362.033.318.318 0 00-.23.265 97.72 97.72 0 00-.231 1.258c-.176 1.038-.318 2.671-.428 4.9a77.633 77.633 0 00-.131 4.24c0 .507.01.981.033 1.423.087 3.311.23 5.53.428 6.656.109.662.186 1.291.23 1.887.065.618.186 1.015.362 1.192.24.22.471.331.69.331.242 0 .461-.1.659-.298.153-.243.208-.64.164-1.192-.044-.53-.132-1.17-.263-1.92-.154-.751-.263-1.822-.33-3.212-.065-1.457-.12-2.274-.164-2.45-.044-.177-.054-.254-.032-.232.043.022.186.187.427.496.439.707 1.13 1.292 2.073 1.755.921.486 1.864.728 2.83.728 1.03 0 1.93-.198 2.698-.595a3.4 3.4 0 001.348-1.027c.395-.463.67-.97.823-1.523.105-.403.168-.898.19-1.483zM41.222 11.998c-.042-1.845.73-3.337 1.064-3.893.243-.406.458-.634.665-.854.186-.197.361-.384.523-.662.227-.388.404-.782.548-1.174l.033.072c.528 1.138 1.25 2.697 1.054 4.005-.177 1.181-.576 1.835-1.038 2.592-.475.78-1.014 1.663-1.408 3.27-.36 1.47-.852 3.483-.068 5.591.12.326.245.584.366.833.21.432.39.804.488 1.417.168 1.044-.007 2.155-.52 3.302-1.083-1.356-1.663-2.728-1.722-4.08-.036-.82.125-1.343.328-2.004.203-.663.433-1.414.54-2.652.094-1.064.234-2.673-.33-4.418a6.438 6.438 0 00-.54-1.245.3.3 0 00.017-.1zM34.096.564c1.625 1.052 2.728 2.34 3.28 3.828.294.795.31 1.326.328 1.888.019.615.038 1.25.381 2.244.462 1.343 1.053 1.995 1.625 2.625.55.606 1.068 1.178 1.457 2.383.525 1.627.396 3.1.303 4.176-.103 1.173-.323 1.89-.517 2.524-.211.69-.394 1.286-.354 2.211.065 1.499.7 3.005 1.886 4.477a.302.302 0 00.506-.051.298.298 0 00.08.057.304.304 0 00.403-.152c.57-1.267.765-2.504.576-3.677-.113-.702-.321-1.132-.541-1.587a8.507 8.507 0 01-.344-.78c-.718-1.93-.27-3.76.09-5.23.37-1.514.86-2.318 1.335-3.096.475-.78.925-1.516 1.12-2.82.225-1.492-.543-3.147-1.104-4.356-.126-.273-.236-.51-.317-.71.4-1.722.164-3.328-.07-4.285a.304.304 0 10-.591.147c.305 1.246.622 3.67-.679 5.899-.127.218-.272.372-.44.55a5.12 5.12 0 00-.744.959c-.39.65-1.006 1.905-1.13 3.494a13.89 13.89 0 00-.475-.546c-.555-.611-1.079-1.189-1.5-2.413-.312-.906-.33-1.493-.347-2.062-.019-.586-.037-1.193-.367-2.083-.599-1.615-1.783-3.004-3.52-4.13a.303.303 0 00-.421.093.307.307 0 00.09.423zm4.356 55.189c-.155 0-.291.157-.401.461a6.18 6.18 0 01-.28.682c-.118.249-.26.52-.428.813-.282.643-.674 1.301-1.207 1.845a4.52 4.52 0 01-.582.502c-1.448.957-3.118 1.294-4.465.26a5.468 5.468 0 01-.5-.338 6.326 6.326 0 01-.486-.411c-.606-.61-1.05-1.231-1.318-1.838-.321-.645-.45-1.403-.381-2.253.067-.83.258-1.757.566-2.753a9.987 9.987 0 011.042-2.399c.221-.357.404-.621.543-.785.15-.174.436-.373.881-.609.638-.32 1.397-.483 2.251-.483l.18-.003c.784 0 1.472.141 2.065.43.362.227.716.515 1.057.858.347.373.583.766.699 1.16.157.45.287.535.301.542.085.025.194.037.327.037.053 0 .108-.002.167-.006a.622.622 0 00.16-.297 1.91 1.91 0 00.058-.51c0-.143-.08-.456-.468-1.13a10.477 10.477 0 00-.926-1.387c-.607-.632-1.384-1.06-2.3-1.27a6.246 6.246 0 00-1.15-.096c-.428 0-.896.033-1.382.096-.848.15-1.545.397-2.065.732-.742.512-1.411 1.23-1.984 2.126-.559.93-.994 1.971-1.293 3.087-.128.603-.194 1.436-.194 2.477v.397c0 .757.054 1.39.159 1.873.15.581.389 1.228.71 1.916.653 1.316 1.745 2.241 3.245 2.751a6.406 6.406 0 001.981.322c.37 0 .74-.033 1.097-.108.328-.105.636-.206.924-.31 1.056-.448 1.724-1.12 2.328-1.82.227-.32.42-.66.597-1.005.053-.12.104-.24.152-.361.177-.449.335-.906.52-1.351.138-.334.538-.827.545-1.184a.5.5 0 00-.144-.29c-.304-.305-.494-.37-.6-.37z" fill="#2E2E2E"/></svg>