<svg width="18" height="18" fill="none" xmlns="http://www.w3.org/2000/svg"><path d="M16.364 17.637a.9.9 0 101.272-1.273l-1.272 1.273zm-2.594-5.14a.9.9 0 10-1.273 1.273l1.273-1.273zm3.866 3.867l-3.866-3.867-1.273 1.273 3.867 3.867 1.272-1.273zM14.322 8.11a6.21 6.21 0 01-6.21 6.211v1.8a8.011 8.011 0 008.01-8.01h-1.8zm-6.21 6.211A6.211 6.211 0 011.9 8.113H.1a8.011 8.011 0 008.011 8.01v-1.8zM1.9 8.113A6.21 6.21 0 018.111 1.9V.1A8.011 8.011 0 00.1 8.111h1.8zM8.111 1.9a6.211 6.211 0 016.211 6.211h1.8a8.011 8.011 0 00-8.01-8.01v1.8z" fill="#12B370"/></svg>