<svg width="1171" height="160" fill="none" xmlns="http://www.w3.org/2000/svg"><g clip-path="url(#clip0_437_82623)"><path d="M222.642 187.656c8.316-4.517 14.358-12.422 17.426-21.284 1.831-5.289 2.683-10.843 2.869-16.424.225-6.73-2.3-14.603-.301-21.132.777-.538 1.549-1.074 2.33-1.613.799-.553.604-2.026-.444-2.156-20.091-2.489-43.981-22.244-64.132-9.484-15.381 9.738-15.011 31.561-9.052 47.209a379.383 379.383 0 01-21.797 6.601c-1.677.454-.761 2.862.87 2.51a229.716 229.716 0 0022.221-6.004c.236.52.462 1.057.709 1.56 8.772 17.714 30.152 30.623 49.301 20.217zm15.615-44.7c-1.427-.674-2.979-1.2-4.342-1.732-2.034-.792-4.091-1.512-6.15-2.232a691.71 691.71 0 0010.899-7.428c-.826 3.669-.519 7.382-.407 11.392zm1.962-15.655c-.153.291-.268.581-.4.872-6.4 4.863-13.206 9.282-20.281 13.331 1.49-5.997 2.004-12.495 2.774-18.57 5.806 2.056 11.656 3.914 17.907 4.367zm-20.24-5.198c-1.473 6.9-3.523 14.255-3.814 21.3a239.625 239.625 0 01-13.574 6.9c1.824-10.732 2.816-21.687 3.907-32.521 4.604 1.109 9.043 2.725 13.481 4.321zm-20.094-5.499a49.33 49.33 0 014.61.731c-1.835 11.076-3.823 22.247-4.845 33.421-.03.33.056.604.186.844a281.56 281.56 0 01-15.165 6.365c2.256-13.683 4.337-27.431 6.558-41.126 2.585-.464 5.458-.573 8.656-.235zm-9.872.492c-4.828 12.928-7.703 27.917-7.669 41.735-2.14.805-4.278 1.61-6.427 2.368-6.564-16.913-3.959-39.893 14.096-44.103zm21.124 32.175c1.755-.985 3.511-1.971 5.223-3.002.481.534 1.523.581 1.814-.206.138-.372.244-.759.371-1.137a305.862 305.862 0 007.527-4.819c2.23 1.162 4.466 2.307 6.743 3.381 1.695.801 3.58 1.865 5.469 2.413-.017 4.991-.481 9.969-1.7 14.757-.065-.072-.114-.149-.207-.212-7.29-5.044-16.496-9.038-25.24-11.175zm-9.344 4.927a168.414 168.414 0 007.454-3.839c4.181 2.089 8.548 3.809 12.765 5.828 4.339 2.077 8.581 4.448 13.003 6.336.378.16.757.093 1.081-.079-.846 2.821-1.962 5.57-3.469 8.195a37.655 37.655 0 01-2.561 3.879c-5.018-3.55-11.002-5.908-16.531-8.553-6.079-2.906-12.142-5.848-18.211-8.776a235.174 235.174 0 006.469-2.991zm-8.168 5.247c6.161 3.15 12.329 6.288 18.48 9.459 5.255 2.708 10.564 5.904 16.193 7.792-3.524 3.959-7.578 6.513-11.855 7.881-13.264-5.453-24.503-12.718-35.905-21.416-.012-.01-.023-.01-.035-.019 4.167-1.526 8.304-3.143 12.392-4.907-.01.465.19.933.73 1.21zm-16.349 4.89c.526-.182 1.042-.392 1.566-.578-.079.338-.019.722.284 1.057 8.29 9.201 19.529 16.257 31.156 20.916-12.895.799-26.444-7.875-33.006-21.395z" fill="#90C5BA"/></g><g clip-path="url(#clip1_437_82623)"><path d="M532.698-10.684c-7.086 6.273-11.193 15.334-12.188 24.66-.593 5.565-.173 11.169.902 16.648 1.295 6.608 5.528 13.711 5.05 20.522-.636.7-1.267 1.395-1.907 2.096-.655.718-.133 2.11.918 2 20.135-2.096 47.859 11.775 64.621-5.194 12.794-12.95 7.521-34.13-1.807-48.035a378.408 378.408 0 0119.752-11.337c1.531-.82.097-2.96-1.413-2.25a229.682 229.682 0 00-20.299 10.85c-.347-.454-.688-.926-1.042-1.36-12.534-15.285-36.271-23.05-52.587-8.601zm-5.152 47.067c1.541.336 3.172.499 4.621.71 2.159.315 4.326.553 6.494.79a695.034 695.034 0 00-8.947 9.691c-.021-3.76-1.156-7.31-2.168-11.191zm1.612 15.695c.083-.318.13-.627.194-.94 5.14-6.179 10.777-12.016 16.759-17.554-.102 6.179.86 12.626 1.477 18.718-6.12-.696-12.237-1.19-18.43-.224zm20.891.508c-.119-7.053.223-14.68-1.079-21.611a240.602 240.602 0 0111.672-9.779c.639 10.868 2.139 21.765 3.514 32.566-4.735-.044-9.424-.619-14.107-1.176zm20.816.836a49.49 49.49 0 01-4.657.326c-.704-11.205-1.282-22.537-2.802-33.654a1.449 1.449 0 00-.37-.781 280.422 280.422 0 0113.342-9.615c.882 13.84 1.949 27.703 2.867 41.547-2.413 1.033-5.189 1.787-8.38 2.177zm9.508-2.702c1.794-13.682 1.221-28.934-1.922-42.39a322.397 322.397 0 015.729-3.754c10.202 15.001 12.836 37.978-3.807 46.144zm-27.825-26.594c-1.488 1.355-2.977 2.71-4.413 4.1-.588-.411-1.615-.223-1.721.61-.051.393-.067.794-.105 1.19a306.581 306.581 0 00-6.25 6.39c-2.435-.63-4.87-1.242-7.331-1.776-1.831-.4-3.908-1.012-5.871-1.12-1.107-4.867-1.776-9.821-1.666-14.762.08.057.145.12.25.161 8.238 3.273 18.106 5.093 27.107 5.207zm7.996-6.904a168.141 168.141 0 00-6.399 5.418c-4.544-1.094-9.186-1.787-13.749-2.805-4.696-1.047-9.362-2.402-14.096-3.246-.404-.072-.758.079-1.036.32.19-2.939.658-5.869 1.536-8.766a37.823 37.823 0 011.622-4.355c5.688 2.329 12.05 3.28 18.032 4.611 6.578 1.464 13.147 2.966 19.719 4.453a234.95 234.95 0 00-5.629 4.37zm6.777-6.951c-6.712-1.682-13.428-3.351-20.135-5.056-5.73-1.456-11.622-3.375-17.531-3.947 2.542-4.65 5.917-8.053 9.776-10.348 14.151 2.328 26.738 6.876 39.804 12.785.014.007.025.005.039.01-3.716 2.425-7.383 4.932-10.969 7.571a1.276 1.276 0 00-.984-1.015zm14.828-8.444c-.471.296-.926.616-1.395.915 0-.347-.144-.707-.514-.965-10.149-7.1-22.687-11.445-35.065-13.367 12.384-3.681 27.538 1.72 36.974 13.417z" fill="#90C5BA"/></g><g clip-path="url(#clip2_437_82623)"><path d="M982.842 25.607c2.767 4.117 7.189 6.88 11.965 8.045 2.85.695 5.793.866 8.713.688 3.52-.213 7.5-1.918 11.01-1.197.32.38.64.755.96 1.137.32.39 1.08.215 1.1-.339.31-10.606 9.44-24.044 1.79-33.931-5.84-7.546-17.21-6.279-25.079-2.399a197.693 197.693 0 01-4.517-11.049c-.32-.852-1.531-.256-1.268.578a120.157 120.157 0 004.228 11.3c-.26.148-.529.292-.78.446-8.811 5.45-14.494 17.242-8.122 26.721zm24.098 5.947c.28-.777.48-1.613.69-2.35.31-1.101.58-2.21.86-3.32 1.44 1.782 2.92 3.549 4.41 5.322-1.95-.25-3.88.092-5.96.348zm8.26.253c-.16-.065-.31-.11-.47-.166-2.86-3.1-5.5-6.434-7.96-9.926 3.2.482 6.62.43 9.83.533-.79 3.131-1.47 6.275-1.4 9.56zm1.72-10.817c-3.68-.429-7.61-1.136-11.31-.941a129.245 129.245 0 01-4.26-6.744c5.69.424 11.45.402 17.16.438-.35 2.457-.98 4.853-1.59 7.247zm1.88-10.756c-.01.822-.07 1.635-.16 2.442-5.87-.413-11.79-.9-17.67-.883-.18 0-.32.059-.44.138a150.483 150.483 0 01-4.064-7.6c7.254.504 14.524.913 21.784 1.398.37 1.326.57 2.82.55 4.505zm-.75-5.127c-6.98-1.883-14.94-2.645-22.151-1.947-.525-1.077-1.05-2.153-1.552-3.237 8.503-4.258 20.623-4.03 23.703 5.184zm-15.74 12.607c.6.867 1.2 1.735 1.82 2.578-.26.276-.23.823.2.936.2.053.4.09.61.137.94 1.248 1.91 2.473 2.88 3.69-.49 1.222-.98 2.445-1.43 3.686-.33.924-.8 1.96-.99 2.972-2.6.237-5.22.24-7.784-.16.035-.038.073-.067.101-.119 2.273-4.052 3.903-9.052 4.593-13.72zm-3.035-4.634a92.405 92.405 0 002.365 3.7c-.88 2.286-1.56 4.649-2.408 6.949-.87 2.367-1.898 4.696-2.666 7.097a.644.644 0 00.095.56 20.284 20.284 0 01-4.447-1.406 19.815 19.815 0 01-2.15-1.146c1.605-2.793 2.541-6.032 3.648-9.047 1.218-3.315 2.454-6.624 3.683-9.935.61 1.083 1.234 2.159 1.88 3.228zm-3.141-4.003c-1.34 3.37-2.674 6.743-4.025 10.109-1.155 2.875-2.561 5.803-3.269 8.833-2.239-1.644-3.772-3.634-4.696-5.798 2.192-7.19 5.429-13.412 9.407-19.79.005-.007.004-.013.008-.02a123.8 123.8 0 003.171 6.225.669.669 0 00-.596.44zm-3.356-8.29c.121.265.256.524.379.788a.602.602 0 00-.538.2c-4.393 4.78-7.522 10.991-9.38 17.288-1.052-6.69 2.807-14.187 9.539-18.276z" fill="#90C5BA"/></g><g clip-path="url(#clip3_437_82623)"><path d="M1143.62 130.662c-3.72-5.538-9.67-9.254-16.09-10.822-3.83-.934-7.79-1.164-11.72-.925-4.74.287-10.09 2.581-14.81 1.611-.43-.51-.86-1.016-1.29-1.529-.44-.525-1.46-.29-1.48.455-.42 14.266-12.7 32.342-2.41 45.641 7.85 10.151 23.15 8.446 33.74 3.227 2.2 4.945 4.22 9.921 6.07 14.862.43 1.147 2.06.344 1.71-.777a162.297 162.297 0 00-5.69-15.199c.35-.2.71-.394 1.05-.601 11.85-7.33 19.5-23.192 10.92-35.943zm-32.4-7.999c-.38 1.046-.65 2.17-.93 3.162-.42 1.48-.79 2.972-1.16 4.464a535.646 535.646 0 00-5.94-7.157c2.63.336 5.22-.125 8.03-.469zm-11.12-.341c.21.088.42.15.64.223 3.83 4.17 7.39 8.655 10.7 13.352-4.31-.648-8.91-.578-13.22-.717 1.06-4.211 1.97-8.44 1.88-12.858zm-2.31 14.551c4.94.577 10.24 1.528 15.2 1.266 2.01 2.953 3.92 5.981 5.74 9.07-7.65-.569-15.4-.539-23.08-.588.47-3.305 1.31-6.528 2.14-9.748zm-2.53 14.468c.01-1.107.09-2.2.21-3.285 7.89.555 15.87 1.211 23.78 1.188.23-.001.42-.079.58-.186 1.92 3.352 3.75 6.765 5.47 10.222-9.75-.677-19.54-1.227-29.3-1.88-.5-1.783-.77-3.792-.74-6.059zm1 6.897c9.39 2.532 20.1 3.557 29.8 2.618.71 1.449 1.41 2.896 2.09 4.354-11.44 5.728-27.74 5.421-31.89-6.972zm21.18-16.958a116.23 116.23 0 00-2.45-3.468c.34-.372.31-1.107-.26-1.259-.27-.072-.55-.121-.83-.185a184.03 184.03 0 00-3.88-4.964c.67-1.643 1.33-3.287 1.93-4.957.45-1.243 1.07-2.636 1.33-3.998 3.51-.319 7.03-.323 10.47.216-.05.05-.1.089-.13.159-3.06 5.451-5.26 12.176-6.18 18.456zm4.08 6.232c-1.03-1.7-2.09-3.356-3.19-4.977 1.19-3.074 2.11-6.252 3.25-9.346 1.17-3.184 2.55-6.318 3.58-9.547.09-.276.02-.537-.12-.753 2.03.407 4.04 1.008 5.98 1.892 1.04.472 1.99.991 2.89 1.54-2.16 3.758-3.42 8.114-4.91 12.17-1.63 4.46-3.3 8.909-4.95 13.363-.82-1.456-1.66-2.904-2.53-4.342zm4.22 5.385c1.81-4.533 3.6-9.07 5.42-13.597 1.55-3.868 3.44-7.806 4.4-11.882 3.01 2.211 5.07 4.888 6.31 7.799-2.95 9.671-7.3 18.041-12.65 26.62-.01.009-.01.017-.01.026a168.5 168.5 0 00-4.27-8.373.885.885 0 00.8-.593zm4.52 11.152c-.16-.357-.34-.705-.51-1.061.24.033.51-.035.72-.269 5.91-6.428 10.12-14.784 12.62-23.254 1.42 8.998-3.78 19.083-12.83 24.584z" fill="#90C5BA"/></g><g clip-path="url(#clip4_437_82623)"><path d="M32.045-11.931C36.949-9.267 40.512-4.606 42.32.62c1.08 3.12 1.583 6.395 1.692 9.686.133 3.969-1.356 8.612-.177 12.462l1.374.952c.471.325.356 1.194-.262 1.27C33.1 26.46 19.01 38.112 7.127 30.586c-9.07-5.743-8.853-18.613-5.338-27.84A223.102 223.102 0 00-11.066-1.15c-.989-.268-.448-1.688.513-1.48C-6.103-1.667-1.74-.48 2.552.91c.139-.306.272-.623.418-.92 5.173-10.444 17.782-18.057 29.075-11.92zm9.208 26.361c-.841.398-1.757.708-2.56 1.021-1.2.468-2.413.892-3.627 1.317a412.01 412.01 0 016.427 4.38c-.487-2.163-.306-4.353-.24-6.718zm1.157 9.232c-.09-.17-.157-.342-.236-.514-3.774-2.868-7.788-5.474-11.96-7.862.879 3.537 1.182 7.37 1.636 10.952 3.424-1.212 6.874-2.308 10.56-2.576zm-11.936 3.066c-.869-4.07-2.077-8.407-2.25-12.562a141.944 141.944 0 00-8.004-4.069c1.076 6.33 1.66 12.79 2.304 19.179 2.715-.654 5.333-1.607 7.95-2.548zm-11.85 3.243c.92-.098 1.824-.25 2.719-.43-1.083-6.533-2.255-13.12-2.858-19.71a.855.855 0 01.11-.498A165.418 165.418 0 009.65 5.579c1.331 8.07 2.558 16.177 3.868 24.253 1.524.274 3.22.338 5.105.139zm-5.822-.29C9.955 22.057 8.259 13.217 8.279 5.068c-1.262-.475-2.522-.95-3.79-1.396-3.871 9.974-2.335 23.526 8.313 26.009zM25.26 10.706a117.88 117.88 0 013.08 1.77c.283-.314.898-.342 1.07.122.081.22.143.448.218.67 1.497.923 2.972 1.877 4.44 2.842a113.44 113.44 0 013.976-1.994c1-.472 2.111-1.1 3.225-1.422-.01-2.944-.283-5.88-1.002-8.704-.039.043-.068.088-.123.126-4.299 2.974-9.727 5.33-14.884 6.59zm-5.511-2.905a99.2 99.2 0 014.396 2.263c2.466-1.232 5.04-2.246 7.528-3.437 2.559-1.224 5.06-2.623 7.669-3.736a.725.725 0 01.637.046c-.5-1.663-1.157-3.284-2.046-4.833a22.307 22.307 0 00-1.51-2.287c-2.96 2.094-6.489 3.484-9.75 5.044-3.584 1.714-7.16 3.449-10.739 5.176 1.277.568 2.549 1.153 3.815 1.764zm-4.817-3.095C18.566 2.849 22.203.998 25.831-.872c3.099-1.597 6.23-3.482 9.55-4.595-2.079-2.335-4.47-3.842-6.992-4.648-7.822 3.215-14.45 7.5-21.175 12.63-.007.005-.013.006-.02.01 2.457.9 4.897 1.854 7.308 2.895a.752.752 0 01.43-.714zM5.291 1.822c.31.108.614.231.923.341a.677.677 0 01.167-.623c4.89-5.426 11.517-9.588 18.374-12.335C17.151-11.267 9.16-6.151 5.291 1.822z" fill="#90C5BA"/></g><defs><clipPath id="clip0_437_82623"><path fill="#fff" transform="rotate(70.896 55.935 204.921)" d="M0 0h106.107v106.107H0z"/></clipPath><clipPath id="clip1_437_82623"><path fill="#fff" transform="rotate(-122.112 298.942 -105.727)" d="M0 0h106.107v106.107H0z"/></clipPath><clipPath id="clip2_437_82623"><path fill="#fff" transform="rotate(155.506 515.696 125.056)" d="M0 0h55.614v55.614H0z"/></clipPath><clipPath id="clip3_437_82623"><path fill="#fff" transform="rotate(-24.494 838.19 -2401.261)" d="M0 0h74.806v74.806H0z"/></clipPath><clipPath id="clip4_437_82623"><path fill="#fff" transform="scale(1 -1) rotate(70.896 52.704 1.772)" d="M0 0h62.575v62.575H0z"/></clipPath></defs></svg>