<svg width="14" height="14" fill="none" xmlns="http://www.w3.org/2000/svg"><path d="M6.467.642c.171-.364.257-.546.373-.604a.356.356 0 01.32 0c.116.058.202.24.373.604l1.624 3.45a.84.84 0 00.112.203.373.373 0 00.116.088.78.78 0 00.218.05l3.633.557c.382.059.574.088.662.186a.402.402 0 01.099.319c-.017.134-.155.275-.432.558l-2.628 2.684a.868.868 0 00-.15.176.403.403 0 00-.043.142c-.007.057.003.116.022.234l.62 3.792c.065.4.098.6.037.718a.373.373 0 01-.259.197c-.127.025-.298-.07-.64-.258l-3.247-1.792a.795.795 0 00-.206-.095.355.355 0 00-.142 0 .795.795 0 00-.206.095l-3.247 1.792c-.342.188-.513.283-.64.258a.373.373 0 01-.259-.197c-.061-.119-.028-.319.037-.718l.62-3.792a.893.893 0 00.022-.234.403.403 0 00-.044-.142.841.841 0 00-.15-.176L.436 6.053C.16 5.77.02 5.63.003 5.495a.402.402 0 01.099-.319c.088-.098.28-.127.662-.186l3.633-.557a.78.78 0 00.218-.05.373.373 0 00.116-.088.862.862 0 00.112-.203L6.467.642z" fill="#EBEBEB"/></svg>