<svg width="16" height="16" fill="none" xmlns="http://www.w3.org/2000/svg"><path d="M7.467 1.642c.171-.364.257-.546.373-.604a.356.356 0 01.32 0c.116.058.202.24.373.604l1.624 3.45a.84.84 0 00.112.203.373.373 0 00.116.088.77.77 0 00.219.05l3.632.557c.382.059.574.088.662.186a.402.402 0 01.099.319c-.017.134-.155.275-.432.558l-2.628 2.684a.868.868 0 00-.15.176.403.403 0 00-.043.142c-.007.057.003.116.022.234l.62 3.792c.065.4.098.6.037.718a.373.373 0 01-.259.197c-.127.025-.298-.07-.64-.258l-3.247-1.792a.795.795 0 00-.206-.095.355.355 0 00-.142 0 .795.795 0 00-.206.095l-3.247 1.792c-.342.188-.513.283-.64.258a.373.373 0 01-.259-.197c-.061-.119-.028-.319.037-.718l.62-3.792a.892.892 0 00.022-.234.403.403 0 00-.044-.142.841.841 0 00-.15-.176L1.436 7.053c-.276-.283-.415-.424-.432-.558a.402.402 0 01.099-.319c.088-.098.28-.127.662-.186l3.633-.557a.78.78 0 00.218-.05.372.372 0 00.116-.088.861.861 0 00.112-.203l1.624-3.45z" fill="#EBEBEB"/><path fill-rule="evenodd" clip-rule="evenodd" d="M7.84 1.038c-.116.058-.202.24-.373.604l-1.624 3.45a.861.861 0 01-.112.203.372.372 0 01-.116.088.78.78 0 01-.218.05l-3.633.557c-.382.059-.574.088-.662.186a.402.402 0 00-.099.319c.017.134.156.275.432.558l2.628 2.684a.841.841 0 01.15.176.403.403 0 01.043.142.892.892 0 01-.022.234l-.62 3.792c-.065.4-.098.6-.037.718a.373.373 0 00.259.197c.127.025.298-.07.64-.258l3.247-1.792a.795.795 0 01.206-.095.358.358 0 01.071-.007V1a.357.357 0 00-.16.038z" fill="#FFBF00"/></svg>