<svg width="16" height="12" fill="none" xmlns="http://www.w3.org/2000/svg"><path fill-rule="evenodd" clip-rule="evenodd" d="M.017 6.191c.031.143.087.235.197.42C1.13 8.14 3.851 12 8 12c4.149 0 6.871-3.861 7.786-5.389.11-.185.166-.277.197-.42a1.058 1.058 0 000-.382c-.031-.143-.087-.235-.197-.42C14.87 3.86 12.149 0 8 0 3.851 0 1.129 3.861.214 5.389c-.11.185-.166.277-.197.42a1.06 1.06 0 000 .382zm6.358-.19c0-.948.727-1.715 1.625-1.715S9.625 5.053 9.625 6 8.898 7.714 8 7.714 6.375 6.947 6.375 6zM8 2.57C6.205 2.57 4.75 4.106 4.75 6c0 1.893 1.455 3.428 3.25 3.428S11.25 7.894 11.25 6c0-1.893-1.455-3.428-3.25-3.428z" fill="#D1D1D1"/></svg>