<svg width="30" height="28" viewBox="0 0 30 28" fill="none" xmlns="http://www.w3.org/2000/svg">
<path fill-rule="evenodd" clip-rule="evenodd" d="M1.66667 16.2893C0.746192 16.2893 0 17.066 0 18.0242V26.2651C0 27.2233 0.746192 28 1.66667 28H3.33333C4.25383 28 5 27.2233 5 26.2651V25.9705C5.809 25.9415 6.65133 25.9188 7.00983 25.9335C8.72433 26.004 10.0046 26.4197 11.2991 26.84C12.5068 27.2321 13.7268 27.6283 15.3232 27.7518C15.7245 27.7829 16.115 27.8229 16.4936 27.8618C17.8606 28.0022 19.0722 28.1266 20.0738 27.7518C21.3528 27.2733 28.6613 23.6367 29.5749 22.6798C30.4885 21.7228 30.0317 19.139 27.1997 19.6174C25.8022 19.8536 24.1823 20.5324 22.7133 21.148C21.205 21.78 19.8557 22.3454 19.0689 22.2969C17.5158 22.2013 13.4047 21.4357 13.4047 21.4357L18.125 21.494C18.125 21.494 18.7918 21.5302 19.7084 20.8616C20.625 20.1928 21.4442 18.2776 20.0738 18.2776C18.7035 18.2776 17.2417 17.7992 17.2417 17.7992L11.3949 16.4594C11.3949 16.4594 9.38508 16.0766 8.56292 16.4594C8.03975 16.7029 6.23392 17.3726 4.98942 17.8276C4.89567 16.962 4.19 16.2893 3.33333 16.2893H1.66667Z" fill="#D1D1D1"/>
<path d="M29.7705 4.81938C28.9302 4.8233 25.8639 5.00492 23.583 7.31936C22.6246 8.21182 22.039 9.22597 21.6614 10.1766C21.2838 9.22597 20.6981 8.21182 19.7398 7.31936C17.4588 5.00492 14.3926 4.8233 13.5523 4.81938C13.4247 4.81878 13.3269 4.92179 13.3281 5.05492C13.3347 5.89588 13.5347 8.85428 15.8966 11.0579C18.3278 13.5223 20.7355 13.494 21.6614 13.494C22.5873 13.494 24.9944 13.5226 27.4261 11.0579C29.7884 8.85398 29.9881 5.89588 29.9947 5.05492C29.9959 4.92179 29.8981 4.81878 29.7705 4.81938ZM21.6608 8.15068C22.0318 7.58291 22.4594 7.07298 22.9366 6.629C23.4889 6.06847 24.0818 5.626 24.6802 5.26817C24.2045 3.1447 23.1837 1.26068 21.8813 0.0808727C21.7624 -0.0269576 21.5624 -0.0269576 21.4432 0.0808727C20.1414 1.25978 19.1206 3.14199 18.644 5.26365C19.2334 5.61606 19.8159 6.051 20.3576 6.60069C20.8506 7.06057 21.2882 7.58103 21.6608 8.15068Z" fill="#D1D1D1"/>
</svg>
