<svg width="16" height="16" viewBox="0 0 16 16" fill="none" xmlns="http://www.w3.org/2000/svg">
<path d="M5.3636 11.3636C5.01213 11.7151 5.01213 12.2849 5.3636 12.6364C5.71508 12.9879 6.28492 12.9879 6.6364 12.6364L5.3636 11.3636ZM10 8L10.6364 8.6364C10.9879 8.28492 10.9879 7.71508 10.6364 7.3636L10 8ZM6.6364 3.3636C6.28492 3.01213 5.71508 3.01213 5.3636 3.3636C5.01213 3.71508 5.01213 4.28492 5.3636 4.6364L6.6364 3.3636ZM6.6364 12.6364L10.6364 8.6364L9.3636 7.3636L5.3636 11.3636L6.6364 12.6364ZM10.6364 7.3636L6.6364 3.3636L5.3636 4.6364L9.3636 8.6364L10.6364 7.3636Z" fill="#D1D1D1"/>
</svg>
