<svg width="20" height="20" viewBox="0 0 20 20" fill="none" xmlns="http://www.w3.org/2000/svg">
<path d="M14.8942 14.05H7.14896C6.25282 14.05 5.80475 14.05 5.44499 13.8856C5.12798 13.7408 4.85981 13.508 4.67276 13.2151C4.46048 12.8828 4.40007 12.4413 4.27926 11.5583L3.32725 4.6H18.2259C18.5261 4.6 18.6763 4.6 18.7819 4.66122C18.8745 4.71492 18.945 4.79959 18.9807 4.90015C19.0214 5.01478 18.9933 5.16143 18.9372 5.45472L17.7392 11.7089C17.5796 12.5422 17.4998 12.9589 17.2838 13.2708C17.0933 13.5459 16.8297 13.7628 16.5224 13.8974C16.1738 14.05 15.7473 14.05 14.8942 14.05Z" fill="white"/>
<path d="M7.3353 19C7.83515 19 8.24035 18.5971 8.24035 18.1C8.24035 17.6029 7.83515 17.2 7.3353 17.2C6.83546 17.2 6.43026 17.6029 6.43026 18.1C6.43026 18.5971 6.83546 19 7.3353 19Z" fill="white"/>
<path d="M14.5757 19C15.0755 19 15.4807 18.5971 15.4807 18.1C15.4807 17.6029 15.0755 17.2 14.5757 17.2C14.0758 17.2 13.6706 17.6029 13.6706 18.1C13.6706 18.5971 14.0758 19 14.5757 19Z" fill="white"/>
<path d="M1 0.3C0.613401 0.3 0.3 0.613401 0.3 1C0.3 1.3866 0.613401 1.7 1 1.7V0.3ZM17.7392 11.7089L17.0517 11.5772V11.5772L17.7392 11.7089ZM18.9372 5.45472L19.6247 5.58641V5.58641L18.9372 5.45472ZM2.89889 1.61818L2.20601 1.71771L2.20601 1.71772L2.89889 1.61818ZM4.27926 11.5583L4.9728 11.4634L4.27926 11.5583ZM18.9807 4.90015L18.3211 5.13441L18.3211 5.13441L18.9807 4.90015ZM18.7819 4.66122L19.1329 4.05559L19.1329 4.05559L18.7819 4.66122ZM16.5224 13.8974L16.2416 13.2561H16.2416L16.5224 13.8974ZM17.2838 13.2708L16.7083 12.8723L17.2838 13.2708ZM5.44499 13.8856L5.1541 14.5223L5.1541 14.5223L5.44499 13.8856ZM4.67276 13.2151L4.08283 13.5919L4.67276 13.2151ZM2.60571 1.04072L2.31609 1.67799L2.31609 1.67799L2.60571 1.04072ZM2.79846 1.20695L2.2103 1.58652L2.2103 1.58653L2.79846 1.20695ZM1 1.7H2.18213V0.3H1V1.7ZM7.14896 14.75H14.8942V13.35H7.14896V14.75ZM18.4267 11.8406L19.6247 5.58641L18.2497 5.32303L17.0517 11.5772L18.4267 11.8406ZM2.20601 1.71772L2.63437 4.69954L4.02014 4.50046L3.59178 1.51864L2.20601 1.71772ZM2.63372 4.69489L3.58572 11.6531L4.9728 11.4634L4.02079 4.50511L2.63372 4.69489ZM18.2259 3.9H3.32725V5.3H18.2259V3.9ZM19.6247 5.58641C19.6504 5.45218 19.6788 5.30689 19.6916 5.18159C19.7051 5.05002 19.711 4.8649 19.6403 4.66589L18.3211 5.13441C18.2911 5.05003 18.3034 4.99555 18.2989 5.03929C18.2968 5.05931 18.2925 5.09028 18.2838 5.14026C18.2751 5.19011 18.264 5.24803 18.2497 5.32303L19.6247 5.58641ZM18.2259 5.3C18.3027 5.3 18.3621 5.30002 18.413 5.30086C18.4641 5.3017 18.4959 5.30325 18.5164 5.30504C18.5613 5.30893 18.507 5.31096 18.4309 5.26685L19.1329 4.05559C18.9512 3.95025 18.769 3.92168 18.6373 3.91027C18.5118 3.89938 18.3635 3.9 18.2259 3.9V5.3ZM19.6403 4.66589C19.5488 4.40824 19.3687 4.19223 19.1329 4.05559L18.4309 5.26684C18.3804 5.23761 18.3411 5.19094 18.3211 5.13441L19.6403 4.66589ZM14.8942 14.75C15.3104 14.75 15.6606 14.7504 15.9493 14.729C16.2468 14.7069 16.5279 14.6591 16.8031 14.5386L16.2416 13.2561C16.1682 13.2883 16.0618 13.3168 15.8456 13.3328C15.6207 13.3496 15.3311 13.35 14.8942 13.35V14.75ZM17.0517 11.5772C16.9699 12.0041 16.9154 12.2865 16.8569 12.5026C16.8008 12.71 16.7531 12.8076 16.7083 12.8723L17.8593 13.6693C18.0305 13.4221 18.1307 13.1553 18.2084 12.8681C18.2837 12.5896 18.3489 12.247 18.4267 11.8406L17.0517 11.5772ZM16.8031 14.5386C17.229 14.3521 17.5948 14.0513 17.8593 13.6693L16.7083 12.8723C16.5919 13.0404 16.4305 13.1735 16.2416 13.2561L16.8031 14.5386ZM7.14896 13.35C6.69023 13.35 6.38533 13.3495 6.14914 13.3315C5.92158 13.3141 5.81094 13.2832 5.73588 13.2489L5.1541 14.5223C5.4388 14.6524 5.73208 14.7037 6.04252 14.7274C6.34435 14.7505 6.71155 14.75 7.14896 14.75V13.35ZM3.58572 11.6531C3.64467 12.084 3.69376 12.4464 3.75753 12.7412C3.82318 13.0447 3.91419 13.3279 4.08283 13.5919L5.26268 12.8383C5.21905 12.77 5.17371 12.6663 5.12589 12.4452C5.07618 12.2154 5.03467 11.9156 4.9728 11.4634L3.58572 11.6531ZM5.73588 13.2489C5.5411 13.1599 5.37693 13.0172 5.26268 12.8383L4.08283 13.5919C4.34269 13.9987 4.71486 14.3217 5.1541 14.5223L5.73588 13.2489ZM2.18213 1.7C2.23929 1.7 2.2824 1.70002 2.31933 1.70056C2.35623 1.7011 2.37774 1.70208 2.39069 1.70307C2.41621 1.70501 2.37563 1.70505 2.31609 1.67799L2.89533 0.40344C2.74621 0.335668 2.60516 0.315345 2.49695 0.307109C2.39739 0.29953 2.28285 0.3 2.18213 0.3V1.7ZM3.59178 1.51864C3.57756 1.41966 3.56177 1.30634 3.54003 1.20888C3.51635 1.10275 3.47582 0.965613 3.38661 0.827377L2.2103 1.58653C2.17429 1.53073 2.16824 1.48961 2.17361 1.51369C2.17635 1.52598 2.18033 1.54676 2.18607 1.5829C2.19182 1.61908 2.19792 1.66142 2.20601 1.71771L3.59178 1.51864ZM2.31609 1.67799C2.27328 1.65854 2.23641 1.62697 2.2103 1.58652L3.38661 0.827377C3.26674 0.641634 3.09605 0.494659 2.89533 0.40344L2.31609 1.67799ZM7.54035 18.1C7.54035 18.2068 7.45224 18.3 7.3353 18.3V19.7C8.21805 19.7 8.94035 18.9873 8.94035 18.1H7.54035ZM7.3353 18.3C7.21837 18.3 7.13026 18.2068 7.13026 18.1H5.73026C5.73026 18.9873 6.45256 19.7 7.3353 19.7V18.3ZM7.13026 18.1C7.13026 17.9932 7.21837 17.9 7.3353 17.9V16.5C6.45256 16.5 5.73026 17.2127 5.73026 18.1H7.13026ZM7.3353 17.9C7.45224 17.9 7.54035 17.9932 7.54035 18.1H8.94035C8.94035 17.2127 8.21805 16.5 7.3353 16.5V17.9ZM14.7807 18.1C14.7807 18.2068 14.6926 18.3 14.5757 18.3V19.7C15.4584 19.7 16.1807 18.9873 16.1807 18.1H14.7807ZM14.5757 18.3C14.4587 18.3 14.3706 18.2068 14.3706 18.1H12.9706C12.9706 18.9873 13.6929 19.7 14.5757 19.7V18.3ZM14.3706 18.1C14.3706 17.9932 14.4587 17.9 14.5757 17.9V16.5C13.6929 16.5 12.9706 17.2127 12.9706 18.1H14.3706ZM14.5757 17.9C14.6926 17.9 14.7807 17.9932 14.7807 18.1H16.1807C16.1807 17.2127 15.4584 16.5 14.5757 16.5V17.9Z" fill="white"/>
</svg>
