<svg width="69" height="136" viewBox="0 0 69 136" fill="none" xmlns="http://www.w3.org/2000/svg">
<rect y="48" width="48" height="88" rx="10" fill="#12B370"/>
<path d="M27 33.1218C27 35.8156 29.1409 38 31.7815 38C34.1764 38 36.1409 36.1978 36.4898 33.8559C37.5266 34.4546 38.7083 34.8248 39.9849 34.8248C43.7475 34.8248 46.7966 31.8456 47.0701 28.0779C48.1823 28.8099 49.4986 29.245 50.922 29.245C54.8651 29.245 58.0609 25.9847 58.0609 21.962C58.0609 21.4421 58.0034 20.9385 57.9023 20.4491C58.7013 20.6999 59.5338 20.8738 60.4141 20.8738C65.1562 20.8738 69 16.9522 69 12.1145C69 7.27687 65.156 3.35524 60.4141 3.35524C59.4465 3.35524 58.5308 3.55553 57.6624 3.85691C56.1202 1.52893 53.5093 8.34465e-07 50.5474 8.34465e-07C45.8053 8.34465e-07 41.9615 3.92164 41.9615 8.75928C41.9615 9.87155 42.1856 10.9255 42.5562 11.9043C38.6905 11.9954 35.582 15.2049 35.582 19.1691C35.582 19.9901 35.7445 20.7668 35.9904 21.503C34.0933 22.8115 32.8463 25.0262 32.8463 27.5382C32.8463 27.8334 32.8979 28.1124 32.9315 28.3977C32.5608 28.3046 32.1802 28.2399 31.7817 28.2399C29.1391 28.2437 27 30.4279 27 33.1218Z" fill="#12B370"/>
</svg>
