<svg width="44" height="40" viewBox="0 0 44 40" fill="none" xmlns="http://www.w3.org/2000/svg">
<path d="M7.07225 28.585L8.90518 29.5753L7.07225 28.585ZM7.55675 27.5561L9.57573 28.07L7.55675 27.5561ZM7.25616 25.6179L5.28196 26.2834L7.25616 25.6179ZM7.61461 26.878L5.53777 27.0423L7.61461 26.878ZM5.30235 37.3424L5.08814 35.2702H5.08814L5.30235 37.3424ZM3.47658 37.3172L2.39167 39.0957H2.39167L3.47658 37.3172ZM3.66463 34.8924L1.83169 33.9021L3.66463 34.8924ZM2.98992 36.5891L0.931698 36.9116L2.98992 36.5891ZM17.6765 36.4886L16.9276 38.4327L17.6765 36.4886ZM16.9913 36.2468L17.4592 34.2167L16.9913 36.2468ZM15.9711 36.2396L16.1854 38.3119H16.1854L15.9711 36.2396ZM16.603 36.1951L16.5234 38.277L16.603 36.1951ZM17.9089 14.0633C17.527 15.1487 18.0974 16.3381 19.1828 16.7199C20.2682 17.1018 21.4576 16.5314 21.8394 15.446L17.9089 14.0633ZM28.9767 16.316L26.8934 16.3129V16.316H28.9767ZM23.6339 19.0236C22.5424 19.3874 21.9524 20.5673 22.3163 21.6588C22.6801 22.7504 23.86 23.3403 24.9515 22.9764L23.6339 19.0236ZM24.3531 25.1667C23.2025 25.1667 22.2698 26.0994 22.2698 27.25C22.2698 28.4006 23.2025 29.3333 24.3531 29.3333V25.1667ZM24.3739 29.3333C25.5245 29.3333 26.4573 28.4006 26.4573 27.25C26.4573 26.0994 25.5245 25.1667 24.3739 25.1667V29.3333ZM24.0408 39.75C34.9714 39.75 43.8325 30.889 43.8325 19.9583H39.6658C39.6658 28.5878 32.6703 35.5833 24.0408 35.5833V39.75ZM16.9276 38.4327C19.1379 39.2842 21.5374 39.75 24.0408 39.75V35.5833C22.0576 35.5833 20.1654 35.2149 18.4255 34.5446L16.9276 38.4327ZM5.51656 39.4147L16.1854 38.3119L15.7569 34.1673L5.08814 35.2702L5.51656 39.4147ZM5.23931 27.5948L1.83169 33.9021L5.49757 35.8827L8.90518 29.5753L5.23931 27.5948ZM4.24914 19.9583C4.24914 22.1667 4.61161 24.2946 5.28196 26.2834L9.23036 24.9525C8.70269 23.387 8.4158 21.7083 8.4158 19.9583H4.24914ZM24.0408 0.166667C13.1102 0.166667 4.24914 9.0277 4.24914 19.9583H8.4158C8.4158 11.3289 15.4114 4.33333 24.0408 4.33333V0.166667ZM43.8325 19.9583C43.8325 9.0277 34.9714 0.166667 24.0408 0.166667V4.33333C32.6703 4.33333 39.6658 11.3289 39.6658 19.9583H43.8325ZM8.90518 29.5753C9.12817 29.1626 9.43284 28.6314 9.57573 28.07L5.53777 27.0423C5.55473 26.9757 5.56934 26.9615 5.52131 27.0605C5.46776 27.1709 5.38818 27.3192 5.23931 27.5948L8.90518 29.5753ZM5.28196 26.2834C5.39986 26.6332 5.46926 26.8402 5.51437 26.9928C5.56039 27.1486 5.54485 27.1318 5.53777 27.0423L9.69145 26.7136C9.6453 26.1304 9.40801 25.4796 9.23036 24.9525L5.28196 26.2834ZM9.57573 28.07C9.69482 27.602 9.72955 27.195 9.69145 26.7136L5.53777 27.0423C5.53967 27.0663 5.53961 27.0745 5.53959 27.0718C5.53958 27.0705 5.53959 27.0668 5.53979 27.0614C5.53999 27.0559 5.54036 27.0495 5.54095 27.0426C5.54154 27.0357 5.54226 27.0293 5.54299 27.0239C5.54371 27.0185 5.54432 27.0149 5.54456 27.0135C5.54502 27.011 5.5437 27.019 5.53777 27.0423L9.57573 28.07ZM5.08814 35.2702C4.82862 35.297 4.62528 35.3179 4.4511 35.333C4.27559 35.3481 4.16629 35.3538 4.09618 35.3547C4.02275 35.3555 4.04375 35.3499 4.11682 35.3631C4.19989 35.3782 4.36823 35.4207 4.56149 35.5386L2.39167 39.0957C3.06044 39.5037 3.75791 39.5256 4.14488 39.521C4.55482 39.5163 5.04918 39.463 5.51656 39.4147L5.08814 35.2702ZM1.83169 33.9021C1.60835 34.3155 1.37017 34.752 1.20901 35.129C1.05687 35.4848 0.810448 36.1376 0.931698 36.9116L5.04815 36.2667C5.08319 36.4903 5.05812 36.6621 5.04026 36.7446C5.02456 36.8172 5.01134 36.8345 5.04021 36.7669C5.06777 36.7025 5.11487 36.6037 5.19597 36.4473C5.27644 36.2921 5.37356 36.1122 5.49757 35.8827L1.83169 33.9021ZM4.56149 35.5386C4.8228 35.698 5.00078 35.9643 5.04815 36.2667L0.931698 36.9116C1.07383 37.8188 1.60775 38.6175 2.39167 39.0957L4.56149 35.5386ZM18.4255 34.5446C18.1401 34.4346 17.7844 34.2917 17.4592 34.2167L16.5234 38.277C16.4759 38.266 16.4668 38.2594 16.5474 38.2884C16.6283 38.3175 16.7381 38.3597 16.9276 38.4327L18.4255 34.5446ZM16.1854 38.3119C16.3574 38.2941 16.4473 38.285 16.5131 38.2799C16.5704 38.2755 16.5603 38.2784 16.5234 38.277L16.6826 34.1133C16.3524 34.1007 16.0154 34.1406 15.7569 34.1673L16.1854 38.3119ZM17.4592 34.2167C17.1904 34.1548 16.9582 34.1239 16.6826 34.1133L16.5234 38.277C16.5365 38.2775 16.5409 38.2779 16.5394 38.2777C16.5373 38.2776 16.5315 38.277 16.5235 38.276C16.5156 38.2749 16.5098 38.2739 16.5078 38.2735C16.5063 38.2733 16.5107 38.274 16.5234 38.277L17.4592 34.2167ZM21.8394 15.446C22.0432 14.8666 22.4455 14.3781 22.975 14.0669L20.8638 10.4747C19.486 11.2844 18.4392 12.5557 17.9089 14.0633L21.8394 15.446ZM22.975 14.0669C23.5045 13.7557 24.1271 13.6419 24.7324 13.7458L25.4368 9.63909C23.8616 9.3689 22.2417 9.66491 20.8638 10.4747L22.975 14.0669ZM24.7324 13.7458C25.3377 13.8496 25.8868 14.1643 26.2823 14.6342L29.4699 11.9508C28.4407 10.7282 27.012 9.90927 25.4368 9.63909L24.7324 13.7458ZM26.2823 14.6342C26.6778 15.104 26.8943 15.6987 26.8934 16.3129L31.0601 16.3191C31.0624 14.7209 30.4991 13.1735 29.4699 11.9508L26.2823 14.6342ZM26.8934 16.316C26.8934 16.7714 26.5243 17.3988 25.4791 18.0956C25.0199 18.4017 24.5459 18.6402 24.1785 18.8035C23.9977 18.8838 23.85 18.9428 23.7523 18.98C23.7037 18.9985 23.668 19.0114 23.6474 19.0188C23.6371 19.0224 23.6307 19.0246 23.6283 19.0254C23.6271 19.0259 23.627 19.0259 23.6279 19.0256C23.6284 19.0254 23.6291 19.0252 23.6301 19.0249C23.6306 19.0247 23.6312 19.0245 23.6318 19.0243C23.6321 19.0242 23.6326 19.024 23.6328 19.0239C23.6333 19.0238 23.6339 19.0236 24.2927 21C24.9515 22.9764 24.9521 22.9762 24.9527 22.976C24.953 22.9759 24.9536 22.9757 24.9541 22.9756C24.955 22.9753 24.956 22.9749 24.957 22.9746C24.9592 22.9739 24.9616 22.973 24.9643 22.9721C24.9697 22.9703 24.9763 22.9681 24.984 22.9654C24.9994 22.9601 25.0192 22.9532 25.0433 22.9447C25.0913 22.9276 25.1562 22.9039 25.2356 22.8737C25.3941 22.8133 25.6123 22.7259 25.8707 22.611C26.3815 22.384 27.0785 22.037 27.7903 21.5624C29.0872 20.6979 31.0601 18.9833 31.0601 16.316H26.8934ZM24.3531 29.3333H24.3739V25.1667H24.3531V29.3333Z" fill="#949494"/>
</svg>
