<svg width="24" height="24" viewBox="0 0 24 24" fill="none" xmlns="http://www.w3.org/2000/svg">
<path d="M6.6364 8.3636C6.28492 8.01213 5.71508 8.01213 5.3636 8.3636C5.01213 8.71508 5.01213 9.28492 5.3636 9.6364L6.6364 8.3636ZM12 15L11.3636 15.6364C11.7151 15.9879 12.2849 15.9879 12.6364 15.6364L12 15ZM18.6364 9.6364C18.9879 9.28492 18.9879 8.71508 18.6364 8.3636C18.2849 8.01213 17.7151 8.01213 17.3636 8.3636L18.6364 9.6364ZM5.3636 9.6364L11.3636 15.6364L12.6364 14.3636L6.6364 8.3636L5.3636 9.6364ZM12.6364 15.6364L18.6364 9.6364L17.3636 8.3636L11.3636 14.3636L12.6364 15.6364Z" fill="#949494"/>
</svg>
