<svg width="20" height="14" viewBox="0 0 20 14" fill="none" xmlns="http://www.w3.org/2000/svg">
<path fill-rule="evenodd" clip-rule="evenodd" d="M17.8153 0.418156C18.6763 0.648636 19.353 1.32526 19.5835 2.18627C20 3.7453 20 7 20 7C20 7 20 10.2547 19.5818 11.8137C19.3513 12.6747 18.6747 13.3514 17.8136 13.5818C16.2545 14 10 14 10 14C10 14 3.74547 14 2.18637 13.5818C1.32532 13.3514 0.648666 12.6747 0.418176 11.8137C0 10.2547 0 7 0 7C0 7 0 3.7453 0.418176 2.18627C0.648666 1.32526 1.32532 0.648636 2.18637 0.418156C3.74547 0 10 0 10 0C10 0 16.2545 0 17.8153 0.418156ZM13.5717 6.99996L7.85742 3.88885V10.1111L13.5717 6.99996Z" fill="#12B370"/>
</svg>
