<svg width="20" height="16" viewBox="0 0 20 16" fill="none" xmlns="http://www.w3.org/2000/svg">
<path fill-rule="evenodd" clip-rule="evenodd" d="M15.1822 15.8686C16.3804 16.3545 16.8297 15.3364 16.8297 15.3364L20 0.573618C19.975 -0.421366 18.5272 0.180252 18.5272 0.180252L0.778531 6.63607C0.778531 6.63607 -0.0702092 6.91374 0.00467962 7.39967C0.0795685 7.88559 0.753568 8.11698 0.753568 8.11698L5.22194 9.50533C5.22194 9.50533 6.56993 13.601 6.84453 14.3877C7.09416 15.1513 7.31882 15.1744 7.31882 15.1744C7.56845 15.267 7.79312 15.105 7.79312 15.105L10.6888 12.6754L15.1822 15.8686ZM15.956 3.18831C15.956 3.18831 16.5801 2.84123 16.5551 3.18831C16.5551 3.18831 16.655 3.23459 16.3305 3.55854C16.0309 3.83621 8.96638 9.71355 8.01779 10.5003C7.9429 10.5466 7.89298 10.616 7.89298 10.7085L7.61839 12.8836C7.56846 13.115 7.24394 13.1381 7.16905 12.9299L5.99579 9.36647C5.94587 9.22763 5.99579 9.06566 6.14557 8.9731L15.956 3.18831Z" fill="#12B370"/>
</svg>
