<svg width="10" height="6" viewBox="0 0 10 6" fill="none" xmlns="http://www.w3.org/2000/svg">
<path d="M1.6364 0.365557C1.28492 0.0140852 0.715076 0.0140852 0.363604 0.365557C0.012132 0.717029 0.012132 1.28688 0.363604 1.63835L1.6364 0.365557ZM5 5.00195L4.3636 5.63835C4.71508 5.98982 5.28492 5.98982 5.6364 5.63835L5 5.00195ZM9.6364 1.63835C9.98787 1.28688 9.98787 0.717029 9.6364 0.365557C9.28492 0.0140852 8.71508 0.0140852 8.3636 0.365557L9.6364 1.63835ZM0.363604 1.63835L4.3636 5.63835L5.6364 4.36556L1.6364 0.365557L0.363604 1.63835ZM5.6364 5.63835L9.6364 1.63835L8.3636 0.365557L4.3636 4.36556L5.6364 5.63835Z" fill="#949494"/>
</svg>
