<svg width="52" height="52" viewBox="0 0 52 52" fill="none" xmlns="http://www.w3.org/2000/svg">
<path d="M1.77709 27.288L2.53415 26.6507L1.77709 27.288L3.2177 28.9993L2.26911 31.0252C1.85652 31.9064 2.13792 32.9566 2.93582 33.5135L3.49964 32.7055L2.93582 33.5135L4.77028 34.7936L4.37835 36.996C4.20788 37.9539 4.75152 38.8956 5.66634 39.2269L7.76962 39.9887L7.96107 42.2174C8.04433 43.1868 8.81316 43.9557 9.78257 44.0389L12.0113 44.2304L12.7731 46.3337C13.1044 47.2485 14.0461 47.7921 15.004 47.6217L17.2064 47.2297L18.4865 49.0642C19.0434 49.8621 20.0936 50.1435 20.9748 49.7309L23.0007 48.7823L24.712 50.2229C25.4564 50.8495 26.5436 50.8495 27.288 50.2229L28.9993 48.7823L31.0252 49.7309C31.9064 50.1435 32.9566 49.8621 33.5135 49.0642L34.7936 47.2297L36.996 47.6217C37.9539 47.7921 38.8956 47.2485 39.2269 46.3337L39.9887 44.2304L42.2174 44.0389C43.1868 43.9557 43.9557 43.1868 44.0389 42.2174L44.2304 39.9887L46.3337 39.2269C47.2485 38.8956 47.7921 37.9539 47.6217 36.996L47.2297 34.7936L49.0642 33.5135C49.8621 32.9566 50.1435 31.9064 49.7309 31.0252L48.7823 28.9993L50.2229 27.288C50.8495 26.5436 50.8495 25.4564 50.2229 24.712L48.7823 23.0007L49.7309 20.9748C50.1435 20.0936 49.8621 19.0434 49.0642 18.4865L47.2297 17.2064L47.6217 15.004C47.7921 14.0461 47.2485 13.1044 46.3337 12.7731L44.2304 12.0113L44.0389 9.78257C43.9557 8.81316 43.1868 8.04433 42.2174 7.96107L39.9887 7.76962L39.2269 5.66635C38.8956 4.75152 37.9539 4.20788 36.996 4.37835L34.7936 4.77028L33.5135 2.93582L32.6934 3.5081L33.5135 2.93582C32.9566 2.13793 31.9064 1.85652 31.0252 2.26911L28.9993 3.2177L27.288 1.77709L26.644 2.54212L27.288 1.77709C26.5436 1.15049 25.4564 1.1505 24.712 1.77709L25.3493 2.53415L24.712 1.77709L23.0007 3.2177L20.9748 2.26911C20.0936 1.85652 19.0434 2.13792 18.4865 2.93582L19.3066 3.5081L18.4865 2.93582L17.2064 4.77028L15.004 4.37835C14.0461 4.20788 13.1044 4.75152 12.7731 5.66634L12.0113 7.76962L9.78257 7.96107C8.81316 8.04433 8.04433 8.81316 7.96107 9.78257L7.76962 12.0113L5.66635 12.7731C4.75152 13.1044 4.20788 14.0461 4.37835 15.004L4.77028 17.2064L2.93582 18.4865L3.5081 19.3066L2.93582 18.4865C2.13793 19.0434 1.85652 20.0936 2.26911 20.9748L3.2177 23.0007L1.77709 24.712L2.54212 25.356L1.77709 24.712C1.15049 25.4564 1.1505 26.5436 1.77709 27.288Z" fill="#12B370" stroke="white" stroke-width="2" stroke-linejoin="round"/>
<path d="M12.7639 30.5548C12.7114 30.2854 12.6559 29.9263 12.5972 29.4776C12.5307 29.0297 12.5005 28.7936 12.5066 28.7696C12.5238 28.6903 12.5249 28.4558 12.5102 28.066C12.4966 27.692 12.4913 27.3759 12.4946 27.1178C12.5014 26.8047 12.4249 26.627 12.2649 26.5849C12.2006 26.5663 12.1646 26.5574 12.1569 26.558C12.1335 26.5599 12.1111 26.5734 12.0895 26.5986C11.9603 26.7494 11.8911 26.8681 11.8823 26.9548C11.8615 27.1907 11.86 27.57 11.8773 28.0922C11.8866 28.3103 11.752 28.6453 11.474 29.0967C11.2585 29.4497 11.0855 29.6898 10.9543 29.8173C10.6327 30.1161 10.3552 30.2745 10.1215 30.2928C10.0435 30.2989 9.98835 30.2956 9.95606 30.2823C9.92367 30.2693 9.86939 30.2267 9.79321 30.1545C9.32818 29.7219 9.10765 29.1572 9.13147 28.4597C9.13894 28.256 9.12421 28.0188 9.0874 27.748C9.05044 27.4774 9.01072 27.3204 8.96818 27.2768C8.89072 27.1891 8.84241 27.2241 8.82369 27.3819C8.81458 27.4686 8.79544 27.5247 8.76619 27.5504C8.68594 27.6271 8.66206 27.8713 8.69431 28.2829C8.68138 28.5164 8.68281 28.7361 8.6987 28.942C8.74255 29.5112 8.89646 29.9749 9.16055 30.3329C9.31964 30.5628 9.45544 30.6967 9.56828 30.7348C9.77801 30.8121 9.93753 30.8465 10.0467 30.838C10.0855 30.835 10.1206 30.8322 10.1518 30.8298C10.292 30.8188 10.4147 30.7856 10.5203 30.7305C11.0097 30.4735 11.4608 29.93 11.874 29.1006C11.9481 28.9464 11.9987 28.8408 12.0256 28.7839L12.2457 30.994C12.2464 31.1034 12.3067 31.3214 12.4263 31.648L12.5265 32.0269C12.5366 32.0575 12.6128 32.1297 12.7551 32.2434C12.9133 32.364 13.0082 32.423 13.0394 32.4205C13.0704 32.4181 13.0884 32.3973 13.0932 32.3577C13.1057 32.3177 13.111 32.2352 13.1091 32.1103C13.1073 32.087 13.1052 32.0598 13.1028 32.0287C13.0894 31.8579 13.0496 31.65 12.9834 31.405C12.8972 31.107 12.8242 30.8237 12.7639 30.5548Z" fill="white"/>
<path d="M17.5784 30.1777C17.5258 29.9084 17.4703 29.5493 17.4117 29.1006C17.3451 28.6527 17.3149 28.4166 17.321 28.3926C17.3426 28.3675 17.3436 28.1329 17.3245 27.689C17.3188 27.3143 17.3134 26.9982 17.3091 26.7407C17.3158 26.4277 17.2392 26.25 17.0792 26.2078C17.015 26.1893 16.9791 26.1804 16.9714 26.181C16.9334 26.1997 16.911 26.2132 16.9039 26.2216C16.7901 26.2696 16.7209 26.3882 16.6967 26.5777C16.6716 26.7595 16.6701 27.1386 16.6917 27.7151C16.7165 28.3307 16.7161 28.7761 16.6906 29.0515C16.6728 29.3266 16.6164 29.6045 16.5208 29.8854C16.4377 30.1264 16.2989 30.4068 16.1047 30.7269C15.9187 31.0541 15.7454 31.2942 15.5851 31.4475C15.3677 31.6755 15.1773 31.7959 15.0137 31.8087C14.9357 31.8148 14.8806 31.8115 14.8483 31.7983C14.8158 31.7852 14.7616 31.7426 14.6854 31.6704C14.4064 31.4109 14.1859 30.846 14.0236 29.9756C13.9669 29.6518 13.9366 29.4158 13.9329 29.2676C13.9208 29.1123 13.925 28.7173 13.9458 28.0826C13.9534 27.8789 13.9387 27.6417 13.9019 27.371C13.8648 27.1004 13.8252 26.9433 13.7826 26.8997C13.7135 26.8193 13.6654 26.8543 13.638 27.0048C13.6362 27.0831 13.6172 27.1394 13.5807 27.1734C13.5003 27.2501 13.4766 27.4942 13.5088 27.9059C13.5252 28.1156 13.52 28.2996 13.4933 28.4581C13.4507 28.6178 13.4528 28.9927 13.4991 29.5829C13.5447 30.1654 13.6041 30.5752 13.6776 30.8115C13.8069 31.2626 13.9557 31.6103 14.1238 31.855C14.2635 32.0395 14.3994 32.1734 14.5315 32.2568C14.655 32.3332 14.8144 32.3676 15.0098 32.36C15.0488 32.357 15.0837 32.3542 15.1151 32.3518C15.2552 32.3408 15.378 32.3077 15.4835 32.2525C15.9865 31.971 16.4376 31.4276 16.8372 30.6226C16.9113 30.4685 16.9618 30.3629 16.9888 30.3059C17.023 30.4439 17.0468 30.5476 17.0602 30.6169C17.1257 30.8541 17.1858 31.0721 17.2407 31.2709L17.3409 31.6499C17.3427 31.6732 17.4189 31.7454 17.5695 31.8664C17.7278 31.987 17.8225 32.0459 17.8538 32.0435C17.8849 32.0411 17.9028 32.0202 17.9076 31.9806C17.9202 31.9406 17.9254 31.8581 17.9236 31.7332C17.9218 31.7099 17.9197 31.6827 17.9172 31.6517C17.9038 31.4809 17.864 31.273 17.7978 31.028C17.7117 30.7299 17.6385 30.4466 17.5784 30.1777Z" fill="white"/>
<path d="M36.5258 22.8274C36.5615 22.8146 36.5899 22.7991 36.6104 22.7805C36.6442 22.7497 36.652 22.7222 36.6348 22.6983C36.6219 22.65 36.5005 22.6004 36.2713 22.5495C35.8883 22.4588 35.2388 22.2601 34.3241 21.9533C33.5878 21.7046 33.0185 21.5227 32.6178 21.4079C31.5552 21.1157 30.3193 20.7416 28.9102 20.2852C28.1521 20.0352 27.5137 19.8158 26.9914 19.6257C27.2497 19.4779 27.4244 19.3534 27.5145 19.2521C27.5722 19.1859 27.6008 19.1112 27.6003 19.0285C27.6111 18.9971 27.614 18.9684 27.6082 18.9428C27.5985 18.9002 27.5747 18.8765 27.5372 18.8711C27.4768 18.8465 27.3406 18.89 27.129 19.0013C26.7694 19.1833 26.1118 19.4614 25.1569 19.8348C24.5029 20.0889 23.9843 20.2986 23.5989 20.4645C23.5952 20.3421 23.5902 20.2293 23.5838 20.1287L23.543 19.4436C23.2972 19.1084 23.0442 19.4827 23.0442 19.4827L23.0463 20.212C23.0425 20.2773 23.0387 20.3466 23.035 20.4204C23.0276 20.5271 23.0204 20.6283 23.0136 20.7269C22.0556 21.1576 20.9388 21.6304 19.6626 22.1449C18.2072 22.7227 17.1378 23.1136 16.4543 23.3175C16.2958 23.3607 16.1642 23.3974 16.0573 23.4282C15.9938 23.4566 15.8508 23.4908 15.8476 23.4913C15.8245 23.4987 14.8894 23.7755 14.8745 23.7833C14.8746 23.7936 14.556 23.9132 13.9739 24.0815C12.1962 24.6072 11.1369 24.9622 10.7956 25.147C10.6515 25.2346 10.5863 25.3084 10.5999 25.3679C10.6246 25.3962 10.6671 25.4226 10.7274 25.4472C10.7692 25.4695 11.2273 25.3587 12.102 25.1146C14.0621 24.5892 16.2017 23.9685 16.2728 23.9618C16.4812 23.9159 17.0838 23.7173 18.0799 23.366C19.0617 23.0292 19.8629 22.7422 20.4835 22.5048C21.4616 22.1177 22.2852 21.7829 22.9585 21.4993C22.9103 22.1603 22.8826 22.4957 22.8756 22.5044C22.8731 22.5046 22.8751 23.2525 22.884 23.2604C22.896 23.2715 22.8928 23.3019 22.8741 23.3513C22.8516 23.4971 22.8679 23.9221 22.923 24.6263C22.966 25.3197 23.0159 25.8862 23.0731 26.3258C23.3042 27.8329 23.5072 28.8318 23.6814 29.3226C23.7393 29.4863 23.7962 29.7039 23.8514 29.9758C24.0236 30.7309 24.2118 31.1842 24.4163 31.3365C24.4762 31.3796 24.5573 31.4033 24.6595 31.4074C24.6942 31.4165 24.7284 31.4201 24.7622 31.4174C24.8183 31.413 24.8567 31.3978 24.8775 31.3724C24.9309 31.3322 24.9289 31.2361 24.8719 31.0847C24.7838 30.8276 24.6905 30.3603 24.5923 29.6834C24.5156 29.1373 24.4434 28.7224 24.3761 28.4395C24.1822 27.698 23.9996 26.8116 23.8283 25.7802C23.6681 24.7482 23.5918 23.9916 23.5996 23.5105C23.6065 23.3991 23.6112 23.3067 23.6137 23.2315C23.6028 23.1862 23.615 23.0861 23.6156 23.0838C23.6152 23.0676 23.6146 23.0527 23.6137 23.0409C23.6187 23.0395 23.6021 22.397 23.597 22.3939C23.5847 22.3831 23.5852 22.1728 23.5985 21.7633C23.6026 21.5704 23.605 21.3909 23.6061 21.2219C24.0746 21.0174 24.4399 20.8479 24.7006 20.714C24.9295 20.5966 25.2349 20.4565 25.6175 20.294C25.8918 20.1735 26.1369 20.0612 26.3539 19.9565C26.5005 20.0122 26.6599 20.0722 26.8334 20.137C27.7301 20.4804 28.4732 20.7535 29.0628 20.956C31.1084 21.6326 32.499 22.0557 33.2345 22.2258C33.4798 22.2825 33.7916 22.3683 34.1701 22.4836C35.2345 22.7939 35.933 22.9372 36.2667 22.9135C36.3626 22.9058 36.4492 22.8772 36.5258 22.8274Z" fill="white"/>
<path d="M28.9637 29.1325C28.944 29.3843 28.8517 29.6532 28.686 29.9397C28.5069 30.2585 28.2403 30.4552 27.8858 30.5299C27.7627 30.563 27.6468 30.5838 27.5378 30.5923C27.3196 30.6094 27.118 30.5861 26.9328 30.5225C26.6514 30.4351 26.3845 30.2294 26.1319 29.9053C25.9218 29.6249 25.7722 29.3161 25.6831 28.9792C25.6578 28.8563 25.6401 28.7287 25.6297 28.5966C25.6194 28.4646 25.6161 28.3242 25.6202 28.1753C25.6533 27.7976 25.698 27.5167 25.7541 27.3325C25.8102 27.1484 25.9238 26.9482 26.095 26.7314C26.281 26.5058 26.4454 26.3523 26.5879 26.2708C26.731 26.1972 26.9584 26.148 27.27 26.1236C27.4018 26.1056 27.5029 26.0936 27.573 26.0882C27.6137 26.1083 27.6503 26.1252 27.6827 26.1381C27.7228 26.1507 27.772 26.1781 27.8303 26.2204C28.0638 26.4992 28.302 26.8399 28.5451 27.2428C28.6363 27.4077 28.7014 27.5354 28.7399 27.6262C28.77 27.7098 28.8045 27.8516 28.8437 28.0517C28.9052 28.3361 28.9439 28.5793 28.9597 28.7811C28.9706 28.921 28.9718 29.0381 28.9637 29.1325ZM28.509 26.1789C28.3985 26.0703 28.2406 25.9578 28.0357 25.8409C27.8311 25.732 27.6566 25.6557 27.5122 25.6123C27.4157 25.5808 27.2778 25.572 27.0986 25.586C27.0752 25.5879 27.0518 25.5897 27.0286 25.5915C26.8883 25.6025 26.7799 25.6227 26.7041 25.6521C26.5363 25.7121 26.454 25.7617 26.457 25.8005C26.4595 25.8316 26.422 25.8541 26.3447 25.8678C26.2219 25.9009 26.062 26.0112 25.8651 26.1984C25.6681 26.3858 25.5246 26.5574 25.435 26.7127C25.1599 27.2033 25.0535 27.8446 25.1156 28.6369C25.1524 29.0091 25.2008 29.2749 25.2603 29.4343C25.6334 30.296 26.2133 30.8445 26.9999 31.0799C27.1767 31.1364 27.4061 31.1614 27.6878 31.1549C27.7578 31.1494 27.8279 31.1439 27.898 31.1384C28.0849 31.1238 28.2473 31.0956 28.3852 31.0534C29.0633 30.805 29.4549 30.3014 29.5601 29.5429C29.5727 29.4013 29.5685 29.1985 29.5478 28.9344C29.5423 28.8644 29.5363 28.7868 29.5296 28.7013C29.4919 28.3215 29.4325 28.0135 29.3513 27.7775C29.119 27.0143 28.8382 26.4813 28.509 26.1789Z" fill="white"/>
<path d="M33.3952 28.1973C33.394 28.1809 33.3929 28.1659 33.3917 28.1495C33.3914 28.1462 33.3909 28.1422 33.3906 28.139C33.3918 28.1539 33.3933 28.1731 33.3952 28.1973Z" fill="white"/>
<path d="M30.3288 28.3907C30.3276 28.3742 30.3264 28.3591 30.3252 28.3427C30.325 28.3395 30.3245 28.3356 30.3242 28.3324C30.3254 28.3472 30.3269 28.3665 30.3288 28.3907Z" fill="white"/>
<path d="M34.115 29.6062C34.0878 29.3583 34.0533 29.1187 34.0117 28.8876C33.8602 28.0554 33.7708 27.5154 33.7437 27.2674C33.731 27.2059 33.7226 27.148 33.7183 27.0936C33.6484 26.2015 33.5915 25.5702 33.5474 25.1981C33.5499 25.1842 33.5525 25.1712 33.5553 25.1605C33.5609 25.0943 33.5497 25.0457 33.5234 25.0128C33.521 24.9958 33.5186 24.9791 33.5162 24.9641C33.5132 24.9254 33.4533 24.9105 33.3364 24.9197C33.3208 24.9209 33.309 24.9218 33.3014 24.9224C33.2975 24.9227 33.2944 24.9233 33.2907 24.9237C33.151 24.9061 32.955 24.9095 32.7027 24.9341C32.3515 24.9539 32.0539 24.9576 31.81 24.9454C31.581 24.9243 31.2793 24.9245 30.9048 24.9459C30.8346 24.9514 30.7645 24.9569 30.6944 24.9624C30.4374 24.9826 30.2707 25.0074 30.1946 25.0368C30.0809 25.0849 30.001 25.1692 29.9558 25.2899C29.9217 25.3553 29.9069 25.415 29.9111 25.4693C29.9136 25.5004 29.9236 25.5309 29.9417 25.5607C29.9605 25.5819 29.9977 25.5954 30.0522 25.6014C30.0564 26.0977 30.1082 27.0135 30.2077 28.3519C30.2199 28.4928 30.2652 28.7238 30.3441 29.0459C30.3759 29.153 30.4213 29.4307 30.48 29.8793C30.5034 30.0808 30.5411 30.2612 30.5929 30.4214C30.6439 30.5738 30.6889 30.6483 30.728 30.6452C30.7515 30.6434 30.7812 30.6723 30.8171 30.732C30.8616 30.7989 30.9237 30.841 31.0035 30.8581C31.0435 30.8707 31.0792 30.8756 31.1103 30.8731C31.1572 30.8695 31.1912 30.8551 31.2128 30.83C31.2408 30.7888 31.2526 30.7372 31.2477 30.6748C31.2434 30.6206 31.2104 30.4981 31.1483 30.3075C31.1068 30.178 31.0738 30.0086 31.0498 29.7994C31.0224 29.5516 30.988 29.312 30.9465 29.0807C30.7949 28.2487 30.7057 27.7087 30.6785 27.4606C30.6658 27.3991 30.6574 27.3412 30.6531 27.2868C30.5899 26.479 30.5372 25.8857 30.4951 25.5043C30.5924 25.4854 30.7261 25.4713 30.8981 25.4623C31.1948 25.4469 31.4419 25.451 31.6398 25.4746C32.0667 25.5193 32.3387 25.5411 32.4562 25.5395C32.4717 25.5383 32.4833 25.5374 32.4912 25.5368C32.6063 25.5278 32.816 25.4946 33.1176 25.4378C33.1237 25.9407 33.1754 26.8473 33.2729 28.1588C33.2851 28.2997 33.3304 28.5306 33.4093 28.8527C33.4412 28.9596 33.4865 29.2375 33.5452 29.6861C33.5687 29.8875 33.6063 30.0681 33.6581 30.2281C33.7092 30.3805 33.7543 30.455 33.7933 30.452C33.8167 30.4501 33.8463 30.4792 33.8824 30.5388C33.9267 30.6057 33.9889 30.6477 34.0685 30.6649C34.1087 30.6776 34.1444 30.6823 34.1756 30.6799C34.2223 30.6762 34.2565 30.6619 34.2781 30.6367C34.306 30.5955 34.3179 30.5439 34.313 30.4816C34.3088 30.4274 34.2755 30.305 34.2136 30.1143C34.172 29.9848 34.1392 29.8153 34.115 29.6062Z" fill="white"/>
<path d="M38.3195 25.6584C38.3299 25.7904 38.3158 26.0612 38.2773 26.4705C38.2389 26.8799 38.2134 27.1553 38.201 27.297C38.1311 27.9044 37.9748 28.4127 37.7326 28.8225C37.4976 29.2238 37.1847 29.4828 36.7941 29.5993C36.5334 29.6745 36.3098 29.7192 36.1227 29.7339C35.8919 29.6895 35.709 29.6063 35.5742 29.4839C35.3887 29.3186 35.2891 29.1468 35.2751 28.968C35.2672 28.8671 35.2752 28.7218 35.2997 28.5324C35.3161 28.3435 35.3424 28.2283 35.3785 28.1863C35.397 28.1223 35.4303 28.0494 35.4788 27.9674C35.5044 27.8951 35.5393 27.7909 35.5837 27.6544C35.604 27.6138 35.647 27.5129 35.7126 27.3512C35.7702 27.1827 35.8113 27.0583 35.8363 26.9782L36.081 26.3494C36.1323 26.2048 36.1928 26.0751 36.2622 25.9601C36.3315 25.8454 36.4101 25.7492 36.4983 25.672C36.6652 25.5027 36.8943 25.3754 37.1856 25.2899C37.3155 25.2486 37.439 25.2232 37.5558 25.2141C37.6803 25.2043 37.7987 25.2147 37.911 25.2449C38.0308 25.2746 38.1248 25.3259 38.1933 25.3985C38.2766 25.4623 38.3181 25.5412 38.3177 25.635C38.3183 25.6429 38.3189 25.6506 38.3195 25.6584ZM39.3423 29.259C39.2178 28.9718 39.117 28.585 39.0398 28.0988C38.9623 27.6125 38.9343 27.1536 38.9554 26.7221C38.964 26.4324 38.9593 26.1708 38.9411 25.9378C38.9299 25.6965 38.9122 25.569 38.8876 25.5552C38.8629 25.5416 38.8451 25.4647 38.8342 25.3249C38.8245 25.2007 38.7778 25.1066 38.6946 25.0428C38.6117 24.9868 38.4856 24.9263 38.3159 24.8614C38.0645 24.7563 37.7872 24.7153 37.4833 24.7391C37.3197 24.7519 37.1496 24.781 36.9728 24.826C36.3438 25.0003 35.8297 25.4939 35.431 26.3065C35.3097 26.5584 35.1654 26.9175 34.9981 27.3838C34.8224 27.843 34.7244 28.1437 34.7043 28.286C34.6777 28.546 34.6728 28.7848 34.6899 29.0021C34.7033 29.1731 34.7313 29.3312 34.774 29.4762C34.8815 29.7491 34.9759 29.9527 35.057 30.0871C35.1381 30.2214 35.2837 30.3312 35.4943 30.4162C35.5836 30.4561 35.66 30.4815 35.7236 30.492C35.7786 30.4956 35.8881 30.4909 36.0517 30.4781C36.3009 30.4585 36.5205 30.4101 36.7105 30.3326C37.1572 30.1336 37.4968 29.9155 37.7292 29.6784C37.9614 29.4416 38.1795 29.1236 38.3834 28.7245C38.3898 28.7085 38.3968 28.6963 38.404 28.6877C38.465 28.5657 38.4973 28.5281 38.5009 28.5747C38.5034 28.6058 38.5272 28.7602 38.5725 29.038C38.6399 29.4002 38.7759 29.6825 38.9798 29.8852C39.176 30.0888 39.3337 30.1506 39.4529 30.0709C39.4901 30.0446 39.5112 30.0156 39.5167 29.9839C39.5161 29.9762 39.5151 29.9646 39.5139 29.949C39.5103 29.9022 39.5014 29.8405 39.4876 29.7634C39.4592 29.6016 39.4107 29.4335 39.3423 29.259Z" fill="white"/>
<path d="M43.7425 28.0434C43.7327 28.1223 43.7103 28.2334 43.6745 28.3768C43.5927 28.6335 43.5005 28.8087 43.3982 28.9026C43.2881 28.9973 43.082 29.068 42.78 29.1152C42.726 29.1272 42.6717 29.1354 42.6173 29.1396C42.3445 29.161 42.0784 29.1155 41.8188 29.0028C41.6796 28.9278 41.5346 28.8259 41.3834 28.697C41.2237 28.5612 41.0983 28.4107 41.0071 28.2458C40.9266 28.1194 40.8473 27.9577 40.7692 27.7604C40.6916 27.5712 40.6502 27.4415 40.6448 27.3716C40.6399 27.3096 40.6164 27.2607 40.5745 27.2249C40.5499 27.2111 40.5342 27.1616 40.5275 27.076C40.522 27.0062 40.5223 26.9123 40.529 26.7946C40.5484 26.5431 40.5767 26.3533 40.6137 26.2252C40.6966 25.8829 40.8082 25.6083 40.949 25.402C40.9908 25.3361 41.0948 25.2147 41.2614 25.0375C41.4283 24.8682 41.5457 24.7652 41.6134 24.7286C41.7493 24.6633 41.8945 24.6168 42.0492 24.5889C42.0726 24.587 42.0959 24.5852 42.1193 24.5834C42.2355 24.5666 42.3426 24.5817 42.4404 24.6286C42.5458 24.6752 42.666 24.7595 42.8011 24.8816C42.9787 25.0477 43.0918 25.1912 43.1405 25.3123C43.2763 25.544 43.4006 25.882 43.5139 26.3264C43.6192 26.7714 43.6891 27.2114 43.7231 27.6463C43.7377 27.8327 43.744 27.9653 43.7425 28.0434ZM44.36 28.0093L44.3333 27.6697C44.3048 27.4132 44.2553 27.1199 44.1851 26.7895C44.0204 25.9897 43.8255 25.4033 43.6005 25.0301C43.5104 24.8809 43.3639 24.7127 43.1612 24.5253C42.9591 24.3458 42.7928 24.2259 42.6626 24.1657C42.5331 24.1134 42.3544 24.0844 42.1268 24.0787C42.0404 24.0779 41.9623 24.0799 41.8922 24.0854C41.7753 24.0945 41.6787 24.1138 41.6027 24.1432C41.5494 24.1631 41.4782 24.2039 41.389 24.2655C41.2998 24.3273 41.2413 24.3826 41.2139 24.4316C41.1988 24.4407 41.1437 24.488 41.0486 24.5736C40.8127 24.764 40.629 25.0207 40.4976 25.3435C40.485 25.3837 40.4754 25.4117 40.4689 25.4277C40.4532 25.429 40.4318 25.2549 40.4045 24.9053C40.382 24.6181 40.3706 24.4235 40.3705 24.3218C40.3016 24.343 40.2515 24.3546 40.2204 24.357C40.1731 24.3531 40.1305 24.3602 40.0928 24.3788C40.0473 24.3981 40.0223 24.4312 40.0183 24.4784C39.9999 24.644 39.9842 24.7938 39.9711 24.9276C39.9373 25.2976 39.9318 25.8763 39.9543 26.6638C39.9669 27.2254 39.9904 27.7238 40.0245 28.1588C40.0385 28.3375 40.0554 28.5041 40.0754 28.6588C40.1977 29.8215 40.3096 30.5981 40.4108 30.9888C40.4678 31.2187 40.5124 31.438 40.5446 31.6465C40.5849 31.862 40.6386 31.9984 40.7059 32.0558C40.7976 32.1266 40.8826 32.1592 40.9606 32.1531C41.0461 32.1464 41.1213 32.1053 41.1859 32.0299C41.2337 31.9401 41.2423 31.7988 41.2115 31.6059C41.1813 31.4207 41.1325 31.1978 41.0651 30.9375C40.9898 30.6776 40.9215 30.304 40.8597 29.8166C40.7963 29.3057 40.7542 29.0198 40.7337 28.9589C40.7132 28.898 40.7073 28.8712 40.7157 28.8783C40.7318 28.8849 40.787 28.9391 40.8813 29.0411C41.0564 29.2776 41.318 29.4641 41.6657 29.601C42.0064 29.7463 42.348 29.8054 42.6909 29.7785C43.0569 29.7498 43.3708 29.655 43.6327 29.4938C43.8135 29.4016 43.9636 29.2685 44.0834 29.0951C44.2109 28.9209 44.2942 28.7348 44.3335 28.5362C44.3597 28.3914 44.3685 28.2158 44.36 28.0093Z" fill="white"/>
<path d="M22.243 13.7932C22.1772 13.1454 22.4102 12.5987 22.5133 12.3938C22.5887 12.2443 22.6585 12.1582 22.726 12.0748C22.7865 12.0003 22.8437 11.9298 22.8936 11.8275C22.9634 11.6845 23.0156 11.5411 23.0557 11.3991C23.0606 11.4077 23.0646 11.4148 23.0694 11.4236C23.2883 11.8094 23.5881 12.3377 23.5544 12.8034C23.5239 13.2239 23.4002 13.4651 23.2571 13.7443C23.1097 14.0318 22.9426 14.3576 22.8471 14.9343C22.7599 15.4614 22.6404 16.1833 22.9769 16.9034C23.029 17.0144 23.0803 17.1017 23.1301 17.1862C23.2162 17.3322 23.2905 17.4583 23.3425 17.6712C23.431 18.034 23.3992 18.4297 23.2488 18.8474C22.8268 18.4005 22.5827 17.9338 22.5247 17.4595C22.4894 17.1722 22.532 16.9839 22.5858 16.7454C22.6397 16.5066 22.7007 16.2359 22.7049 15.7974C22.7085 15.4203 22.714 14.8503 22.4659 14.2519C22.3949 14.0806 22.3186 13.9438 22.2394 13.8289C22.2422 13.8174 22.2442 13.8056 22.243 13.7932ZM19.3967 9.96835C20.0027 10.2932 20.4301 10.7158 20.6671 11.2242C20.7937 11.4957 20.8141 11.6821 20.8357 11.8793C20.8594 12.0949 20.8838 12.3179 21.0329 12.6582C21.234 13.1178 21.462 13.3308 21.6823 13.5367C21.8942 13.7346 22.0943 13.9215 22.2655 14.3345C22.4967 14.8924 22.4918 15.4143 22.4882 15.7955C22.4841 16.2111 22.4258 16.4698 22.3742 16.6981C22.3182 16.9467 22.2697 17.1614 22.3094 17.486C22.3739 18.0115 22.6408 18.5238 23.1028 19.0087C23.1262 19.0333 23.1584 19.0445 23.19 19.042C23.2138 19.0402 23.2373 19.0304 23.2561 19.0126C23.2672 19.0022 23.2754 18.9899 23.281 18.9767C23.29 18.9838 23.2993 18.9906 23.3106 18.9947C23.3257 19.0001 23.3411 19.002 23.356 19.0009C23.3971 18.9976 23.4346 18.971 23.4496 18.9299C23.6178 18.4682 23.6526 18.0275 23.5532 17.62C23.4937 17.3761 23.4078 17.2306 23.3171 17.0765C23.2699 16.9965 23.2211 16.9137 23.1736 16.812C22.8652 16.1526 22.9738 15.4965 23.0612 14.969C23.1511 14.426 23.3031 14.1294 23.4501 13.8426C23.5976 13.5549 23.737 13.2832 23.7705 12.8188C23.8091 12.288 23.4906 11.7268 23.2582 11.3171C23.2057 11.2246 23.1602 11.144 23.126 11.076C23.2206 10.4591 23.0924 9.90043 22.9829 9.57034C22.9641 9.51359 22.9027 9.48295 22.8459 9.50173C22.7891 9.52047 22.7582 9.58166 22.777 9.63831C22.9197 10.0683 23.0992 10.9122 22.6987 11.7329C22.6596 11.8131 22.6122 11.8715 22.5575 11.939C22.4862 12.0269 22.4054 12.1265 22.3197 12.2969C22.1988 12.5367 22.015 12.9951 22.0148 13.5576C21.9534 13.4942 21.8918 13.436 21.8307 13.3789C21.6169 13.1791 21.4149 12.9905 21.2315 12.5716C21.0958 12.2615 21.0733 12.0552 21.0513 11.8557C21.0286 11.6498 21.0054 11.4368 20.8638 11.133C20.6066 10.5812 20.1476 10.1254 19.4995 9.77787C19.4804 9.76772 19.4597 9.76376 19.4398 9.76533C19.4042 9.76805 19.3708 9.78826 19.3527 9.82193C19.3242 9.87453 19.3439 9.9401 19.3967 9.96835Z" fill="white"/>
<path d="M22.4653 29.2662C22.41 29.2705 22.3661 29.3295 22.3354 29.4396C22.3168 29.5135 22.29 29.5962 22.2549 29.6872C22.2199 29.7781 22.1765 29.8776 22.1251 29.9852C22.0427 30.2195 21.9218 30.4618 21.7475 30.6681C21.6893 30.7369 21.6252 30.8016 21.5544 30.861C21.0667 31.2379 20.4826 31.4028 19.9759 31.0769C19.9131 31.0459 19.8509 31.0109 19.7891 30.9714C19.7272 30.932 19.666 30.8883 19.6052 30.8403C19.3732 30.6425 19.198 30.4363 19.0864 30.2304C18.9545 30.0122 18.8879 29.7491 18.8887 29.4482C18.8898 29.1545 18.932 28.8229 19.0141 28.4639C19.0776 28.1573 19.1797 27.8638 19.3178 27.5909C19.3867 27.4587 19.4444 27.3608 19.4891 27.2995C19.5374 27.2339 19.6338 27.156 19.7853 27.0607C20.0031 26.9301 20.2682 26.8517 20.5715 26.828C20.5715 26.8279 20.6144 26.8237 20.6356 26.822C20.9138 26.8002 21.162 26.8307 21.3804 26.9155C21.5154 26.9857 21.6491 27.077 21.7798 27.1883C21.9132 27.3098 22.0079 27.4417 22.0598 27.5769C22.1281 27.7306 22.1766 27.7571 22.1818 27.7594C22.2125 27.7656 22.2517 27.767 22.2988 27.7633C22.3176 27.7618 22.3372 27.7595 22.358 27.7566C22.3832 27.727 22.3991 27.6915 22.4066 27.6474C22.4166 27.5981 22.4188 27.5371 22.4133 27.4662C22.4094 27.416 22.3719 27.3085 22.2159 27.0816C22.0861 26.8931 21.9614 26.7364 21.8487 26.6195C21.6156 26.4141 21.328 26.2852 20.9966 26.2368C20.8746 26.2237 20.7365 26.2231 20.5857 26.2349C20.4337 26.2468 20.2684 26.2714 20.0975 26.3074C19.8004 26.3836 19.5599 26.4899 19.3845 26.6221C19.1347 26.823 18.9171 27.0939 18.7382 27.4256C18.5655 27.768 18.4394 28.1466 18.3641 28.5477C18.3351 28.7634 18.335 29.0584 18.3637 29.4245L18.3746 29.5643C18.3955 29.8307 18.4321 30.0518 18.4825 30.2189C18.5517 30.4193 18.6546 30.6401 18.7874 30.8734C19.0557 31.318 19.4692 31.6134 20.0157 31.7512C20.255 31.808 20.4947 31.8276 20.7284 31.8093C20.8596 31.799 20.9903 31.7769 21.115 31.7407C21.2285 31.6945 21.3353 31.6506 21.4344 31.6056C21.7972 31.4188 22.016 31.1636 22.2113 30.9007C22.283 30.782 22.342 30.6566 22.3956 30.5306C22.4112 30.4869 22.4257 30.4431 22.4395 30.3991C22.4902 30.2364 22.5335 30.0713 22.5869 29.9093C22.6269 29.7882 22.7554 29.6034 22.7479 29.4776C22.739 29.4381 22.7197 29.406 22.6889 29.3797C22.5725 29.2806 22.503 29.2632 22.4653 29.2662Z" fill="white"/>
</svg>
