<svg width="373" height="285" viewBox="0 0 373 285" fill="none" xmlns="http://www.w3.org/2000/svg">
<path d="M27.6643 13.8039C25.6582 19.7018 24.9603 26.7074 27.6673 32.4673C27.9776 33.1233 28.4016 33.7895 28.8644 34.4444C31.5736 33.7963 34.1607 33.6248 36.7476 33.9103C38.9687 34.1612 41.0616 34.6777 43.047 35.3948C42.8937 34.7326 42.6965 34.0771 42.4552 33.4281C41.4963 30.847 40.2853 28.2416 39.1817 25.6219C40.5385 27.7352 42.433 29.7877 43.5869 31.968C44.3037 33.3302 44.8032 34.765 45.1426 36.2405C48.7279 37.818 52.0005 39.9879 55.1704 42.2601C56.3149 36.3425 54.1458 28.7774 51.6729 23.9959C49.0905 19.0025 44.8391 14.8027 40.9068 10.4085C38.4964 7.71783 36.499 4.10673 35.4256 1.03876C35.1818 0.340816 34.2753 0.308004 33.9623 0.983824C32.0145 5.20858 29.1601 9.40053 27.6643 13.8039Z" fill="#0F9960"/>
<path d="M73.9363 55.046C66.6593 53.212 60.7588 48.4241 54.6981 44.0406C51.737 41.9026 48.7366 39.8595 45.5216 38.3114C44.8252 37.9754 44.1101 37.6599 43.3867 37.374C41.2416 36.5206 38.9814 35.9076 36.5675 35.6398C34.3019 35.3857 32.1171 35.5413 30.0013 35.9741C26.6259 36.6683 23.4219 38.0879 20.3204 39.7688C14.6807 42.8132 9.6331 46.9104 5.46669 51.7639C3.77702 53.7327 1.99183 55.7544 0.767788 58.0634C0.500081 58.5753 0.125062 59.1945 0.171977 59.7971C0.228839 60.586 1.36485 60.8652 1.72847 60.1235C4.26546 54.868 9.43382 50.7317 14.7341 48.3296C20.8266 45.5668 27.0614 46.3021 33.172 48.8557C34.7965 49.5333 36.3957 50.2905 37.9969 51.0868C38.0319 51.1002 38.0578 51.1238 38.0836 51.1473C38.3369 51.378 38.111 51.844 37.7406 51.7211C35.6332 51.0234 33.5315 50.3403 31.4511 49.7791C21.2634 47.0287 10.6633 52.5797 13.2631 54.9482C13.475 55.1414 13.7742 55.3113 14.1653 55.453C19.6671 57.4705 24.4463 61.7968 29.589 65.0079C31.395 66.1402 33.2526 67.1328 35.1983 67.8418C42.9305 70.6504 51.0764 69.7865 58.4302 66.5215C63.9154 64.0827 68.9789 59.9161 74.174 56.9235C74.8421 56.5432 74.8771 55.7261 74.4016 55.2929C74.2876 55.1795 74.1305 55.0924 73.9363 55.046Z" fill="#0F9960"/>
<path d="M280.542 209.507C284.027 216.586 289.676 223.485 297.258 226.219C298.124 226.528 299.1 226.745 300.101 226.917C301.947 223.911 304.11 221.44 306.683 219.379C308.896 217.615 311.233 216.203 313.653 215.067C312.923 214.611 312.159 214.201 311.362 213.836C308.192 212.383 304.774 211.134 301.44 209.777C304.547 210.454 308.082 210.596 311.068 211.515C312.93 212.093 314.662 212.93 316.287 213.948C320.911 212.15 325.785 211.162 330.658 210.358C326.384 204.034 317.667 199.202 311.17 197.134C304.386 194.975 296.817 195.021 289.36 194.608C284.792 194.357 279.77 192.911 276.061 191.125C275.218 190.719 274.376 191.501 274.701 192.387C276.74 197.914 277.938 204.225 280.542 209.507Z" fill="#0F9960"/>
<path d="M358.914 205.003C350.755 209.877 341.183 210.874 331.83 212.376C327.263 213.113 322.747 213.97 318.481 215.463C317.557 215.786 316.634 216.144 315.73 216.535C313.045 217.692 310.472 219.167 308.07 221.089C305.814 222.891 303.996 224.986 302.489 227.269C300.088 230.913 298.49 235.054 297.218 239.337C294.894 247.114 294.043 255.303 294.658 263.381C294.908 266.657 295.12 270.066 296.091 273.23C296.31 273.928 296.529 274.819 297.11 275.316C297.868 275.972 299.135 275.205 298.796 274.215C296.362 267.236 297.286 258.904 299.882 252.006C302.863 244.076 309.106 239.151 316.865 235.965C318.926 235.117 321.036 234.363 323.183 233.643C323.227 233.623 323.271 233.621 323.315 233.619C323.749 233.599 323.964 234.218 323.522 234.44C321.01 235.703 318.516 236.973 316.15 238.333C304.564 244.994 300.042 259.458 304.491 259.251C304.854 259.234 305.274 259.118 305.751 258.895C312.485 255.774 320.64 255.369 328.121 253.639C330.752 253.036 333.305 252.261 335.682 251.153C345.122 246.744 351.643 238.676 355.305 229.166C358.033 222.07 358.836 213.804 360.808 206.472C361.066 205.533 360.366 204.77 359.552 204.807C359.348 204.808 359.13 204.871 358.914 205.003Z" fill="#0F9960"/>
</svg>
