<svg width="20" height="20" viewBox="0 0 20 20" fill="none" xmlns="http://www.w3.org/2000/svg">
<path fill-rule="evenodd" clip-rule="evenodd" d="M8.63373 19.223C3.7828 18.7211 0 14.6209 0 9.63731C0 4.31477 4.31477 0 9.63731 0C14.6209 0 18.7211 3.7828 19.223 8.63373C19.6698 8.74884 20 9.15451 20 9.63731C20 10.9982 19.732 12.3457 19.2112 13.6029C18.6904 14.8602 17.9271 16.0026 16.9648 16.9648C16.0026 17.9271 14.8602 18.6904 13.6029 19.2112C12.3457 19.732 10.9982 20 9.6373 20C9.15451 20 8.74883 19.6698 8.63373 19.223ZM0.621762 9.63731C0.621762 4.65816 4.65816 0.621762 9.63731 0.621762C14.2884 0.621762 18.1168 4.14376 18.6012 8.66623C18.2077 8.81322 17.9275 9.19254 17.9275 9.63731C17.9275 10.726 17.713 11.804 17.2964 12.8098C16.8798 13.8156 16.2691 14.7295 15.4993 15.4993C14.7295 16.2691 13.8156 16.8798 12.8098 17.2964C11.804 17.713 10.726 17.9275 9.63731 17.9275C9.19254 17.9275 8.81322 18.2077 8.66623 18.6012C4.14376 18.1168 0.621762 14.2884 0.621762 9.63731Z" fill="white"/>
</svg>
