<svg width="100" height="68" viewBox="0 0 100 68" fill="none" xmlns="http://www.w3.org/2000/svg">
<path d="M11.0227 57.2465C10.935 56.4741 10.8583 55.4474 10.7923 54.167C10.7046 52.8871 10.6717 52.2135 10.6939 52.1471C10.7594 51.9269 10.8139 51.2646 10.8583 50.1604C10.9021 49.1009 10.9568 48.2068 11.0227 47.4785C11.1101 46.5957 10.935 46.0768 10.4965 45.9224C10.3206 45.8558 10.2218 45.8226 10.2002 45.8226C10.1343 45.8226 10.0686 45.8558 10.0028 45.9224C9.60808 46.3196 9.38851 46.6397 9.34477 46.8826C9.23479 47.5445 9.14742 48.6155 9.08147 50.0943C9.05965 50.7125 8.60965 51.6289 7.73265 52.8426C7.05232 53.7919 6.51534 54.4319 6.12023 54.7629C5.15478 55.5359 4.34362 55.9219 3.68551 55.9219C3.46604 55.9219 3.31232 55.9003 3.22484 55.8557C3.13707 55.8117 2.99451 55.6794 2.79715 55.4585C1.5906 54.1338 1.09726 52.4897 1.31683 50.5248C1.38239 49.951 1.39315 49.2778 1.34951 48.5048C1.30538 47.7323 1.22867 47.2799 1.11918 47.1474C0.921628 46.8826 0.77877 46.9707 0.691784 47.4122C0.647264 47.6553 0.581415 47.8095 0.49394 47.8757C0.252552 48.0745 0.132198 48.7589 0.132198 49.9288C0.0448211 50.5855 0.000694492 51.2063 9.56357e-06 51.7914C-0.00204522 53.409 0.327011 54.7528 0.987575 55.8225C1.38239 56.5071 1.73307 56.9153 2.0405 57.0479C2.61046 57.3126 3.04931 57.4453 3.35664 57.4453C3.46604 57.4453 3.56486 57.4453 3.65263 57.4453C4.04744 57.4453 4.39813 57.3788 4.70556 57.2465C6.13138 56.6288 7.51308 55.1935 8.85104 52.942C9.09223 52.5229 9.257 52.2357 9.34477 52.0811L9.47628 58.3724C9.45436 58.6816 9.57511 59.3108 9.83832 60.2597L10.0358 61.3523C10.0573 61.4409 10.2546 61.6619 10.6278 62.0144C11.0442 62.3902 11.2968 62.5777 11.3846 62.5777C11.4719 62.5777 11.5271 62.5228 11.549 62.412C11.5927 62.3017 11.6256 62.0698 11.6479 61.7167C11.6479 61.6505 11.6479 61.5732 11.6479 61.4849C11.6479 60.9995 11.582 60.4035 11.4505 59.6968C11.2746 58.8358 11.1324 58.0194 11.0227 57.2465Z" fill="#2E2E2E"/>
<path d="M24.5783 57.2465C24.4903 56.4741 24.4136 55.4474 24.348 54.167C24.2599 52.8871 24.227 52.2135 24.2493 52.1471C24.3152 52.0811 24.3696 51.4187 24.4136 50.1604C24.4795 49.1009 24.5339 48.2068 24.5783 47.4785C24.6655 46.5957 24.4903 46.0768 24.0517 45.9224C23.876 45.8558 23.7775 45.8226 23.7558 45.8226C23.6455 45.8672 23.5799 45.9004 23.558 45.9224C23.2292 46.033 23.0096 46.3525 22.9003 46.8826C22.79 47.3905 22.7029 48.4611 22.637 50.0943C22.5712 51.8386 22.4727 53.0967 22.3409 53.869C22.2308 54.642 22.012 55.4146 21.6828 56.1869C21.3975 56.8491 20.9476 57.6106 20.334 58.4716C19.7417 59.3548 19.204 59.9945 18.7219 60.3923C18.0637 60.988 17.5042 61.2861 17.0438 61.2861C16.8242 61.2861 16.6706 61.2645 16.5831 61.2199C16.4949 61.1759 16.3527 61.0436 16.1553 60.8228C15.4313 60.0279 14.9381 58.3836 14.6748 55.8889C14.5871 54.9618 14.554 54.2886 14.5762 53.869C14.5762 53.4276 14.6748 52.3129 14.8721 50.5248C14.9381 49.951 14.9488 49.2778 14.9052 48.5048C14.8608 47.7323 14.7844 47.2799 14.6748 47.1474C14.4988 46.9047 14.3567 46.9932 14.247 47.4122C14.2249 47.633 14.1592 47.7878 14.0496 47.8757C13.8077 48.0745 13.6879 48.7589 13.6879 49.9288C13.6879 50.5248 13.6328 51.0435 13.5234 51.4852C13.3693 51.9269 13.293 52.9865 13.293 54.6638C13.293 56.3193 13.3693 57.4898 13.5234 58.1736C13.7863 59.4766 14.1263 60.4915 14.5433 61.2199C14.8936 61.7719 15.2448 62.1802 15.5961 62.445C15.925 62.6882 16.3636 62.8206 16.9119 62.8424C17.0216 62.8424 17.1201 62.8424 17.2083 62.8424C17.603 62.8424 17.9538 62.7762 18.261 62.6436C19.7303 61.9598 21.112 60.5245 22.4067 58.3392C22.6479 57.9203 22.8122 57.6331 22.9003 57.4782C22.9658 57.8756 23.0096 58.1736 23.0319 58.3724C23.1634 59.0568 23.2836 59.6859 23.3937 60.2597L23.5911 61.3523C23.5911 61.4186 23.7884 61.6394 24.1832 62.0144C24.6 62.3902 24.8521 62.5777 24.9402 62.5777C25.0277 62.5777 25.0824 62.5228 25.1045 62.412C25.1485 62.3017 25.1812 62.0698 25.2035 61.7167C25.2035 61.6505 25.2035 61.5732 25.2035 61.4849C25.2035 60.9995 25.1375 60.4035 25.0061 59.6968C24.8303 58.8358 24.6876 58.0194 24.5783 57.2465Z" fill="#2E2E2E"/>
<path d="M79.2128 40.6768C79.3156 40.6485 79.3986 40.611 79.4599 40.5632C79.5613 40.4837 79.5892 40.4078 79.5461 40.3363C79.5208 40.197 79.1919 40.03 78.5615 39.8356C77.5097 39.4947 75.7357 38.7897 73.2431 37.7208C71.2371 36.8553 69.6838 36.2155 68.5876 35.8025C65.678 34.7421 62.3016 33.4118 58.4583 31.811C56.3915 30.9371 54.6532 30.176 53.2332 29.5236C53.9885 29.1632 54.5047 28.85 54.779 28.584C54.955 28.4097 55.0514 28.2049 55.0681 27.9713C55.1052 27.885 55.1197 27.8045 55.109 27.731C55.0912 27.6086 55.0296 27.5363 54.926 27.5129C54.7623 27.4297 54.3716 27.5226 53.7552 27.7901C52.709 28.2247 50.8077 28.8647 48.0536 29.7081C46.1676 30.2811 44.6706 30.7588 43.5556 31.142C43.572 30.7956 43.5829 30.476 43.5869 30.1903L43.623 28.2462C43.0086 27.2448 42.2184 28.2462 42.2184 28.2462L42.0646 30.3066C42.0396 30.4903 42.0137 30.6852 41.9871 30.8928C41.943 31.1926 41.9008 31.4769 41.86 31.7538C39.0849 32.7585 35.856 33.8468 32.1717 35.0179C27.9721 36.3278 24.8938 37.1953 22.9363 37.6201C22.4833 37.7071 22.1071 37.7816 21.8011 37.8449C21.6172 37.9112 21.2095 37.976 21.2004 37.9768C21.1342 37.9925 18.4568 38.5675 18.4134 38.5862C18.4114 38.6154 17.4935 38.8828 15.8277 39.2295C10.7377 40.3208 7.69543 41.0894 6.69983 41.5358C6.27723 41.7514 6.0787 41.9453 6.10365 42.1165C6.16657 42.2017 6.27968 42.2859 6.44308 42.3688C6.55531 42.4408 7.86138 42.2293 10.3627 41.7333C15.9633 40.6831 22.0867 39.4032 22.2872 39.3999C22.8807 39.3164 24.6103 38.8886 27.4751 38.1169C30.2964 37.3826 32.6014 36.7493 34.3901 36.2159C37.2121 35.3389 39.5904 34.5756 41.5366 33.9234C41.2569 35.7799 41.1059 36.7213 41.0844 36.7441C41.0772 36.7441 40.9189 38.8573 40.942 38.8814C40.9732 38.9155 40.9576 39.0007 40.8945 39.136C40.7995 39.5429 40.7519 40.747 40.7519 42.7485C40.7201 44.7164 40.7356 46.3277 40.7995 47.5821C41.1156 51.8902 41.4647 54.7567 41.8447 56.1817C41.9709 56.657 42.0822 57.2841 42.1772 58.0643C42.4935 60.2353 42.9209 61.5576 43.4599 62.0329C43.618 62.168 43.8398 62.2529 44.1248 62.287C44.2199 62.3204 44.3148 62.3381 44.4101 62.3381C44.5681 62.3381 44.6789 62.3036 44.7426 62.2363C44.9007 62.1347 44.9163 61.8627 44.7901 61.4224C44.5999 60.6767 44.4411 59.3363 44.3148 57.4025C44.2199 55.8429 44.1086 54.6548 43.9822 53.841C43.6024 51.7035 43.2855 49.1593 43.0322 46.2082C42.8102 43.2577 42.7627 41.1035 42.8898 39.7463C42.9337 39.4333 42.9669 39.1732 42.9906 38.9612C42.9699 38.831 43.026 38.5508 43.028 38.5447C43.0307 38.4986 43.0322 38.4564 43.0322 38.4231C43.0464 38.42 43.1409 36.6015 43.1273 36.5918C43.0954 36.5584 43.1429 35.9644 43.2698 34.8107C43.3234 34.2668 43.3696 33.7603 43.4097 33.2832C44.7657 32.8092 45.8251 32.4112 46.584 32.0906C47.2502 31.8098 48.1356 31.4816 49.2418 31.1073C50.0359 30.8276 50.7465 30.5644 51.3767 30.3169C51.7749 30.5066 52.2075 30.7113 52.6791 30.9327C55.1132 32.1012 57.1328 33.0369 58.7382 33.7394C64.3146 36.1033 68.1132 37.6061 70.1343 38.2494C70.8082 38.4638 71.6619 38.7752 72.6959 39.1845C75.6066 40.2965 77.5299 40.8558 78.469 40.8627C78.739 40.8623 78.9875 40.8005 79.2128 40.6768Z" fill="#2E2E2E"/>
<path d="M56.6671 56.8131C56.5568 57.5199 56.2393 58.2592 55.7129 59.0317C55.1418 59.8926 54.3526 60.3894 53.3441 60.5217C52.9925 60.588 52.6637 60.6211 52.3568 60.6211C51.7423 60.6211 51.1831 60.5107 50.6788 60.2899C49.9105 59.981 49.2089 59.341 48.573 58.3694C48.0466 57.5309 47.6956 56.6257 47.5201 55.6542C47.476 55.3014 47.4546 54.937 47.4546 54.5616C47.4546 54.1864 47.476 53.7891 47.5201 53.3694C47.6956 52.3099 47.8823 51.5265 48.0795 51.0186C48.2771 50.511 48.6389 49.9704 49.1653 49.3961C49.7355 48.8 50.2291 48.4028 50.6459 48.2042C51.0624 48.0278 51.7094 47.9392 52.5869 47.9392C52.9595 47.9175 53.2451 47.9061 53.4424 47.9061C53.5521 47.9721 53.6507 48.0278 53.7387 48.0715C53.848 48.1159 53.9798 48.2042 54.1336 48.3365C54.7258 49.1757 55.318 50.1908 55.9099 51.3827C56.1289 51.8686 56.2829 52.2438 56.3708 52.5088C56.4367 52.7517 56.5024 53.1599 56.568 53.7337C56.6777 54.5507 56.7327 55.2462 56.7327 55.8195C56.7327 56.2173 56.7104 56.5484 56.6671 56.8131ZM56.0419 48.3695C55.7565 48.0383 55.3394 47.6856 54.7915 47.3099C54.2429 46.9572 53.7713 46.7031 53.3767 46.5485C53.1136 46.4382 52.7296 46.3828 52.2251 46.3828C52.1593 46.3828 52.0933 46.3828 52.0279 46.3828C51.633 46.3828 51.3252 46.4158 51.1064 46.4822C50.6237 46.6145 50.3826 46.7363 50.3826 46.8466C50.3826 46.935 50.2729 46.9904 50.0535 47.012C49.7025 47.0781 49.2309 47.3543 48.6389 47.8397C48.0466 48.3255 47.6073 48.7783 47.3226 49.1972C46.4453 50.522 46.0068 52.31 46.0068 54.5616C46.0283 55.6212 46.1055 56.3828 46.2372 56.8463C47.0923 59.3627 48.5948 61.0405 50.7446 61.8793C51.2269 62.0781 51.8634 62.1996 52.6531 62.2434C52.8502 62.2434 53.0477 62.2434 53.2451 62.2434C53.7713 62.2434 54.2319 62.1996 54.6271 62.1111C56.579 61.5595 57.7855 60.2236 58.2461 58.1045C58.3123 57.707 58.345 57.1335 58.345 56.3828C58.345 56.1839 58.345 55.9634 58.345 55.7204C58.3228 54.6392 58.2241 53.756 58.0488 53.0715C57.5659 50.8644 56.897 49.2966 56.0419 48.3695Z" fill="#2E2E2E"/>
<path d="M69.2734 55.1524C69.2736 55.106 69.2738 55.0633 69.274 55.0168C69.274 55.0072 69.2734 54.996 69.2734 54.9869C69.2734 55.0292 69.2734 55.0837 69.2734 55.1524Z" fill="#2E2E2E"/>
<path d="M60.6523 55.0202C60.6525 54.9735 60.6527 54.9303 60.6529 54.8839C60.6529 54.8746 60.6523 54.8636 60.6523 54.8545C60.6523 54.8965 60.6523 54.9514 60.6523 55.0202Z" fill="#2E2E2E"/>
<path d="M70.9786 59.2914C70.9566 58.5852 70.9126 57.9007 70.8469 57.2386C70.6054 54.8544 70.4735 53.3094 70.4521 52.6029C70.4299 52.4263 70.4192 52.2609 70.4192 52.1063C70.4192 49.5711 70.3983 47.7752 70.3565 46.7144C70.3664 46.6755 70.3765 46.6395 70.3866 46.6098C70.4168 46.4242 70.3962 46.2845 70.33 46.1856C70.3269 46.137 70.3239 46.0893 70.3205 46.0466C70.3205 45.9364 70.1561 45.8812 69.827 45.8812C69.7829 45.8812 69.7499 45.8812 69.7285 45.8812C69.7175 45.8812 69.7086 45.8822 69.6982 45.8824C69.311 45.8017 68.7619 45.7681 68.0505 45.7818C67.0631 45.76 66.2296 45.7046 65.5497 45.6162C64.9134 45.506 64.0693 45.4398 63.0165 45.4174C62.8189 45.4174 62.6214 45.4174 62.4242 45.4174C61.7003 45.4174 61.2285 45.4505 61.0092 45.5168C60.6803 45.6276 60.4384 45.848 60.2855 46.1789C60.1755 46.3562 60.1211 46.5215 60.1211 46.6757C60.1211 46.7642 60.1425 46.8527 60.1867 46.9407C60.2344 47.0049 60.3357 47.0511 60.4868 47.0801C60.3899 48.4829 60.334 51.0812 60.319 54.8839C60.3225 55.2846 60.3986 55.9472 60.5487 56.8743C60.6142 57.1839 60.6803 57.9785 60.7462 59.2584C60.7677 59.8328 60.8335 60.3509 60.9434 60.8147C61.0527 61.2565 61.1624 61.4769 61.2723 61.4769C61.3385 61.4769 61.4152 61.5652 61.5028 61.7419C61.6125 61.9405 61.7771 62.0731 61.9966 62.1393C62.1059 62.1836 62.2047 62.2053 62.2923 62.2053C62.4242 62.2053 62.5227 62.1722 62.5886 62.106C62.6761 61.9958 62.7202 61.8526 62.7202 61.6754C62.7202 61.5215 62.6545 61.1681 62.5227 60.6158C62.435 60.2409 62.3797 59.7551 62.3583 59.159C62.3361 58.4528 62.2923 57.7685 62.2268 57.106C61.9851 54.7222 61.8537 53.1773 61.832 52.4705C61.8098 52.294 61.7991 52.1283 61.7991 51.9739C61.7991 49.6781 61.7818 47.9904 61.7475 46.9039C62.0241 46.8721 62.4012 46.8619 62.8845 46.8743C63.7181 46.8967 64.4089 46.963 64.9576 47.0732C66.1422 47.2941 66.8987 47.4157 67.2278 47.4373C67.2717 47.4373 67.3042 47.4373 67.3265 47.4373C67.6505 47.4373 68.2445 47.3901 69.1011 47.2964C69.0079 48.7182 68.9539 51.2904 68.9392 55.0167C68.9426 55.4173 69.0187 56.0797 69.1688 57.0069C69.2347 57.316 69.3006 58.1108 69.3664 59.3909C69.3881 59.9651 69.4536 60.4835 69.5635 60.9471C69.6732 61.3889 69.7829 61.6092 69.8928 61.6092C69.9586 61.6092 70.035 61.6978 70.1231 61.8742C70.2324 62.0731 70.3972 62.2053 70.6163 62.2716C70.726 62.3163 70.825 62.3376 70.9126 62.3376C71.0443 62.3376 71.1432 62.3046 71.2089 62.2384C71.2962 62.1283 71.3407 61.9851 71.3407 61.808C71.3407 61.6538 71.2745 61.3007 71.1432 60.7485C71.0549 60.3733 71.0003 59.8873 70.9786 59.2914Z" fill="#2E2E2E"/>
<path d="M83.6131 49.0703C83.6131 49.4456 83.5144 50.2073 83.3168 51.355C83.1196 52.5029 82.988 53.2753 82.9222 53.6726C82.5933 55.3728 82.0444 56.7743 81.277 57.8781C80.5314 58.9596 79.5989 59.6219 78.4804 59.8647C77.7344 60.0194 77.0987 60.0963 76.5719 60.0963C75.9358 59.92 75.4421 59.6443 75.0918 59.2688C74.609 58.761 74.3679 58.2536 74.3679 57.7454C74.3679 57.4587 74.4221 57.05 74.5322 56.5203C74.6196 55.9905 74.7184 55.6708 74.8285 55.5601C74.8943 55.3836 75.0036 55.1849 75.1574 54.964C75.2449 54.7655 75.3654 54.4788 75.5194 54.1032C75.5851 53.993 75.7275 53.7173 75.9467 53.2753C76.1447 52.8119 76.2869 52.4697 76.3747 52.2489L77.1971 50.527C77.3725 50.1298 77.5701 49.7769 77.7897 49.4675C78.0086 49.1586 78.2498 48.9045 78.5133 48.7059C79.0177 48.2647 79.6866 47.9557 80.5205 47.7788C80.8931 47.6907 81.2442 47.6463 81.5733 47.6463C81.9238 47.6463 82.2529 47.7018 82.5604 47.8119C82.8892 47.9225 83.141 48.0881 83.3168 48.3084C83.5358 48.5071 83.6348 48.7391 83.6131 49.0038C83.6131 49.0263 83.6131 49.0483 83.6131 49.0703ZM85.686 59.4674C85.4005 58.6284 85.2031 57.5137 85.0938 56.1232C84.9836 54.7324 85.0058 53.4301 85.1594 52.2157C85.2469 51.3993 85.2912 50.6594 85.2912 49.9972C85.3128 49.3133 85.2912 48.949 85.2254 48.9045C85.1594 48.8607 85.1264 48.6397 85.1264 48.2423C85.1264 47.8894 85.0165 47.6131 84.7975 47.4145C84.5779 47.2381 84.2383 47.0393 83.7777 46.8184C83.0973 46.4658 82.33 46.2886 81.4745 46.2886C81.0137 46.2886 80.5314 46.3332 80.0268 46.4212C78.2282 46.7743 76.6815 48.0549 75.3877 50.2619C74.9928 50.9468 74.5104 51.9292 73.9399 53.2091C73.3476 54.4675 73.0074 55.2951 72.9199 55.6926C72.7886 56.4212 72.7227 57.0947 72.7227 57.7122C72.7227 58.1983 72.7664 58.6511 72.8543 59.0701C73.0953 59.8647 73.3148 60.4608 73.5122 60.8581C73.7097 61.2555 74.0932 61.5979 74.6639 61.8847C74.905 62.0169 75.1133 62.1056 75.2889 62.1495C75.4421 62.1716 75.7496 62.1827 76.2102 62.1827C76.9119 62.1827 77.537 62.0944 78.0855 61.9175C79.3794 61.4542 80.3776 60.9134 81.0799 60.2952C81.7815 59.6774 82.4615 58.8274 83.1196 57.7454C83.141 57.7014 83.1635 57.6685 83.1855 57.6461C83.3829 57.3148 83.4814 57.2157 83.4814 57.3481C83.4814 57.4367 83.5144 57.8781 83.5801 58.6726C83.6894 59.7106 84.008 60.5381 84.5342 61.156C85.0386 61.7743 85.4664 61.9839 85.8176 61.785C85.9273 61.719 85.9926 61.6419 86.015 61.5535C86.015 61.5317 86.015 61.4986 86.015 61.4542C86.015 61.3214 86.0038 61.1451 85.982 60.9243C85.9379 60.4608 85.839 59.9754 85.686 59.4674Z" fill="#2E2E2E"/>
<path d="M98.2638 57.0071C98.2193 57.2278 98.1323 57.5367 98.0006 57.9339C97.7153 58.6407 97.4191 59.1151 97.112 59.3579C96.7832 59.6011 96.191 59.7552 95.3354 59.8215C95.1818 59.8434 95.028 59.8547 94.8749 59.8547C94.1068 59.8547 93.3721 59.6673 92.6704 59.2915C92.2972 59.0489 91.9137 58.7287 91.5188 58.3314C91.1017 57.9124 90.7838 57.4596 90.5648 56.9737C90.3672 56.5986 90.1806 56.1244 90.0052 55.5498C89.8297 54.9983 89.7423 54.6226 89.7423 54.4241C89.7423 54.2478 89.6872 54.1045 89.5779 53.994C89.512 53.9498 89.479 53.8065 89.479 53.5632C89.479 53.3648 89.5004 53.0996 89.5449 52.7686C89.6542 52.0624 89.7751 51.5327 89.9068 51.179C90.2136 50.2303 90.5862 49.4796 91.0254 48.9278C91.157 48.751 91.4747 48.431 91.9795 47.9674C92.4839 47.5261 92.8349 47.2611 93.0323 47.1726C93.4271 47.0184 93.8434 46.9191 94.2826 46.8745C94.3484 46.8745 94.414 46.8745 94.4799 46.8745C94.8089 46.8528 95.1051 46.9191 95.3685 47.0733C95.6532 47.2281 95.9713 47.4929 96.3225 47.8678C96.7832 48.3761 97.0681 48.8064 97.178 49.1593C97.5071 49.844 97.7809 50.8263 98.0006 52.1064C98.1978 53.3867 98.2967 54.6451 98.2967 55.881C98.2967 56.4109 98.2852 56.7867 98.2638 57.0071ZM99.9993 57.0475V56.0821C99.9756 55.3514 99.9013 54.5119 99.7773 53.5632C99.4917 51.2676 99.075 49.568 98.5271 48.464C98.3075 48.0225 97.9345 47.5152 97.4083 46.9408C96.8821 46.3893 96.4429 46.0137 96.092 45.8149C95.7411 45.6385 95.2473 45.5169 94.6116 45.4507C94.3701 45.4291 94.1511 45.4175 93.9537 45.4175C93.6245 45.4175 93.35 45.4507 93.1308 45.5169C92.9772 45.5613 92.769 45.6607 92.5059 45.8149C92.2428 45.9697 92.0668 46.1131 91.9795 46.2455C91.9353 46.2677 91.7707 46.3893 91.4858 46.6099C90.7838 47.0954 90.2136 47.78 89.7751 48.6626C89.7309 48.7734 89.698 48.8505 89.6762 48.8943C89.6321 48.8943 89.6105 48.3978 89.6105 47.4043C89.6105 46.588 89.6213 46.0359 89.6433 45.7486C89.446 45.7933 89.3031 45.8149 89.2157 45.8149C89.0841 45.7933 88.9634 45.8041 88.8538 45.8481C88.7222 45.8925 88.6449 45.9807 88.6235 46.1131C88.5356 46.5767 88.4589 46.9963 88.393 47.3715C88.2172 48.4092 88.075 50.0425 87.9653 52.2718C87.8774 53.8612 87.834 55.2742 87.834 56.5103C87.834 57.0182 87.8447 57.4925 87.867 57.9339C87.9541 61.2452 88.0971 63.4638 88.2946 64.5897C88.4038 65.2518 88.4806 65.881 88.5249 66.4772C88.5904 67.0947 88.7109 67.4919 88.8867 67.6688C89.1278 67.8892 89.3583 68.0001 89.5779 68.0001C89.8188 68.0001 90.0382 67.9007 90.2356 67.7021C90.3889 67.4589 90.444 67.0618 90.4002 66.51C90.3561 65.9801 90.2684 65.3399 90.1369 64.5897C89.9833 63.8388 89.8738 62.7685 89.8079 61.3778C89.7423 59.9206 89.6872 59.104 89.6433 58.9274C89.5991 58.7509 89.5887 58.6737 89.6105 58.6958C89.6542 58.7179 89.7967 58.8832 90.0382 59.1922C90.4765 59.8991 91.1676 60.4836 92.1108 60.9472C93.0323 61.433 93.9752 61.6755 94.9408 61.6755C95.9713 61.6755 96.8705 61.477 97.6386 61.0798C98.1649 60.8594 98.6142 60.5166 98.9873 60.0533C99.3824 59.5895 99.6562 59.0822 99.8099 58.5299C99.9147 58.1267 99.9779 57.6324 99.9993 57.0475Z" fill="#2E2E2E"/>
<path d="M41.2224 11.9977C41.1803 10.1533 41.9523 8.66062 42.2858 8.10465C42.5295 7.69914 42.7437 7.47138 42.951 7.2508C43.1366 7.05366 43.312 6.86706 43.474 6.58927C43.7007 6.2006 43.8782 5.8073 44.0216 5.41499C44.0334 5.44029 44.043 5.46127 44.0546 5.48717C44.5827 6.62531 45.3057 8.18393 45.1093 9.49193C44.9318 10.6731 44.5327 11.3269 44.071 12.084C43.5956 12.8635 43.0567 13.7468 42.6628 15.3547C42.3034 16.8243 41.8106 18.837 42.5946 20.9455C42.7159 21.2706 42.8403 21.5285 42.9612 21.778C43.1702 22.2096 43.3504 22.5821 43.4493 23.195C43.6173 24.2395 43.4416 25.3502 42.9292 26.4967C41.8462 25.1409 41.2656 23.7687 41.2071 22.4163C41.1714 21.5969 41.3317 21.0742 41.5347 20.4127C41.7379 19.7501 41.968 18.9989 42.0758 17.7611C42.1686 16.6967 42.3088 15.0878 41.7458 13.3427C41.5846 12.8432 41.4012 12.44 41.2046 12.0978C41.2149 12.0659 41.2232 12.0331 41.2224 11.9977ZM34.0957 0.563955C35.7205 1.61554 36.8239 2.90385 37.3756 4.39236C37.6703 5.18732 37.6865 5.71828 37.7038 6.28026C37.7229 6.89453 37.7424 7.52967 38.085 8.52385C38.5469 9.86671 39.1383 10.5187 39.7098 11.149C40.2592 11.755 40.7784 12.3273 41.1669 13.5318C41.6916 15.1586 41.5634 16.6319 41.4698 17.7077C41.3671 18.8808 41.1474 19.5988 40.9528 20.2321C40.7416 20.9219 40.5588 21.5176 40.5988 22.4433C40.6641 23.942 41.2987 25.4482 42.4853 26.9201C42.5454 26.9949 42.6331 27.0336 42.7219 27.0336C42.7891 27.0336 42.8569 27.0112 42.9136 26.9651C42.9468 26.938 42.9724 26.9051 42.9909 26.869C43.0146 26.8912 43.0392 26.9123 43.0701 26.9264C43.1109 26.9451 43.1536 26.954 43.1957 26.954C43.3114 26.954 43.4222 26.8871 43.473 26.7741C44.0449 25.5073 44.239 24.2702 44.0502 23.097C43.9371 22.3951 43.7288 21.9649 43.5086 21.5098C43.394 21.2732 43.2756 21.0286 43.165 20.7308C42.4465 18.7998 42.8941 16.9707 43.2544 15.4999C43.6249 13.9862 44.1156 13.182 44.5897 12.4043C45.0655 11.6242 45.5151 10.8878 45.7108 9.58331C45.935 8.09244 45.1669 6.43693 44.6062 5.22809C44.4796 4.95513 44.37 4.71741 44.2892 4.518C44.6891 2.79632 44.4529 1.18985 44.2188 0.233189C44.1787 0.0687406 44.0135 -0.0314032 43.8504 0.00906886C43.6874 0.0494424 43.5875 0.215465 43.6276 0.379618C43.9328 1.62568 44.2501 4.04928 42.9494 6.27889C42.8223 6.49661 42.677 6.65111 42.509 6.82973C42.2902 7.06242 42.0423 7.32574 41.7651 7.78797C41.3743 8.43867 40.7593 9.69291 40.6355 11.2817C40.4777 11.0891 40.3179 10.9109 40.1595 10.7362C39.6049 10.1246 39.0811 9.54707 38.6598 8.32316C38.3479 7.41742 38.3301 6.82964 38.3125 6.26136C38.2941 5.67456 38.2757 5.06777 37.946 4.17828C37.3473 2.56284 36.1626 1.1736 34.4252 0.04865C34.374 0.0157604 34.317 5.8271e-07 34.2608 5.8271e-07C34.1605 -0.000196362 34.0628 0.0495347 34.0046 0.140621C33.9135 0.282914 33.9543 0.472475 34.0957 0.563955Z" fill="#2E2E2E"/>
<path d="M38.4522 55.7532C38.2965 55.7532 38.1607 55.9101 38.0508 56.2141C37.9826 56.4189 37.8893 56.6465 37.7713 56.8958C37.6533 57.1449 37.5102 57.4163 37.3425 57.709C37.0607 58.3524 36.6693 59.0103 36.1363 59.5543C35.9583 59.7356 35.7648 59.9043 35.5536 60.0565C34.106 61.0133 32.4356 61.3496 31.0888 60.3169C30.9201 60.2157 30.7535 60.1028 30.5892 59.9777C30.4249 59.8527 30.2629 59.7156 30.1034 59.5667C29.4975 58.9565 29.0525 58.3355 28.7853 57.7291C28.4639 57.0836 28.3353 56.3258 28.4035 55.476C28.4709 54.6466 28.6616 53.7193 28.9701 52.7232C29.215 51.8713 29.5651 51.0648 30.0115 50.3244C30.2334 49.9665 30.4161 49.7025 30.5548 49.5395C30.7042 49.3647 30.9911 49.1659 31.436 48.9304C32.0741 48.6095 32.8331 48.4469 33.687 48.4469C33.6872 48.4469 33.808 48.4443 33.8677 48.4443C34.651 48.4443 35.339 48.5852 35.9317 48.8731C36.2939 49.1012 36.6481 49.3888 36.9895 49.7322C37.3362 50.1049 37.5724 50.4982 37.6879 50.8918C37.8453 51.3411 37.9752 51.4266 37.9893 51.4342C38.0737 51.4586 38.1832 51.471 38.3159 51.471C38.3686 51.471 38.424 51.469 38.4829 51.4653C38.56 51.3873 38.6123 51.2905 38.6428 51.1677C38.6817 51.0307 38.7013 50.8587 38.7013 50.6572C38.7013 50.5146 38.6202 50.2025 38.2331 49.5273C37.9114 48.9659 37.5967 48.4957 37.307 48.1406C36.6997 47.5088 35.9231 47.081 35.0063 46.8711C34.6679 46.8071 34.2814 46.7749 33.8569 46.7749C33.4288 46.7749 32.9609 46.8078 32.4748 46.8715C31.6266 47.021 30.9302 47.2681 30.4105 47.6028C29.6675 48.1149 28.999 48.8321 28.4258 49.7294C27.8674 50.6583 27.4315 51.7 27.1328 52.8162C27.0045 53.419 26.9395 54.2523 26.9395 55.2927V55.6901C26.9395 56.4472 26.9934 57.0797 27.098 57.5629C27.2476 58.1444 27.487 58.7908 27.8077 59.4792C28.4611 60.7945 29.5533 61.7204 31.0526 62.2304C31.7096 62.444 32.3763 62.5523 33.0342 62.5523C33.4036 62.5523 33.7743 62.5187 34.131 62.4442C34.4589 62.3387 34.7675 62.2384 35.0547 62.1331C36.1107 61.6858 36.779 61.0133 37.3831 60.3138C37.6098 59.9945 37.8025 59.6534 37.9802 59.3093C38.0334 59.1894 38.0836 59.0688 38.1318 58.9475C38.3094 58.4993 38.4667 58.0424 38.6517 57.5967C38.79 57.2635 39.1903 56.7699 39.1969 56.413C39.1806 56.2993 39.1336 56.2044 39.0533 56.1232C38.7493 55.8176 38.5586 55.7532 38.4522 55.7532Z" fill="#2E2E2E"/>
</svg>
