<svg width="48" height="48" viewBox="0 0 48 48" fill="none" xmlns="http://www.w3.org/2000/svg">
<rect width="48" height="48" rx="10" fill="#F5F5F5"/>
<path d="M17 23.1C16.5029 23.1 16.1 23.5029 16.1 24C16.1 24.4971 16.5029 24.9 17 24.9V23.1ZM31 24L31.6364 24.6364C31.9879 24.2849 31.9879 23.7151 31.6364 23.3636L31 24ZM24.6364 16.3636C24.2849 16.0121 23.7151 16.0121 23.3636 16.3636C23.0121 16.7151 23.0121 17.2849 23.3636 17.6364L24.6364 16.3636ZM23.3636 30.3636C23.0121 30.7151 23.0121 31.2849 23.3636 31.6364C23.7151 31.9879 24.2849 31.9879 24.6364 31.6364L23.3636 30.3636ZM17 24.9H31V23.1H17V24.9ZM23.3636 17.6364L30.3636 24.6364L31.6364 23.3636L24.6364 16.3636L23.3636 17.6364ZM30.3636 23.3636L23.3636 30.3636L24.6364 31.6364L31.6364 24.6364L30.3636 23.3636Z" fill="#949494"/>
</svg>
