<svg width="18" height="18" viewBox="0 0 18 18" fill="none" xmlns="http://www.w3.org/2000/svg">
<path d="M9 12C5.58612 12 2.55019 13.5306 0.617355 15.906C0.201357 16.4172 -0.00664202 16.6728 0.000161652 17.0183C0.00541812 17.2852 0.18591 17.6219 0.412067 17.7867C0.704792 18 1.11044 18 1.92174 18H16.0783C16.8896 18 17.2952 18 17.5879 17.7867C17.8141 17.6219 17.9946 17.2852 17.9998 17.0183C18.0066 16.6728 17.7986 16.4172 17.3826 15.906C15.4498 13.5306 12.4139 12 9 12Z" fill="#D1D1D1"/>
<path d="M9 9C11.6764 9 13.8461 6.98528 13.8461 4.5C13.8461 2.01472 11.6764 0 9 0C6.32359 0 4.15392 2.01472 4.15392 4.5C4.15392 6.98528 6.32359 9 9 9Z" fill="#D1D1D1"/>
</svg>
