<svg width="18" height="18" viewBox="0 0 18 18" fill="none" xmlns="http://www.w3.org/2000/svg">
<path d="M16.3636 17.6366C16.7151 17.9881 17.2849 17.9881 17.6364 17.6366C17.9879 17.2852 17.9879 16.7153 17.6364 16.3638L16.3636 17.6366ZM13.7697 12.4972C13.4183 12.1457 12.8484 12.1457 12.4969 12.4972C12.1455 12.8487 12.1455 13.4185 12.4969 13.77L13.7697 12.4972ZM17.6364 16.3638L13.7697 12.4972L12.4969 13.77L16.3636 17.6366L17.6364 16.3638ZM14.3222 8.11136C14.3222 11.5417 11.5414 14.3225 8.11111 14.3225V16.1225C12.5355 16.1225 16.1222 12.5358 16.1222 8.11136H14.3222ZM8.11111 14.3225C4.68081 14.3225 1.9 11.5417 1.9 8.11136H0.1C0.1 12.5358 3.6867 16.1225 8.11111 16.1225V14.3225ZM1.9 8.11136C1.9 4.68105 4.68081 1.90024 8.11111 1.90024V0.100244C3.6867 0.100244 0.1 3.68694 0.1 8.11136H1.9ZM8.11111 1.90024C11.5414 1.90024 14.3222 4.68105 14.3222 8.11136H16.1222C16.1222 3.68694 12.5355 0.100244 8.11111 0.100244V1.90024Z" fill="#12B370"/>
</svg>
