<svg width="1171" height="160" viewBox="0 0 1171 160" fill="none" xmlns="http://www.w3.org/2000/svg">
<g clip-path="url(#clip0_437_82623)">
<path d="M222.642 187.656C230.958 183.139 237 175.234 240.068 166.372C241.899 161.083 242.751 155.529 242.937 149.948C243.162 143.218 240.637 135.345 242.636 128.816C243.413 128.278 244.185 127.742 244.966 127.203C245.765 126.65 245.57 125.177 244.522 125.047C224.431 122.558 200.541 102.803 180.39 115.563C165.009 125.301 165.379 147.124 171.338 162.772C164.062 165.218 156.765 167.419 149.541 169.373C147.864 169.827 148.78 172.235 150.411 171.883C157.956 170.251 165.353 168.236 172.632 165.879C172.868 166.399 173.094 166.936 173.341 167.439C182.113 185.153 203.493 198.062 222.642 187.656ZM238.257 142.956C236.83 142.282 235.278 141.756 233.915 141.224C231.881 140.432 229.824 139.712 227.765 138.992C231.409 136.567 235.028 134.085 238.664 131.564C237.838 135.233 238.145 138.946 238.257 142.956ZM240.219 127.301C240.066 127.592 239.951 127.882 239.819 128.173C233.419 133.036 226.613 137.455 219.538 141.504C221.028 135.507 221.542 129.009 222.312 122.934C228.118 124.99 233.968 126.848 240.219 127.301ZM219.979 122.103C218.506 129.003 216.456 136.358 216.165 143.403C211.728 145.84 207.197 148.142 202.591 150.303C204.415 139.571 205.407 128.616 206.498 117.782C211.102 118.891 215.541 120.507 219.979 122.103ZM199.885 116.604C201.446 116.77 202.979 117.027 204.495 117.335C202.66 128.411 200.672 139.582 199.65 150.756C199.62 151.086 199.706 151.36 199.836 151.6C194.845 153.87 189.782 155.992 184.671 157.965C186.927 144.282 189.008 130.534 191.229 116.839C193.814 116.375 196.687 116.266 199.885 116.604ZM190.013 117.096C185.185 130.024 182.31 145.013 182.344 158.831C180.204 159.636 178.066 160.441 175.917 161.199C169.353 144.286 171.958 121.306 190.013 117.096ZM211.137 149.271C212.892 148.286 214.648 147.3 216.36 146.269C216.841 146.803 217.883 146.85 218.174 146.063C218.312 145.691 218.418 145.304 218.545 144.926C221.083 143.361 223.583 141.744 226.072 140.107C228.302 141.269 230.538 142.414 232.815 143.488C234.51 144.289 236.395 145.353 238.284 145.901C238.267 150.892 237.803 155.87 236.584 160.658C236.519 160.586 236.47 160.509 236.377 160.446C229.087 155.402 219.881 151.408 211.137 149.271ZM201.793 154.198C204.331 152.972 206.811 151.689 209.247 150.359C213.428 152.448 217.795 154.168 222.012 156.187C226.351 158.264 230.593 160.635 235.015 162.523C235.393 162.683 235.772 162.616 236.096 162.444C235.25 165.265 234.134 168.014 232.627 170.639C231.822 172.044 230.961 173.324 230.066 174.518C225.048 170.968 219.064 168.61 213.535 165.965C207.456 163.059 201.393 160.117 195.324 157.189C197.489 156.226 199.646 155.232 201.793 154.198ZM193.625 159.445C199.786 162.595 205.954 165.733 212.105 168.904C217.36 171.612 222.669 174.808 228.298 176.696C224.774 180.655 220.72 183.209 216.443 184.577C203.179 179.124 191.94 171.859 180.538 163.161C180.526 163.151 180.515 163.151 180.503 163.142C184.67 161.616 188.807 159.999 192.895 158.235C192.885 158.7 193.085 159.168 193.625 159.445ZM177.276 164.335C177.802 164.153 178.318 163.943 178.842 163.757C178.763 164.095 178.823 164.479 179.126 164.814C187.416 174.015 198.655 181.071 210.282 185.73C197.387 186.529 183.838 177.855 177.276 164.335Z" fill="#90C5BA"/>
</g>
<g clip-path="url(#clip1_437_82623)">
<path d="M532.698 -10.6844C525.612 -4.41136 521.505 4.65009 520.51 13.976C519.917 19.5412 520.337 25.1447 521.412 30.6243C522.707 37.2319 526.94 44.335 526.462 51.1458C525.826 51.8451 525.195 52.5409 524.555 53.2424C523.9 53.9603 524.422 55.3523 525.473 55.2427C545.608 53.1458 573.332 67.0167 590.094 50.0475C602.888 37.0978 597.615 15.918 588.287 2.01349C594.826 -2.00851 601.441 -5.79553 608.039 -9.32447C609.57 -10.1446 608.136 -12.2843 606.626 -11.5748C599.642 -8.28647 592.888 -4.65759 586.327 -0.722968C585.98 -1.17678 585.639 -1.64906 585.285 -2.08329C572.751 -17.3681 549.014 -25.1331 532.698 -10.6844ZM527.546 36.3829C529.087 36.7188 530.718 36.882 532.167 37.093C534.326 37.4076 536.493 37.646 538.661 37.8833C535.657 41.067 532.688 44.3 529.714 47.5742C529.693 43.814 528.558 40.2647 527.546 36.3829ZM529.158 52.0778C529.241 51.7604 529.288 51.4513 529.352 51.1387C534.492 44.9593 540.129 39.1221 546.111 33.5842C546.009 39.7627 546.971 46.2103 547.588 52.3019C541.468 51.6064 535.351 51.1124 529.158 52.0778ZM550.049 52.5863C549.93 45.5325 550.272 37.9051 548.97 30.9747C552.745 27.6021 556.641 24.3393 560.642 21.1965C561.281 32.0638 562.781 42.9607 564.156 53.7622C559.421 53.7185 554.732 53.1433 550.049 52.5863ZM570.865 53.4218C569.307 53.6118 567.755 53.7059 566.208 53.7477C565.504 42.5426 564.926 31.2111 563.406 20.0936C563.361 19.7651 563.216 19.5171 563.036 19.313C567.387 15.9778 571.842 12.77 576.378 9.69784C577.26 23.5373 578.327 37.4011 579.245 51.2445C576.832 52.2784 574.056 53.0317 570.865 53.4218ZM580.373 50.7201C582.167 37.0376 581.594 21.7859 578.451 8.33015C580.354 7.06378 582.256 5.79852 584.18 4.57638C594.382 19.5774 597.016 42.5542 580.373 50.7201ZM552.548 24.1258C551.06 25.4811 549.571 26.8363 548.135 28.2262C547.547 27.8146 546.52 28.0029 546.414 28.8355C546.363 29.2289 546.347 29.6302 546.309 30.0263C544.188 32.1228 542.116 34.2608 540.059 36.4161C537.624 35.786 535.189 35.1739 532.728 34.6397C530.897 34.2405 528.82 33.6284 526.857 33.5202C525.75 28.6529 525.081 23.6987 525.191 18.7584C525.271 18.8147 525.336 18.8782 525.441 18.919C533.679 22.1923 543.547 24.0118 552.548 24.1258ZM560.544 17.2222C558.347 18.9876 556.219 20.7963 554.145 22.6402C549.601 21.5456 544.959 20.8535 540.396 19.8352C535.7 18.7882 531.034 17.4328 526.3 16.5886C525.896 16.5175 525.542 16.6678 525.264 16.9088C525.454 13.9702 525.922 11.0403 526.8 8.14334C527.269 6.5929 527.819 5.15242 528.422 3.78792C534.11 6.11703 540.472 7.06727 546.454 8.39949C553.032 9.86341 559.601 11.3649 566.173 12.852C564.281 14.2776 562.403 15.731 560.544 17.2222ZM567.321 10.271C560.609 8.58915 553.893 6.91995 547.186 5.21492C541.456 3.75922 535.564 1.84023 529.655 1.26753C532.197 -3.38279 535.572 -6.7845 539.431 -9.07999C553.582 -6.7524 566.169 -2.20409 579.235 3.70536C579.249 3.71156 579.26 3.70954 579.274 3.71574C575.558 6.13977 571.891 8.64667 568.305 11.2862C568.21 10.8306 567.909 10.4194 567.321 10.271ZM582.149 1.82693C581.678 2.12255 581.223 2.44305 580.754 2.74222C580.754 2.39521 580.61 2.03489 580.24 1.77665C570.091 -5.32231 557.553 -9.66783 545.175 -11.5896C557.559 -15.2713 572.713 -9.86911 582.149 1.82693Z" fill="#90C5BA"/>
</g>
<g clip-path="url(#clip2_437_82623)">
<path d="M982.842 25.6071C985.609 29.7242 990.031 32.4874 994.807 33.6524C997.657 34.3471 1000.6 34.5184 1003.52 34.3405C1007.04 34.1268 1011.02 32.4216 1014.53 33.1429C1014.85 33.5221 1015.17 33.8984 1015.49 34.2796C1015.81 34.6694 1016.57 34.4951 1016.59 33.9414C1016.9 23.3355 1026.03 9.89694 1018.38 0.00975348C1012.54 -7.53638 1001.17 -6.26903 993.301 -2.38901C991.666 -6.06544 990.158 -9.76483 988.784 -13.4378C988.464 -14.2905 987.253 -13.6939 987.516 -12.8604C988.739 -9.00349 990.155 -5.24294 991.744 -1.56083C991.484 -1.41222 991.215 -1.26789 990.964 -1.11401C982.153 4.33518 976.47 16.1275 982.842 25.6071ZM1006.94 31.5541C1007.22 30.7767 1007.42 29.9407 1007.63 29.2031C1007.94 28.103 1008.21 26.9941 1008.49 25.8842C1009.93 27.6662 1011.41 29.4328 1012.9 31.2057C1010.95 30.9553 1009.02 31.2983 1006.94 31.5541ZM1015.2 31.8072C1015.04 31.7419 1014.89 31.6963 1014.73 31.6414C1011.87 28.5416 1009.23 25.2073 1006.77 21.7151C1009.97 22.1972 1013.39 22.1455 1016.6 22.2482C1015.81 25.3793 1015.13 28.523 1015.2 31.8072ZM1016.92 20.9898C1013.24 20.5611 1009.31 19.8537 1005.61 20.0485C1004.13 17.853 1002.7 15.6023 1001.35 13.3053C1007.04 13.7286 1012.8 13.7067 1018.51 13.7428C1018.16 16.1995 1017.53 18.5957 1016.92 20.9898ZM1018.8 10.2339C1018.79 11.0565 1018.73 11.869 1018.64 12.6756C1012.77 12.263 1006.85 11.776 1000.97 11.7928C1000.79 11.7934 1000.65 11.8518 1000.53 11.9312C999.104 9.43909 997.747 6.90137 996.466 4.33146C1003.72 4.83533 1010.99 5.24414 1018.25 5.72897C1018.62 7.05458 1018.82 8.54875 1018.8 10.2339ZM1018.05 5.10668C1011.07 3.22395 1003.11 2.462 995.899 3.15968C995.374 2.0829 994.849 1.00712 994.347 -0.0771422C1002.85 -4.33503 1014.97 -4.10697 1018.05 5.10668ZM1002.31 17.7139C1002.91 18.5812 1003.51 19.4486 1004.13 20.2916C1003.87 20.5683 1003.9 21.1147 1004.33 21.228C1004.53 21.2815 1004.73 21.3176 1004.94 21.3653C1005.88 22.6127 1006.85 23.8378 1007.82 25.0559C1007.33 26.2769 1006.84 27.4996 1006.39 28.741C1006.06 29.6646 1005.59 30.7008 1005.4 31.7132C1002.8 31.9502 1000.18 31.9535 997.616 31.5528C997.651 31.5152 997.689 31.486 997.717 31.4344C999.99 27.3819 1001.62 22.3819 1002.31 17.7139ZM999.275 13.0803C1000.04 14.3444 1000.83 15.5755 1001.64 16.7808C1000.76 19.0657 1000.08 21.4288 999.232 23.7289C998.362 26.0955 997.334 28.4254 996.566 30.8262C996.501 31.0311 996.555 31.2255 996.661 31.3863C995.147 31.0835 993.658 30.6369 992.214 29.9797C991.441 29.6284 990.731 29.2424 990.064 28.8344C991.669 26.041 992.605 22.8021 993.712 19.7869C994.93 16.4716 996.166 13.1633 997.395 9.85231C998.005 10.9346 998.629 12.011 999.275 13.0803ZM996.134 9.07675C994.794 12.4467 993.46 15.8199 992.109 19.1855C990.954 22.0612 989.548 24.9887 988.84 28.0188C986.601 26.3751 985.068 24.3852 984.144 22.221C986.336 15.0312 989.573 8.80851 993.551 2.43096C993.556 2.42422 993.555 2.4183 993.559 2.41156C994.561 4.51064 995.608 6.58975 996.73 8.63611C996.487 8.65389 996.252 8.78126 996.134 9.07675ZM992.778 0.786553C992.899 1.0518 993.034 1.31066 993.157 1.57499C992.976 1.55075 992.779 1.60072 992.619 1.77509C988.226 6.55416 985.097 12.766 983.239 19.0627C982.187 12.3733 986.046 4.87612 992.778 0.786553Z" fill="#90C5BA"/>
</g>
<g clip-path="url(#clip3_437_82623)">
<path d="M1143.62 130.662C1139.9 125.124 1133.95 121.408 1127.53 119.84C1123.7 118.906 1119.74 118.676 1115.81 118.915C1111.07 119.202 1105.72 121.496 1101 120.526C1100.57 120.016 1100.14 119.51 1099.71 118.997C1099.27 118.472 1098.25 118.707 1098.23 119.452C1097.81 133.718 1085.53 151.794 1095.82 165.093C1103.67 175.244 1118.97 173.539 1129.56 168.32C1131.76 173.265 1133.78 178.241 1135.63 183.182C1136.06 184.329 1137.69 183.526 1137.34 182.405C1135.69 177.217 1133.79 172.159 1131.65 167.206C1132 167.006 1132.36 166.812 1132.7 166.605C1144.55 159.275 1152.2 143.413 1143.62 130.662ZM1111.22 122.663C1110.84 123.709 1110.57 124.833 1110.29 125.825C1109.87 127.305 1109.5 128.797 1109.13 130.289C1107.18 127.893 1105.2 125.516 1103.19 123.132C1105.82 123.468 1108.41 123.007 1111.22 122.663ZM1100.1 122.322C1100.31 122.41 1100.52 122.472 1100.74 122.545C1104.57 126.715 1108.13 131.2 1111.44 135.897C1107.13 135.249 1102.53 135.319 1098.22 135.18C1099.28 130.969 1100.19 126.74 1100.1 122.322ZM1097.79 136.873C1102.73 137.45 1108.03 138.401 1112.99 138.139C1115 141.092 1116.91 144.12 1118.73 147.209C1111.08 146.64 1103.33 146.67 1095.65 146.621C1096.12 143.316 1096.96 140.093 1097.79 136.873ZM1095.26 151.341C1095.27 150.234 1095.35 149.141 1095.47 148.056C1103.36 148.611 1111.34 149.267 1119.25 149.244C1119.48 149.243 1119.67 149.165 1119.83 149.058C1121.75 152.41 1123.58 155.823 1125.3 159.28C1115.55 158.603 1105.76 158.053 1096 157.4C1095.5 155.617 1095.23 153.608 1095.26 151.341ZM1096.26 158.238C1105.65 160.77 1116.36 161.795 1126.06 160.856C1126.77 162.305 1127.47 163.752 1128.15 165.21C1116.71 170.938 1100.41 170.631 1096.26 158.238ZM1117.44 141.28C1116.64 140.113 1115.83 138.946 1114.99 137.812C1115.33 137.44 1115.3 136.705 1114.73 136.553C1114.46 136.481 1114.18 136.432 1113.9 136.368C1112.64 134.69 1111.34 133.042 1110.02 131.404C1110.69 129.761 1111.35 128.117 1111.95 126.447C1112.4 125.204 1113.02 123.811 1113.28 122.449C1116.79 122.13 1120.31 122.126 1123.75 122.665C1123.7 122.715 1123.65 122.754 1123.62 122.824C1120.56 128.275 1118.36 135 1117.44 141.28ZM1121.52 147.512C1120.49 145.812 1119.43 144.156 1118.33 142.535C1119.52 139.461 1120.44 136.283 1121.58 133.189C1122.75 130.005 1124.13 126.871 1125.16 123.642C1125.25 123.366 1125.18 123.105 1125.04 122.889C1127.07 123.296 1129.08 123.897 1131.02 124.781C1132.06 125.253 1133.01 125.772 1133.91 126.321C1131.75 130.079 1130.49 134.435 1129 138.491C1127.37 142.951 1125.7 147.4 1124.05 151.854C1123.23 150.398 1122.39 148.95 1121.52 147.512ZM1125.74 152.897C1127.55 148.364 1129.34 143.827 1131.16 139.3C1132.71 135.432 1134.6 131.494 1135.56 127.418C1138.57 129.629 1140.63 132.306 1141.87 135.217C1138.92 144.888 1134.57 153.258 1129.22 161.837C1129.21 161.846 1129.21 161.854 1129.21 161.863C1127.86 159.039 1126.45 156.243 1124.94 153.49C1125.27 153.466 1125.59 153.295 1125.74 152.897ZM1130.26 164.049C1130.1 163.692 1129.92 163.344 1129.75 162.988C1129.99 163.021 1130.26 162.953 1130.47 162.719C1136.38 156.291 1140.59 147.935 1143.09 139.465C1144.51 148.463 1139.31 158.548 1130.26 164.049Z" fill="#90C5BA"/>
</g>
<g clip-path="url(#clip4_437_82623)">
<path d="M32.0446 -11.9311C36.9489 -9.26716 40.5117 -4.60559 42.3215 0.621028C43.401 3.7401 43.9036 7.01563 44.0131 10.3069C44.146 14.2756 42.657 18.9189 43.8355 22.7691C44.294 23.0864 44.7491 23.4024 45.2099 23.7205C45.6813 24.0462 45.5662 24.9153 44.9477 24.9918C33.0997 26.4598 19.011 38.1101 7.1266 30.5847C-1.94373 24.842 -1.72574 11.9721 1.78867 2.74422C-2.50251 1.30115 -6.80595 0.00315286 -11.0657 -1.14874C-12.0547 -1.41665 -11.5145 -2.83657 -10.5529 -2.62925C-6.10309 -1.66692 -1.74084 -0.478212 2.55175 0.911639C2.69075 0.604847 2.824 0.288203 2.96993 -0.0083319C8.14279 -10.4548 20.7519 -18.0676 32.0446 -11.9311ZM41.253 14.4301C40.412 14.8277 39.4964 15.138 38.6924 15.4515C37.4932 15.9189 36.28 16.3435 35.0657 16.7676C37.2145 18.1982 39.3493 19.6619 41.4932 21.1484C41.0061 18.9849 41.1871 16.7949 41.253 14.4301ZM42.4102 23.6624C42.3202 23.4911 42.2526 23.3197 42.1743 23.1485C38.4004 20.2802 34.3862 17.6744 30.2141 15.2863C31.0925 18.823 31.3957 22.6555 31.8498 26.2377C35.2741 25.0257 38.7237 23.9297 42.4102 23.6624ZM30.4738 26.7277C29.6055 22.6589 28.3966 18.3215 28.2248 14.1664C25.6079 12.7296 22.9361 11.372 20.2199 10.0972C21.2955 16.4264 21.8803 22.8869 22.5239 29.276C25.2388 28.6224 27.8569 27.6694 30.4738 26.7277ZM18.6238 29.971C19.5443 29.8733 20.4482 29.7214 21.3427 29.5401C20.2601 23.0081 19.0881 16.4202 18.4852 9.83038C18.4675 9.63566 18.5183 9.47382 18.5947 9.33264C15.6518 7.99377 12.6657 6.74207 9.65147 5.57889C10.9823 13.6481 12.2093 21.7559 13.5193 29.8323C15.0434 30.1061 16.7381 30.1705 18.6238 29.971ZM12.8017 29.6807C9.95456 22.0568 8.25934 13.217 8.27895 5.06815C7.01718 4.59314 5.75658 4.11854 4.489 3.67164C0.617926 13.6456 2.1544 27.1978 12.8017 29.6807ZM25.2597 10.706C26.2948 11.2871 27.3299 11.8683 28.34 12.4762C28.6232 12.1617 29.238 12.1336 29.4098 12.5979C29.491 12.8172 29.5533 13.0457 29.6282 13.2681C31.1251 14.1913 32.5997 15.1447 34.0675 16.1102C35.3827 15.425 36.701 14.7499 38.0442 14.1163C39.0434 13.6438 40.1553 13.0165 41.269 12.6937C41.2592 9.74993 40.9858 6.81444 40.2665 3.99038C40.2281 4.03338 40.1994 4.07844 40.1445 4.11577C35.8452 7.09023 30.4165 9.44563 25.2597 10.706ZM19.7488 7.80052C21.2457 8.52328 22.7085 9.28009 24.1447 10.0644C26.6108 8.83211 29.1858 7.81834 31.6729 6.62742C34.232 5.40251 36.7333 4.00431 39.3416 2.89074C39.5642 2.79627 39.7876 2.83567 39.979 2.93732C39.4799 1.27395 38.8221 -0.347424 37.9333 -1.89557C37.458 -2.72422 36.9506 -3.47887 36.423 -4.18288C33.4635 -2.08945 29.9342 -0.698958 26.6737 0.860624C23.0885 2.57492 19.5133 4.3097 15.9342 6.0366C17.2109 6.60454 18.4828 7.19043 19.7488 7.80052ZM14.9321 4.70592C18.5656 2.84853 22.2032 0.997858 25.8305 -0.87212C28.9298 -2.4692 32.0606 -4.35398 35.3801 -5.46747C33.3021 -7.80211 30.911 -9.3087 28.389 -10.1154C20.5667 -6.89954 13.9382 -2.61529 7.21444 2.51481C7.20734 2.52021 7.20068 2.52053 7.19357 2.52592C9.65078 3.42546 12.0905 4.37919 14.5015 5.41987C14.4957 5.14544 14.6136 4.86932 14.9321 4.70592ZM5.29063 1.82229C5.60053 1.92963 5.90476 2.05334 6.21385 2.16301C6.16765 1.96365 6.20278 1.73744 6.38121 1.53992C11.2704 -3.88637 17.8983 -8.04772 24.7554 -10.7951C17.1507 -11.2666 9.16025 -6.15093 5.29063 1.82229Z" fill="#90C5BA"/>
</g>


<defs>
<clipPath id="clip0_437_82623">
<rect width="106.107" height="106.107" fill="white" transform="translate(231.264 85) rotate(70.8961)"/>
</clipPath>
<clipPath id="clip1_437_82623">
<rect width="106.107" height="106.107" fill="white" transform="translate(547.404 91.2778) rotate(-122.112)"/>
</clipPath>
<clipPath id="clip2_437_82623">
<rect width="55.6138" height="55.6138" fill="white" transform="translate(1036.83 25.0518) rotate(155.506)"/>
</clipPath>
<clipPath id="clip3_437_82623">
<rect width="74.8064" height="74.8064" fill="white" transform="translate(1071 131.409) rotate(-24.4942)"/>
</clipPath>
<clipPath id="clip4_437_82623">
<rect width="62.5755" height="62.5755" fill="white" transform="matrix(0.327283 -0.944926 -0.944926 -0.327283 37.1289 48.6091)"/>
</clipPath>
</defs>
</svg>
