<svg width="16" height="16" viewBox="0 0 16 16" fill="none" xmlns="http://www.w3.org/2000/svg">
<path d="M7.46725 1.64161C7.63842 1.27788 7.72401 1.09602 7.84019 1.03792C7.94128 0.987361 8.05872 0.987361 8.15981 1.03792C8.27599 1.09602 8.36158 1.27788 8.53275 1.64161L10.1567 5.09236C10.2072 5.19974 10.2325 5.25343 10.2694 5.29511C10.3021 5.33202 10.3413 5.36193 10.3848 5.38317C10.434 5.40717 10.4905 5.41583 10.6035 5.43315L14.236 5.99005C14.6185 6.04869 14.8097 6.07801 14.8982 6.17601C14.9752 6.26127 15.0115 6.37843 14.9968 6.49486C14.98 6.62869 14.8415 6.77015 14.5646 7.05307L11.9371 9.73738C11.8552 9.82106 11.8142 9.8629 11.7878 9.91268C11.7644 9.95676 11.7494 10.0052 11.7436 10.0553C11.737 10.1118 11.7467 10.1709 11.766 10.2891L12.386 14.0806C12.4514 14.4805 12.4841 14.6804 12.4226 14.7991C12.3692 14.9023 12.2742 14.9747 12.164 14.9962C12.0375 15.0208 11.8663 14.9263 11.5239 14.7375L8.27653 12.9462C8.17535 12.8904 8.12476 12.8625 8.07146 12.8515C8.02427 12.8418 7.97573 12.8418 7.92854 12.8515C7.87524 12.8625 7.82465 12.8904 7.72347 12.9462L4.47609 14.7375C4.13373 14.9263 3.96254 15.0208 3.83597 14.9962C3.72584 14.9747 3.63081 14.9023 3.57736 14.7991C3.51591 14.6804 3.54861 14.4805 3.614 14.0806L4.23396 10.2891C4.25329 10.1709 4.26295 10.1118 4.25642 10.0553C4.25063 10.0052 4.23561 9.95676 4.21222 9.91268C4.18579 9.8629 4.14484 9.82106 4.06293 9.73738L1.43544 7.05307C1.15851 6.77015 1.02005 6.62869 1.0032 6.49486C0.988539 6.37843 1.02476 6.26127 1.10177 6.17601C1.19028 6.07801 1.38153 6.04869 1.76405 5.99005L5.39651 5.43315C5.50948 5.41583 5.56596 5.40717 5.61515 5.38317C5.65871 5.36193 5.69792 5.33202 5.73061 5.29511C5.76753 5.25343 5.7928 5.19974 5.84333 5.09236L7.46725 1.64161Z" fill="#FFBF00"/>
</svg>
