<svg width="14" height="14" viewBox="0 0 14 14" fill="none" xmlns="http://www.w3.org/2000/svg">
<path d="M6.46725 0.641609C6.63842 0.277884 6.72401 0.096021 6.84019 0.0379158C6.94128 -0.0126386 7.05872 -0.0126386 7.15981 0.0379158C7.27599 0.096021 7.36158 0.277884 7.53275 0.641609L9.15667 4.09236C9.2072 4.19974 9.23247 4.25343 9.26939 4.29511C9.30208 4.33202 9.3413 4.36193 9.38485 4.38317C9.43404 4.40717 9.49052 4.41583 9.60349 4.43315L13.236 4.99005C13.6185 5.04869 13.8097 5.07801 13.8982 5.17601C13.9752 5.26127 14.0115 5.37843 13.9968 5.49486C13.98 5.62869 13.8415 5.77015 13.5646 6.05307L10.9371 8.73738C10.8552 8.82106 10.8142 8.8629 10.7878 8.91268C10.7644 8.95676 10.7494 9.00518 10.7436 9.05526C10.737 9.11183 10.7467 9.17093 10.766 9.28913L11.386 13.0806C11.4514 13.4805 11.4841 13.6804 11.4226 13.7991C11.3692 13.9023 11.2742 13.9747 11.164 13.9962C11.0375 14.0208 10.8663 13.9263 10.5239 13.7375L7.27653 11.9462C7.17535 11.8904 7.12476 11.8625 7.07146 11.8515C7.02427 11.8418 6.97573 11.8418 6.92854 11.8515C6.87524 11.8625 6.82465 11.8904 6.72347 11.9462L3.47609 13.7375C3.13373 13.9263 2.96254 14.0208 2.83597 13.9962C2.72584 13.9747 2.63081 13.9023 2.57736 13.7991C2.51591 13.6804 2.54861 13.4805 2.614 13.0806L3.23396 9.28913C3.25329 9.17093 3.26295 9.11183 3.25642 9.05526C3.25063 9.00518 3.23561 8.95676 3.21222 8.91268C3.18579 8.8629 3.14484 8.82106 3.06293 8.73738L0.435442 6.05307C0.158513 5.77015 0.0200483 5.62869 0.00319896 5.49486C-0.0114609 5.37843 0.0247558 5.26127 0.101766 5.17601C0.190277 5.07801 0.381535 5.04869 0.764049 4.99005L4.39651 4.43315C4.50948 4.41583 4.56596 4.40717 4.61515 4.38317C4.65871 4.36193 4.69792 4.33202 4.73061 4.29511C4.76753 4.25343 4.7928 4.19974 4.84333 4.09236L6.46725 0.641609Z" fill="#FFBF00"/>
</svg>
