<svg width="14" height="14" viewBox="0 0 14 14" fill="none" xmlns="http://www.w3.org/2000/svg">
<path fill-rule="evenodd" clip-rule="evenodd" d="M14 7C14 10.866 10.866 14 7 14C3.13401 14 0 10.866 0 7C0 3.13401 3.13401 0 7 0C10.866 0 14 3.13401 14 7ZM7.78759 2.80002C7.78759 2.3651 7.43501 2.01252 7.00009 2.01252C6.56516 2.01252 6.21259 2.3651 6.21259 2.80002V7.00002C6.21259 7.2983 6.38111 7.57099 6.64791 7.70438L9.44791 9.10438C9.83691 9.29889 10.3099 9.14121 10.5044 8.7522C10.699 8.36319 10.5413 7.89016 10.1523 7.69566L7.78759 6.51332V2.80002Z" fill="#D1D1D1"/>
</svg>
