<svg width="16" height="12" viewBox="0 0 16 12" fill="none" xmlns="http://www.w3.org/2000/svg">
<path fill-rule="evenodd" clip-rule="evenodd" d="M0.0174511 6.1915C0.0484285 6.33404 0.103766 6.42646 0.21444 6.6113C1.12902 8.13871 3.85134 12 8 12C12.1487 12 14.871 8.13871 15.7856 6.6113C15.8962 6.42647 15.9516 6.33404 15.9825 6.1915C16.0058 6.08443 16.0058 5.91557 15.9825 5.8085C15.9516 5.66596 15.8962 5.57354 15.7856 5.38872C14.871 3.86131 12.1487 0 8 0C3.85134 0 1.12902 3.86129 0.21444 5.3887C0.103766 5.57354 0.0484285 5.66596 0.0174511 5.8085C-0.00581704 5.91557 -0.00581704 6.08443 0.0174511 6.1915ZM6.37464 6.0001C6.37464 5.05333 7.10232 4.28582 7.99997 4.28582C8.89761 4.28582 9.6253 5.05333 9.6253 6.0001C9.6253 6.94688 8.89761 7.71439 7.99997 7.71439C7.10232 7.71439 6.37464 6.94688 6.37464 6.0001ZM7.99997 2.57153C6.20468 2.57153 4.74931 4.10656 4.74931 6.0001C4.74931 7.89365 6.20468 9.42868 7.99997 9.42868C9.79526 9.42868 11.2506 7.89365 11.2506 6.0001C11.2506 4.10656 9.79526 2.57153 7.99997 2.57153Z" fill="#D1D1D1"/>
</svg>
